<?xml version="1.0" encoding="UTF-8"?>
<svg xmlns="http://www.w3.org/2000/svg" viewBox="0 0 1000 1100" role="img" aria-labelledby="map-title map-description">
  <title id="map-title">Chandigarh district map</title>
  <desc id="map-description">Interactive vector map of Chandigarh containing 1 district boundary.</desc>
  <g id="district-layer" data-status="ready" data-district-count="1" data-layer-id="IN-REGION-04-DISTRICTS" data-division-layer-id="IN-REGION-04-DIVISIONS" data-division-count="0" data-division-status="not-applicable">
    <g id="district-chandigarh" class="district-region" data-district="Chandigarh" data-slug="chandigarh" data-code="055" data-lgd-code="44" data-boundary-year="2011_c" data-geometry-type="Polygon" data-feature-id="IN-REGION-04-DISTRICT-055" tabindex="0" role="link" aria-label="Select Chandigarh district">
      <path d="M465.18 80.42L463.46 78.28L461.44 79.14L457.93 80.63L457.05 81.01L455.87 81.51L455.07 81.85L453.92 82.44L452.35 83.24L450.27 84.41L450.78 85.77L444.32 87.32L443.28 83.44L437.89 85.46L431.11 89.18L425.49 92.03L425.38 93.24L425.34 93.71L420.25 95.9L415.56 98.2L412.44 99.73L408.74 101.55L405.96 103.22L401.83 105.7L401.17 106.2L398.38 108.34L397.91 108.74L397.26 109.31L396.32 110.13L395.05 112.86L394.48 114.09L394.2 114.7L393.52 115.85L392.72 116.61L391.85 117.44L388.89 118.83L388.01 119.36L387.43 119.71L386.3 120.89L383.51 123.7L380.98 126.21L381.27 126.91L382.23 129.2L382.89 131.3L383.26 132.5L380.33 134.77L371.89 138.93L366.14 141.92L365.81 142.1L359.62 146.09L350.45 151.27L348.47 152.49L343.57 155.51L341.81 156.59L341.08 157.11L339.13 158.49L341.02 162.63L341.28 163.13L342.11 164.73L343.27 166.98L341.68 168.06L343.99 173.76L343.16 174.41L342.36 175.03L343.6 178.95L341.12 180.64L342.04 183.12L342.7 185.97L342.15 188.18L341.84 188.4L339.84 188.98L336.78 189.55L336.43 189.61L335.58 189.78L334.4 190.01L334.02 190.17L333.08 190.56L331.29 191.99L329.73 193.79L327.26 196.4L326.35 198.05L326.12 198.45L324.27 199.15L323.11 200.06L322.73 200.37L320.9 201.81L315.19 207.27L314.8 207.64L314.44 207.99L310.01 209.58L307.91 210.33L307.07 210.63L305.92 211.09L303.69 211.98L301.5 212.85L301.24 212.44L300.12 210.71L293.4 214.91L292.33 215.57L291.96 215.81L288.28 218.33L288.7 218.86L288.98 219.21L292.01 223.04L295.95 228.69L297.62 237.88L297.87 241.58L299.12 243.94L298.53 245.88L296.52 248.32L293.33 248.74L293.16 251.68L289.39 252.1L289.89 256.74L290.88 264.74L290.21 265.49L284.18 266.36L283.24 266.76L279.46 268.35L277.57 269.15L276.84 269.47L276.35 269.7L269.1 273.1L264.04 274.88L263.01 275.24L260.36 276.19L250.19 279.85L242.29 283.92L241.39 284.38L240.87 284.65L231.22 289.72L227.14 291.93L223.84 292.71L221.46 293.38L221.02 293.51L220.61 293.67L219.63 294.15L213.22 297.25L212.77 297.4L206.3 299.52L200.75 300.18L199.58 300.32L199.18 300.36L198.67 300.39L194.78 300.62L186.24 298.46L179.19 297.61L179.14 297.06L179 295.09L178.87 293.32L177.12 293.12L169.87 292.72L168.64 293.1L168.11 293.27L166.51 293.76L163.4 295.84L155.24 299.8L150.49 302.19L146.95 303.96L146.95 305L147.34 306.89L147 307.03L145.41 307.73L144.73 308.02L144.24 308.24L142.56 308.95L140.75 308.95L134.72 311.87L133.17 309.07L132.7 309.21L132.04 309.4L131.36 309.59L125.34 312.12L122.98 312.12L121.78 312.68L119.32 314.2L112.84 317.44L108.76 319.13L105.11 320.26L102.48 321.08L94.52 322.31L86.95 324.45L85 325.44L83.19 326.93L82.02 328.23L80.78 329.1L79.43 330.05L78.5 330.77L77.75 331.35L77.29 332.65L77.81 335.77L76.58 337.27L70.35 342.66L69.07 343.77L64.61 346.58L63.69 347.16L60.32 350.02L53.98 356.07L49.88 360.61L48.41 362.24L46.14 365.36L46.46 366.41L48.34 368.03L50.67 369.55L53.51 373.72L55.77 376.19L58.23 379.25L59.54 381.9L59.85 382.5L59.84 384.37L59.84 386.6L60.49 391.42L61.01 393.95L61 395.64L61.57 396.74L62.42 398.38L64.36 402.15L65.66 405.51L66.63 406.97L66.37 407.78L65.61 408.35L65.11 408.73L63.32 410.49L62.1 412.97L61.56 414.16L59.63 414.9L58.18 415.45L59.87 420.55L56.69 421.77L58.45 425.44L56.26 426.19L51.55 427.81L51.02 428.2L50.54 428.56L50.54 429.85L51.89 434.65L52.56 436.84L55.59 445.4L55.2 448.7L54.34 450.72L53.85 451.89L51.87 454.33L51.48 454.81L49.04 457.8L46 461.33L49.98 467.99L55.85 479.4L60.11 485.89L60.38 486.71L61.18 486.41L65.03 484.97L73.48 480.83L80.79 477.82L87.22 475.93L92.56 474.17L94.18 473.62L97.08 479.13L102.69 475.94L103.01 477.66L103.12 478.23L103.2 478.68L103.82 481.95L106.67 488.85L109.95 498.02L110.82 499.9L111.55 501.47L111.71 501.82L112.32 503.14L116.37 508.58L117.1 509.3L119.41 511.57L120.08 513.54L120.85 515.11L121.47 516.37L121.75 516.94L123.83 521.16L129.83 532.24L137.53 541.76L143.61 550.47L147.25 556.18L152.52 561.58L159.47 567.56L162.65 568.24L169.75 567.91L173.87 573.55L174.15 573.25L175.49 571.79L181.9 578.11L185.22 582.63L190.61 589.98L199.52 603.65L205.4 598.83L205.69 599.16L209.11 603.12L208.51 617.23L208 618.62L207.84 619.04L207.32 620.4L207.01 621.22L206.47 624.62L207.81 636.38L208.35 641.13L209.46 646.44L209.65 647.38L209.77 647.93L208.6 648.95L207.27 649.82L205.3 651.11L202.18 653.17L194.06 659.28L202.7 672.87L206.71 678.12L207.56 679.23L210.8 683.46L210.01 684.02L209.35 684.48L206.94 686.17L206.51 686.31L205.19 686.71L200 688.28L196.46 689.36L200.03 705.94L203.19 715.93L202.37 725.57L211.65 726.24L224.23 728.28L234.5 731.55L240.72 733.05L249.77 733.34L250.41 733.35L252.04 733.37L254.16 733.4L259.51 733.48L260.59 735.41L262.88 739.46L259.76 745.58L259.47 748.88L259.34 750.42L259.22 751.83L261.09 773.16L254.84 775.74L254.3 775.96L252.74 776.61L251.89 776.96L253.78 780.62L254.77 782.55L255.22 783.42L255.67 784.3L255.91 784.58L256.34 785.09L256.88 785.73L259.6 788.96L260 788.83L261.07 788.47L261.41 788.35L262.3 788.89L262.78 789.71L262.26 790.13L261.88 790.44L262.57 797.66L262.01 810.22L260.27 813.09L260.08 813.4L259.65 814.1L259.37 814.57L260.53 815.97L260.76 824.21L260.82 826.5L260.84 827.27L260.86 827.86L262.89 828.15L265.02 828.45L266.53 828.07L267.18 827.88L268.58 827.46L274.51 825.7L277.77 824.59L281.17 823.43L281.97 823.16L285.26 822.04L297.55 816.12L301.27 813.58L301.89 813.15L303.08 812.34L306.48 810.02L310.27 808.48L311.35 819.73L311.73 823.69L311.8 824.44L311.98 826.31L313.35 840.59L314.22 847.79L312.74 849.28L312.32 849.7L313.03 851.76L314.89 856.59L315.43 860.47L313.67 863.45L313.55 864.55L313.49 865.13L314 866.71L315.53 866.99L316.17 867.1L316.58 867.14L317.42 867.18L317.79 867.19L319.64 865.94L320.09 865.46L320.35 865.17L320.94 864.47L323.11 863.4L323.75 863.08L324.52 862.7L327.71 861.12L334.78 871.56L338.6 875.95L338.84 876.23L339.18 877.21L340.94 882.34L341.11 882.8L341.23 883.15L343.46 889.05L344.79 888.33L345.15 888.13L346.63 887.34L348.05 886.66L350.65 886.29L353.11 886.19L354.54 885.47L354.92 885.28L355.62 884.93L356.74 884.61L357.5 884.39L363.01 882.37L366.15 880.79L368.53 879.59L368.96 879.34L369.29 879.15L369.42 878.67L369.43 878.1L369.44 877.16L380.72 876.3L381.37 876.14L383.28 874.92L384.29 874.26L384.65 874.03L388.16 875.6L388.67 875.86L390.83 876.71L392.99 876.83L394.84 876.29L397.84 875.11L398.73 874.73L400.78 873.85L402.16 873.49L403.38 873.35L404.26 873.73L405.53 875.03L406.69 876.39L406.94 876.65L407.48 876.57L410.4 874.31L411.56 873.41L414.61 876.62L415.71 875.82L416.36 875.35L418.01 877.78L420.22 880.34L422.18 883.47L423.82 886.76L425.2 889.54L425.8 890.55L428.54 895.18L431.71 900.54L434.79 904.47L435.05 905.06L444.21 913.91L448.53 917.92L451.33 920.85L452.04 921.59L453.4 923.22L454.35 926.11L454.4 927.43L455.59 929.75L455.84 931.17L455.71 931.92L455.37 933.94L455.63 935.18L460.22 938.52L460.96 940.4L461.66 942.46L461.88 942.95L462.33 943.92L463.63 945.15L464.67 946.25L465.12 947.15L465.08 947.88L464.36 948.5L463.91 948.89L463.25 949.26L463.9 950.5L465.18 952.83L466.26 953.9L467.35 954.6L468.24 955.17L469.23 956L470.26 956.88L471.46 958.77L473.32 962.62L476.14 968.43L479.1 974.4L479.96 979.53L481.32 980.2L483.91 981.12L487.63 982.27L489.9 982.97L491.4 987.28L493.11 987.87L493.49 988L495.64 992.54L497.21 992.76L498.36 992.77L501.2 991.42L500.53 990.16L507.03 986.9L509.14 986.29L511.01 984.44L511.67 983.78L513.1 981.42L513.06 979.9L513.47 979.72L514.27 979.65L514.64 979.3L514.48 978.5L512.99 977.07L512.73 976.63L512.94 976.08L513.56 975.66L514.78 975.24L515.88 974L520.15 970.88L518.69 969.64L519.97 968.08L520.22 967.78L520.54 967.4L521.55 966.21L524.7 963.7L526.43 965.14L527.46 966.74L527.75 967.71L528.54 967.5L530.19 966.6L535.53 964.39L536.77 964.05L538.89 963.47L545.76 964.17L546.21 964.21L548.16 962.92L549.23 962.24L551.4 960.87L554.5 960.09L554.98 960.01L558.37 959.8L561.3 959.6L567.2 957.92L569.23 957.23L572.18 956.23L575.16 954.74L576.11 954.26L578.31 954.02L579.72 954.24L580.5 955.3L582.14 958.09L584.38 960.43L585.35 962.39L585.57 962.82L586.2 965.25L587.49 970.13L588.24 973.08L592.29 978.01L596.08 982.15L600.19 987.8L603.07 991.86L605.18 996.57L605.85 998.56L610.09 1003.36L612.87 1005.98L615.65 1008.6L619.81 1012.22L620.32 1012.6L621.05 1013.15L622.25 1013.76L622.66 1013.53L623.15 1013.24L625.74 1010.9L628.77 1008.04L631.94 1005.07L636.54 1000.8L643.4 994.44L644.12 993.9L644.54 993.59L645.53 995.16L647.52 998.32L648.57 998.28L648.24 1001.43L652.11 1007.61L652.27 1008.34L651.09 1011.06L651.34 1011.49L652.13 1011.34L655.76 1016.1L655.34 1016.92L655.73 1018.1L656.44 1019.41L657.9 1020.74L658.5 1020.62L658.87 1020.45L659.69 1019.81L660.28 1019.81L662.19 1021.72L662.79 1021.24L663.62 1020.58L665.02 1021.49L666.55 1021.66L666.96 1021.71L667.8 1021.47L670.05 1020.85L678.19 1015.5L679.42 1015.23L679.77 1015.16L681.09 1015.21L685.5 1016.64L685.93 1016.78L687.76 1017.23L688.37 1017.12L690.3 1015.54L691.07 1014.83L692.49 1014.32L694.39 1014.42L694.79 1014.44L696.89 1014.73L697.81 1013.94L699.9 1010.08L701.38 1009.77L702.01 1009.15L702.02 1007.93L705.91 1004.96L706.93 1004.19L709.56 1000.69L713.36 996.96L715.21 994.75L717.16 993.55L722.85 990.29L724.88 993.58L726.57 992.65L728.29 991.7L731.23 990.56L735.94 988.74L745.67 984.98L746.34 980.72L747.41 973.98L748.2 973.39L749.45 973.03L752.82 972.03L753.55 971.69L754.14 971.42L757.63 969.08L765.46 963.83L765.81 963.61L766.28 963.31L773.59 959.27L773.59 956.98L773.6 953.07L774.37 948.56L774.26 945.03L774.08 939.68L774.35 938.89L780.3 933.31L784.2 930.79L786.33 929.07L793.59 923.24L800.6 917.62L814.74 906.3L821.99 915.63L825.94 914.98L826.4 914.93L826.83 914.79L828.94 912.11L826.67 907.62L828.34 906.7L829.56 908.68L832.48 907.16L831.4 905.08L841.67 899.4L843.48 898.28L839.54 892.34L834.48 886.3L831.72 883.3L829.28 881.15L826.43 879.14L824.59 876.73L820.64 870.56L816.67 865.78L807.77 873.04L804.55 866.61L801.13 861.56L804.54 859.11L808.48 857.86L811.9 854.72L815.44 851.52L816.2 850.23L816.1 848.78L815.11 845.77L813.86 840.79L814.06 837.56L815.14 834.32L816.49 833.49L821.02 831.54L823.98 829.53L829.85 826.23L832.97 823.49L827.06 818.83L822.75 814.68L826.76 810.91L831.26 804.8L838.54 794.5L845.87 785.75L848.82 782.84L852.24 777.59L853.45 775.58L854.5 772.81L856.31 770.79L859.85 768.64L862.35 766.6L864.81 764.15L865.9 761.51L866.45 758.57L866.29 757.35L865.5 755.7L865.4 754.61L865.73 752.86L865.92 750.91L866.55 749.33L867.7 748.17L871.67 745.53L873.94 743.65L876.14 742.13L877.75 740.58L879.45 738.63L881.23 736.55L883.2 734.7L884.54 733.77L886.35 732.49L888.29 731.76L890.85 730.93L892.66 730.4L893.84 729.94L896.4 729.48L898.17 728.85L902.97 725.45L905.2 723.8L907.44 722.74L909.54 721.39L911.44 720.43L913.02 718.94L914.2 718.38L916.31 718.31L918.11 717.85L919.23 717.12L920.54 715.51L921.49 713.49L922.22 710.22L922.87 708.21L924.15 704.51L925.86 702.13L927.5 700.65L928.98 699.06L931.21 696.88L935.09 692.66L937.85 689.29L938.64 688.43L940.05 685.62L940.47 683.38L940.67 679.91L941.36 677.63L942.48 675.58L944.64 673.31L946.35 671.49L947.11 669.67L947.07 668.15L947 665.45L946.94 663.53L945.13 660.33L941.75 656.53L938.07 652.77L937.15 651.95L942.11 649.87L945.39 648.61L946.35 648.18L951.01 644.05L954 641.77L952.52 638.64L947.17 640.52L941.58 642.9L936.92 644.55L933.07 646.2L927.46 649.01L926.17 649.67L923.22 646.34L920.92 642.71L918.94 639.37L917.04 634.88L922.42 629.43L923.08 629.37L923.84 629.13L924 628.64L923.87 627.09L923.77 626.63L924.72 625.9L926.76 625.04L926.56 623.36L925.02 619.89L927.02 617.74L929.94 614.77L932.7 612.39L936.58 610.41L937.76 609.72L943.05 608.06L949.1 605.82L951.76 604.69L953.73 604.3L952.28 601.49L949.72 594.56L945.81 586.34L942.42 577.49L937.69 566.29L936.07 561.74L934.79 558.27L937.22 558.37L938.8 558.07L941.2 556.68L944.75 554.77L946.65 553.51L941.75 545.59L938.73 545.49L935.12 544.44L932.82 543.84L930.42 543.45L929.14 543.48L915.27 547.71L912.12 543.38L908.7 538.5L906.89 535.96L900.94 533.84L896.41 532.03L893.22 530.45L889.41 529.69L888.78 528.86L888.03 528.4L887.44 528.66L886.91 529.52L885.46 528.93L883.43 528.4L881.23 528.7L877.22 530.72L875.47 527.88L874.13 525L871.3 521.07L869.85 519.65L869.98 518.5L866.4 513.38L860.09 506.05L859.56 504.4L855.29 497.77L852.66 493.77L851.51 491.79L850.68 491.33L843.95 492.62L841.05 486.28L848.97 482.35L852.78 479.4L860.7 473.92L869.05 467.54L873.78 464.07L874.8 463.21L873.78 461.1L872.86 461.4L870.03 464.07L864.41 468.34L862.74 469.26L861.49 466.82L859.64 460.58L859.02 457.41L857.77 454.24L855.99 450.87L855.43 447.63L855.07 443.97L854.15 440.67L853.42 436.5L853.19 434.72L853.62 432.67L855.43 429.7L855.85 426.17L855.69 422.73L855.78 410.74L859.01 406.42L871.07 390.27L881.21 376.7L882.52 374.26L881.2 376.66L880.73 376.88L879.53 376.05L875.46 372.17L867.53 364.71L854.13 352.69L849.52 348.66L842.74 342.74L839.66 340.04L830.1 330.61L829.28 329.83L828.03 328.65L817.95 319.14L809.63 310.85L796.58 319.31L795.6 327L787.66 328.12L784.98 328.25L783.82 328.31L777.34 328.63L770.17 328.74L768.98 328.76L768.54 330.41L768.22 332.55L767.45 336.14L766.84 338.08L765.42 341.67L764.16 344.72L762.61 348.27L761.68 349.88L760.53 351.86L760.2 352.44L759.07 353.45L758.03 355.12L757.66 356.74L757.09 359.2L756.79 360.79L756.64 361.57L756.39 362.89L754.85 370.74L754.87 371.6L754.93 375.76L751.59 379.85L750.7 380.57L749.47 381.57L746.61 383.88L743.65 385.32L742.62 385.82L741.89 386.17L740.98 386.69L740.58 386.91L738.2 387.8L737.46 388.07L736.52 386.6L736.23 386.2L729.05 376.64L708.65 347.54L708.32 347.04L692.14 322.6L688.26 317.74L685.25 313.97L681.87 309.74L679.4 305.77L675.05 298.8L674.55 297.99L675.27 296.79L676.14 295.35L676.65 294.51L676.92 294.05L677.35 293.53L679.02 291.47L681.14 290.31L682.02 289.82L682.5 289.56L686.08 287.06L686.57 286.64L687.46 285.86L688.63 284.84L689.95 284.5L690.57 284.84L690.93 285.04L692.49 284.29L692.92 284.06L693.31 283.84L694.67 283.1L697.32 281.54L701.91 279.45L710.11 275.22L713.39 273.64L714.7 273.66L715.52 273.93L716.5 274.44L717.31 274.33L717.71 274.27L719.07 273.71L720.49 273.26L721.71 273.41L722.14 273.21L722.63 272.99L723.5 271.91L724.6 270.54L725.28 269.93L725.76 269.49L727.18 269.08L729.58 268.78L732.7 266.73L736.18 264.49L737.74 263.17L738.61 262.44L739.06 262.05L738.95 260.73L740.11 259.88L742.18 259.02L747.54 256.77L748.05 256.64L748.68 256.49L749.54 256.35L750.54 256.21L753.02 255.11L755.23 254.41L755.93 253.63L757.54 250.87L761.32 245.37L762.88 242.52L763.27 241.82L763.41 241.15L763.55 240.47L763.95 238.84L764.05 238.42L765.22 235.14L766 232.67L766.45 230.9L766.59 230.41L767 228.95L766.82 227.69L766.73 227.1L766.11 226.53L764.8 225.92L762.67 225.73L760.1 225.73L758.36 225.84L755.69 226.28L754.54 226.63L754.3 226.89L752.72 227.69L752.06 227.39L752.11 227L752.89 226.52L753.91 225.91L754.25 225.7L755.05 224.98L756.21 224.23L756.61 223.77L757.1 223.2L757.62 221.87L757.77 220.02L757.14 218.14L756.6 216.41L756.6 215.99L756.61 214.96L757.27 212.52L758.35 209.66L758.81 207.85L759.02 207.04L759.32 205.9L759.39 205.13L758.73 204.36L758.37 203.98L758.06 203.64L757.31 203.27L756.92 203.21L753.11 202.59L747.53 201.93L738.43 201.26L735.76 198.62L734.15 195.76L732.5 193.7L730.2 191.19L728.63 190.08L727.97 189.69L727.32 189.31L726.84 189.12L726.49 188.99L725.82 188.73L721.7 192.28L720.28 193.89L718.5 195.91L715.3 194.25L711.67 192.39L709.25 191.47L706.93 192.9L703.46 194.54L702.76 195.15L700.89 198.11L700.6 198.31L699.06 199.38L698.06 200.56L697.16 201.84L695.76 203.37L695.29 203.89L694.86 204.35L694.37 204.88L693.85 205.44L692.54 206.6L691.61 207.45L689.62 208.82L688.15 207.31L687.49 207.72L687 208.06L686.58 208.47L685.89 209.14L685.62 208.53L685.55 208.06L685.49 207.61L683.8 208.17L684.19 209.86L684.6 210.87L684.23 210.93L683.67 211.26L681.43 212.28L680.86 212.55L680.06 212.98L679.01 213.55L677.25 214.95L676.96 214.55L676.44 213.98L675.88 213.68L674.9 213.5L672.93 213.58L672.32 214.04L671.82 214.43L671.37 214.78L670.64 215.42L669.64 216.29L668.61 217L666.82 218.2L665.78 218.51L663.58 219.16L663.1 219.31L661.15 220.3L659.8 220.99L658.6 221.6L655.94 223.74L654.82 224.64L654.23 225.13L653.5 225.74L650.6 228.18L648.36 230.93L647.28 233.72L646.5 235.93L645.93 236.78L643.82 237.55L643.1 237.7L642.16 237.89L641.24 238.31L639.62 239.85L637.49 241.93L636.74 242.31L636.09 242.63L635.67 242.84L633.89 243.25L632.73 243.54L632.26 243.66L631.82 243.77L630.16 244.19L629.16 244.46L628.58 244.67L627.89 244.96L627.52 245.28L627.23 245.73L627.18 246.11L627.17 246.8L627.29 247.14L627.46 247.6L627.71 248.03L627.94 248.43L628.65 249.56L629.36 250.92L630.08 252.46L630.27 252.87L630.28 253.6L617.15 254.88L616.77 255.05L616.08 255.36L615.3 255.71L602.76 262.99L593.81 268.19L590.75 269.96L589.42 270.87L589.3 272.92L589.09 273.87L588.38 281.56L587.39 281.62L587.22 275.39L587.17 273.72L587.13 272.47L582.37 261.21L580.8 257.16L569.16 257.69L559.07 257.67L547.76 257.9L539.69 258.06L536.9 258.11L536.32 258.02L533.69 257.61L521.82 228.8L521.2 227.1L518.47 219.63L516.96 215.5L512.59 204.81L513.59 204.36L518.53 202.09L518.99 201.92L528.43 199.32L535.33 197.38L539.07 196.25L540.71 195.76L542.38 195.34L546.28 194.37L555.73 193.25L556.68 193.24L561.12 193.18L560.73 191.75L560.27 190.02L560.17 189.67L560.02 189.25L559.53 187.9L557.56 182.51L553.92 173.08L548.97 160.24L544.29 148.98L541.34 141.86L540.43 139.66L540.23 139.19L539.9 138.41L539.53 137.53L537.02 129.91L534.41 122.53L534 122.54L533.55 122.57L533.04 122.59L531.87 122.65L529.37 122.91L527.23 123.29L525.26 123L523.98 122.29L523.66 122.12L523.33 121.89L522.22 121.11L519.35 120.69L516.36 119.33L514.32 118.59L513.25 118.21L511.91 117.72L511.18 117.5L508.33 116.63L504.1 115.62L502.59 115.67L498.97 115.44L498.63 115.38L497.17 115.04L494.91 114.62L493.4 114.27L492.91 114L492.29 113.54L492.07 113.11L491.67 112.75L490.86 112.46L490.43 112.59L489.69 112.61L488.95 112.7L488.16 112.27L487.12 111.23L485.49 110.15L481.76 105.91L477.93 101.48L474.31 95.98L472.31 92.23L472.12 91.91L468.66 86.11L465.18 80.42Z" vector-effect="non-scaling-stroke"/>
    </g>
  </g>
  <g id="state-outline" data-state="Chandigarh" data-region-id="IN-REGION-04">
    <path d="M534.41 122.51L463.46 78.28L338.86 158.68L342.15 188.18L288.28 218.33L290.13 265.59L86.95 324.45L46.14 365.36L55.85 479.4L102.69 475.94L147.25 556.18L209.11 603.12L202.37 725.57L259.51 733.48L260.86 827.86L310.27 808.48L314 866.71L343.46 889.05L416.36 875.35L495.64 992.54L579.72 954.24L619.81 1012.22L644.54 993.59L662.19 1021.72L826.83 914.79L843.48 898.28L801.13 861.56L822.75 814.68L920.54 715.51L954 641.77L917.04 634.88L953.73 604.3L941.75 545.59L877.22 530.72L841.05 486.28L874.8 463.21L853.19 434.72L882.5 374.23L809.63 310.85L768.95 328.76L737.46 388.07L674.54 297.99L763.27 241.82L759.39 205.08L725.82 188.73L588.38 281.56L580.8 257.16L533.69 257.61L512.59 204.81L561.12 193.18L534.41 122.51Z" vector-effect="non-scaling-stroke"/>
  </g>
</svg>
