<?xml version="1.0" encoding="UTF-8"?>
<svg xmlns="http://www.w3.org/2000/svg" viewBox="0 0 1000 1100" role="img" aria-labelledby="map-title map-description">
  <title id="map-title">Dadra and Nagar Haveli and Daman and Diu district map</title>
  <desc id="map-description">Interactive vector map of Dadra and Nagar Haveli and Daman and Diu containing 3 district boundaries.</desc>
  <g id="district-layer" data-status="ready" data-district-count="3" data-layer-id="IN-REGION-26-25-DISTRICTS" data-division-layer-id="IN-REGION-26-25-DIVISIONS" data-division-count="0" data-division-status="not-applicable">
    <g id="district-dadra-nagar-haveli" class="district-region" data-district="Dadra &amp; Nagar Haveli" data-slug="dadra-nagar-haveli" data-code="496" data-lgd-code="465" data-boundary-year="2011_c" data-geometry-type="MultiPolygon" data-feature-id="IN-REGION-26-25-DISTRICT-496" tabindex="0" role="link" aria-label="Select Dadra &amp; Nagar Haveli district">
      <path d="M765.65 815.89L765.31 815.65L765.08 815.3L764.83 815.05L764.44 815.63L764.27 816.06L764.18 816.5L764.27 816.86L764.54 817.27L764.92 817.35L765.15 817.71L765.4 818.05L765.36 818.49L765.07 818.72L765.39 818.98L765.73 819.19L766.1 819.08L765.87 818.53L766.01 817.91L766.26 817.54L766.57 817.12L766.86 816.9L767.24 816.57L766.98 816.24L766.54 815.99L766.01 815.93L765.65 815.89ZM860.26 459.65L859.78 459.54L859.35 459.48L858.81 459.44L858.16 459.39L857.8 459.4L857.3 459.39L856.78 459.37L856.39 459.33L855.65 459.31L855.12 459.31L854.43 459.27L854.35 460.11L854.32 460.55L854.25 460.9L854.04 461.32L853.81 461.69L853.5 462.07L853.31 462.41L853 462.89L852.83 463.21L852.64 463.51L852.33 464.15L852.18 464.72L851.93 465.25L851.67 465.61L851.21 465.99L850.99 466.29L850.97 466.75L851.14 467.09L851.41 467.53L851.73 467.91L852.14 468.3L852.55 468.57L852.94 468.9L853.26 469.2L853.57 469.39L854 469.58L854.4 469.89L854.73 470.16L855.01 470.43L855.38 470.84L855.76 471.34L855.97 471.67L856.16 472.07L856.37 472.5L856.68 472.96L856.97 473.32L857.28 473.55L857.75 473.77L858.13 473.8L858.38 473.51L858.47 473.1L858.54 472.57L858.65 472.15L858.78 471.79L858.87 471.33L858.92 470.78L858.93 470.42L858.95 470.03L858.98 469.67L859.02 469.16L859.15 468.54L859.28 468.19L859.58 467.94L859.91 467.72L860.18 467.43L860.48 467L860.87 467.01L861.25 466.56L861.56 466.02L861.87 465.78L862.22 465.48L862.51 465.21L862.71 464.9L862.76 464.55L862.72 464.1L862.63 463.52L862.66 463.1L862.41 462.73L862.34 462.32L862.3 461.88L862.09 461.47L861.84 461.2L861.45 460.84L861.36 460.36L861.1 459.73L860.91 459.41L860.54 459.65L860.26 459.65ZM906.93 447.74L906.55 447.74L906.22 447.98L905.56 448.11L905.07 448.01L904.49 448.25L904.16 448.48L904.03 448.91L904.14 449.72L904.24 450.16L904.17 450.97L904.09 451.43L903.84 451.86L903.79 452.27L903.96 452.69L904.25 453.24L904.5 454.09L904.18 455.04L903.86 455.39L903.63 455.82L903.5 456.3L903.18 456.92L902.93 457.47L902.82 457.99L902.45 459.13L902.23 459.73L902.04 460.07L901.66 460.5L901.18 460.96L900.47 461.54L899.85 462.01L899.48 462.64L899.37 463.12L899.01 463.07L898.62 463L898.06 462.77L897.62 462.57L897.21 462.48L896.82 462.38L896.52 462.03L896.24 461.31L895.79 460.81L895.36 460.45L894.47 460.56L893.74 460.78L893.12 461L892.03 461.5L891.57 461.76L891.09 462.06L890.3 462.37L889.51 462.59L888.87 462.7L887.99 462.84L887.32 462.65L886.28 462.28L885.9 462.18L885.65 462.43L885.31 462.87L884.84 463.66L884.52 464.22L884.27 464.8L884.12 465.46L884.04 466.15L884 466.84L884.02 467.46L883.99 468.38L883.8 469.09L883.61 469.64L883.49 470.15L883.41 470.92L883.37 471.35L883.26 472.82L883.19 473.7L883.16 474.25L883.18 475.37L883.15 475.78L882.73 476.18L882.35 476.29L881.87 476.43L880.94 476.59L880.05 476.63L879.49 476.61L878.92 476.51L878.44 476.31L877.97 475.9L877.35 475.58L876.95 475.48L876.1 475.39L875.54 475.27L875.53 474.58L875.82 473.25L875.84 472.49L875.91 471.51L876.07 470.38L876.07 470.02L876.05 469.56L876 469.07L875.83 468.65L875.29 468.56L874.47 468.82L874.07 468.83L874.19 468.34L874.12 468L873.74 467.91L873.35 467.79L872.77 467.59L872.38 467.5L871.93 467.73L872.12 468.26L872.42 468.44L872.99 469.02L873.17 469.39L873.18 469.85L873.19 470.28L873.08 470.89L873.44 472.19L873.78 472.63L873.53 473.43L873.5 474.23L873.57 475.23L873.55 475.61L873.21 476.29L872.91 476.52L872.45 476.74L871.6 477.2L871.17 476.97L870.44 476.51L870.1 476.23L869.72 476.06L869.27 476.27L868.87 476.06L868.04 476.01L867.67 475.91L867.26 475.77L866.82 475.74L865.77 476L865.04 476.18L864.47 476.54L864.13 476.7L863.58 477.4L863.12 477.26L862.74 477.11L862.2 476.86L862.02 477.18L862 477.62L861.99 478.19L861.92 478.78L861.88 479.16L861.85 479.57L861.79 480.06L861.79 480.51L861.8 480.92L861.84 481.37L861.97 481.77L862.16 482.09L862.06 482.46L861.7 482.63L861.46 483.19L861.35 483.61L860.88 483.75L860.51 483.85L860.13 483.97L859.67 484.11L859.25 484.22L859.08 484.67L858.57 484.92L858.16 484.89L857.6 484.85L857.2 484.82L856.82 484.78L856.46 484.75L855.9 484.65L855.48 484.59L854.85 484.51L854.76 484.16L854.63 483.71L854.45 483.11L854.22 482.81L853.87 482.71L853.79 482.35L853.55 482.03L853.36 481.72L852.99 481.92L852.63 481.39L852.18 480.91L851.98 480.55L851.97 479.88L851.85 479.42L851.68 479.06L851.33 478.96L850.95 478.88L850.61 478.7L850.23 478.57L849.98 478.31L849.6 478.18L849.54 477.83L849.31 477.56L848.97 477.67L848.61 477.66L848.51 477.31L848.13 477.33L847.8 477.15L847.73 476.76L847.43 476.57L847.12 476.3L846.93 475.97L846.67 475.7L846.52 475.38L846.16 475.36L845.89 475.62L845.75 475.25L845.39 475.2L845.13 474.94L844.76 474.8L844.4 474.8L843.89 475.17L843.52 475.2L843.24 474.92L843.18 474.56L842.71 474.67L842.67 475.02L842.55 475.43L842.45 475.77L842.29 476.32L842.14 476.71L841.99 477.06L841.75 477.43L841.48 477.75L841.05 478.27L840.69 478.22L840.41 478.56L840.01 478.84L839.63 479.01L839.25 479.23L838.89 479.49L838.44 479.47L838.28 479.8L838.32 480.19L837.97 480.31L837.61 480.35L837.1 480.35L837.14 480.8L837.25 481.27L837.31 481.7L837.04 482.11L836.98 482.47L836.61 482.49L836.34 482.77L836.06 482.56L835.72 482.67L835.25 482.75L835.15 483.16L835.12 483.67L835.12 484.28L835.12 485.44L835.68 485.97L835.86 486.4L836.21 486.96L836.51 487.48L836.61 487.88L837.12 488.13L837.46 488.51L837.5 488.92L837.55 489.34L837.63 489.7L837.83 490.38L838.55 490.6L839.1 490.9L839.52 490.89L840.09 491.6L840.38 492.13L840.51 492.63L840.78 492.95L841.13 493.73L841.65 494.2L841.61 494.65L841.82 495.24L842.33 495.64L842.47 495.97L843.47 496.24L844.24 496.06L844.91 496.06L846.05 496.39L846.96 496.86L847.35 497.1L848.39 497.52L849.77 497.89L850.41 498.24L851.44 498.69L852.15 499.41L853.02 499.88L853.32 500.25L853.59 501.07L853.93 501.79L854.58 502.52L855.31 503.18L855.96 503.69L856.14 504.08L856.06 504.78L856.2 505.74L856.05 506.21L855.77 507.36L855.77 508.53L855.62 509.17L855.23 509.99L855.01 510.4L854.42 510.32L854.23 510.7L854.06 511.77L853.87 513.16L853.75 513.95L853.94 515.44L854.12 516.1L854.34 516.95L854.5 517.44L854.31 518.47L854.27 518.83L854.3 519.45L854.32 519.94L854.4 520.28L854.81 521.19L855.74 521.13L856.58 520.87L858.09 521.41L858.7 521.62L859.34 521.54L860.17 521.82L860.59 522.43L860.22 522.92L859.47 523.86L859.18 524.4L858.98 525.01L859.03 525.59L859.05 526.23L859.06 526.65L859.08 527.34L859.11 528.62L859.12 529.01L859.25 529.35L859.41 530L859.31 530.4L859.26 530.82L859.16 531.28L858.97 531.63L858.79 531.93L858.6 532.26L858.38 532.64L858.18 533.04L858 533.37L857.79 533.71L857.18 534.52L856.95 534.97L856.72 535.31L856.43 535.68L856.16 536.02L855.94 536.37L855.83 536.74L855.61 537.08L855.4 537.42L855.36 537.81L855.03 538.22L854.91 538.6L854.75 538.97L854.63 539.33L854.47 539.66L854.28 540L854.19 540.44L854.12 540.82L853.95 541.17L854.1 541.61L854.35 542.33L854.62 542.73L854.97 543.25L855.17 543.74L855.37 544.23L855.58 544.59L855.92 544.79L856.33 544.92L857.06 545.18L857.26 545.71L857.55 546.95L857.62 547.53L857.69 547.98L857.99 548.46L858.12 548.85L858.4 549.16L859.13 549.37L859.5 549.53L860.06 549.83L860.41 549.98L860.78 549.62L860.92 549.21L861.25 548.84L861.59 548.72L862.18 548.7L862.57 548.62L863.51 548.46L864.69 548.36L865.14 548.3L865.81 548.38L866.37 547.92L866.62 546.77L866.83 545.74L866.94 545.11L867.15 544.03L867.37 542.89L867.65 541.78L867.56 541.07L867.35 540.12L867.31 539.68L867.55 539.14L868.11 538.61L868.27 538.2L868.46 537.77L869.12 537.72L869.9 538.14L870.39 538.48L870.73 538.71L870.85 539.06L870.78 539.43L871.06 540.02L871.43 540.41L872.06 540.76L872.39 540.91L872.74 541.12L873.11 540.98L873.48 540.87L873.86 541.06L873.95 541.43L874.03 541.88L874.04 542.32L874.05 542.75L873.88 543.22L873.15 543.72L872.53 544.12L871.77 544.46L871.3 544.81L870.61 544.91L870.14 545.02L869.6 545.63L869.25 545.94L869 546.66L868.89 547.01L868.86 547.42L869.01 547.8L869.4 548.41L869.5 548.8L869.58 549.84L869.79 550.39L870.43 550.59L871.33 550.89L872.26 551.6L872.54 551.83L873.04 552.48L873.27 552.77L873.71 553.36L873.87 553.71L874.39 554.82L874.58 555.86L874.76 556.78L876.11 557.74L876.54 558.09L877.04 558.49L877.83 559.32L878.02 560.02L878.32 560.86L878.34 561.43L878.93 562.31L879.27 562.53L879.83 562.84L880.4 562.85L880.63 563.13L880.92 563.49L881.45 564.19L882.35 565.36L883.39 567.05L884.2 568.33L884.64 568.8L885.89 569.16L886.73 569.57L887.07 569.33L887.6 569.06L887.97 569.28L888.25 569.61L888.85 569.86L889.3 570.18L889.68 569.92L889.66 569.4L889.56 568.51L889.61 567.21L889.81 565.2L889.97 564.5L889.97 564.05L889.77 563.68L889.77 563.28L889.82 562.76L889.81 562.25L889.74 561.81L889.91 560.66L889.87 560.27L889.64 559.57L889.81 558.62L890.22 557.3L890.8 555.93L891.58 555.66L892.76 555.71L894.21 555.83L894.87 556.04L895.64 556.69L897.23 557L898.3 557.07L898.91 557.2L899.75 557.5L900.47 557.96L901.18 558.54L901.81 558.88L902.46 559.07L903.49 559.15L904.47 559.2L904.97 559.28L905.48 559.5L906.5 559.67L907.5 559.6L907.87 559.53L908.64 559.47L909.48 559.53L909.93 559.96L910.36 560.87L910.71 561.6L910.7 562.26L910.35 562.98L910.5 563.73L910.78 564.33L911.07 564.7L911.5 565.17L912.23 565.77L912.71 565.87L913.23 565.57L913.49 565.25L913.94 564.93L914.34 565.1L915.02 565.43L915.49 565.5L915.8 565.01L915.73 564.43L915.65 564L916.03 563.81L916.9 564.09L917.38 564.28L917.83 564.16L917.84 563.41L918.01 562.81L918.22 562.4L919.02 562.51L919.49 562.81L919.87 562.94L920.44 562.74L920.65 562.34L921.02 561.74L921.13 561.3L921.52 560.97L921.95 560.9L922.45 561L922.68 561.27L922.86 561.79L922.75 562.51L922.5 562.93L922.36 563.25L922.44 563.69L922.71 564.02L923.21 564.27L923.95 563.78L924.44 563.68L924.68 564.02L924.77 564.37L924.75 564.78L924.94 565.2L925.26 565.51L925.76 565.93L926.16 566.2L926.98 565.87L927.28 565.63L927.19 564.74L927.27 564.21L928.04 564.62L928.68 564.87L929.2 565.25L929.27 565.74L928.93 566.15L928.59 566.58L928.73 567.12L929.14 567.64L929.43 567.96L929.35 568.35L929.51 568.8L929.73 569.08L929.76 569.45L930.11 569.46L930.42 569.7L930.17 570.1L930.22 570.57L930.54 570.71L931.08 570.41L931.51 570.36L931.82 570.58L932.23 570.92L932.54 571.23L932.88 571.52L933.05 572.2L933.17 572.94L933.3 573.48L933.68 573.91L934.46 573.61L934.83 573.88L935.28 574.56L935.51 574.99L935.99 575.11L936.87 575.31L937.64 575.23L938.13 575.4L938.1 575.83L938.4 576.38L938.62 577.03L938.8 576.68L939.11 576.4L939.52 576.2L940.09 575.94L940.45 575.72L940.79 575.89L941.14 575.95L941.54 575.61L941.95 575.65L942.4 575.49L942.91 575.83L943.32 575.67L943.56 576.02L944 575.78L944.11 574.61L944 574.09L943.58 573.85L943.02 573.14L942.37 573.27L941.96 572.24L942.22 571.03L942.42 570.21L942.21 569.43L942.62 568.6L942.67 568.23L942.49 567.93L942.51 567.31L943.07 566.47L942.81 565.57L942.66 564.61L943.21 564.46L944.05 564.5L944.5 564.71L944.87 565.15L945.73 565.29L946.26 564.76L946.58 564.46L947.71 564.18L948.44 564.01L948.99 563.51L949.43 563.01L950.11 562.01L950.62 561.47L950.94 561.07L951.51 559.8L951.91 558.91L951.84 557.33L951.77 555.99L951.71 555.59L951.69 555.15L951.92 554.18L952.14 553.43L952.16 552.27L952.41 550.5L952.51 549.65L952.49 548.96L952.59 548.38L952.66 547.76L952.66 547.31L951.96 547.22L951.18 546.84L950.65 546.69L950.32 546.91L949.94 547.06L948.9 547.17L948.5 547.31L948.07 547.16L947.63 546.81L947.43 546.52L947.26 546.08L947.06 545.57L946.71 545.27L946.28 544.98L945.91 544.38L945.52 544.25L944.83 543.96L944.39 543.94L944.02 543.77L943.49 543.84L943.14 543.99L942.52 543.82L942.16 543.44L941.86 543.09L941.8 542.68L941.7 542.31L941.9 541.64L941.75 540.96L941.53 540.64L941.27 539.81L941.16 538.87L941.05 538.03L940.95 536.8L940.9 535.74L941.11 534.27L941.11 533.83L941.21 532.71L941.24 532.19L941.59 531.78L942.19 531.41L942.37 531.06L942.57 529.75L942.9 528.71L943.09 529.47L943.4 529.3L944.24 529.26L945.46 529.12L946.32 528.98L947.09 528.88L947.61 528.96L948.39 529.19L948.82 529.32L949.2 529.4L949.45 529.14L950.14 528.44L951.9 526.84L952.5 526.43L952.59 525.83L953.13 525.19L953.43 524.01L953.7 523.37L953.8 523.03L953.98 522.17L954 521.43L953.86 520.31L953.77 519.77L952.78 519.15L952.18 519.05L951.4 518.95L950.1 518.29L949.72 518.73L948.59 518.34L948.12 518.11L947.43 517.19L947.16 516.94L946.82 516.57L946.44 516.25L945.83 515.95L945.15 515.61L944.72 515.66L944.34 515.42L943.96 515.19L943.5 515.48L943.2 515.87L942.5 516.08L942.1 516.06L941.59 516.11L941.17 516.18L940.52 516.48L940.14 516.27L939.67 516.53L939.3 517.13L938.79 517.19L938.36 517L938.59 516.53L938.87 515.77L938.89 515.29L938.69 514.88L938.11 514.38L936.91 514.3L936.16 514.47L935.38 514L935.29 513.64L935.08 513.31L934.88 512.99L934.84 511.74L934.8 511.14L934.75 510.69L933.53 511.51L931.65 513.37L930.31 514.64L928.6 512.53L928.01 512.57L926.58 513.65L925.57 513.01L924.89 512.93L924.4 512.78L923.07 512.09L922.89 511.7L922.69 510.82L922.23 511.02L920.93 511.57L920.8 512.93L920.68 514.05L920.72 515.05L920.78 516.52L920.78 517.28L920.89 517.64L921.02 518.66L921.43 519.86L921.58 520.32L921.94 520.29L922.37 520.3L923.24 520.37L923.44 521.27L923.71 521.83L924.11 522.64L924.37 523.3L923.56 523.96L923.09 524.41L922.68 525.26L922.48 525.91L922.11 526.33L921.55 526.52L921.11 526.62L920.73 526.58L920.2 526.25L919.15 524.93L918.64 525.28L917.67 526.1L917.32 526.3L916.81 526.06L916.26 526.42L915.58 527.08L915.46 528.02L915.7 528.52L915.55 528.89L915 528.89L914.67 529.31L914.22 529.56L914.05 530.34L913.88 530.91L914.14 531.49L914.55 532.2L914.5 532.77L914.21 533.71L913.43 533.74L912.99 533.24L912.4 532.35L912.22 531.99L911.29 531.37L910.74 531.32L910.41 531.48L909.64 531.75L908.98 531.93L908.51 532.03L907.91 532.03L907.23 531.65L906.88 531.53L906.22 530.93L905.74 530.85L905.34 530.67L904.72 530.47L904.37 530.31L904.51 529.52L904.28 529.12L904.17 528.74L903.66 527.43L903.34 526.78L903.12 526.21L901.73 525.41L900.11 525.01L899.9 525.29L899.63 526.13L899.48 526.5L899.45 527.18L899.45 527.58L899.02 528.1L898.93 528.87L898.83 529.42L898.64 529.84L898.29 530.24L898.17 531.16L898.12 531.93L897.9 532.28L897.47 532.55L896.77 532.3L895.59 531.63L894.89 531.26L894.31 531.03L893.56 530.46L893.1 530.11L892.73 529.69L892.78 529.06L892.75 528.36L892.77 528L892.8 527.64L893.25 526.98L893.66 526.45L893.58 526.06L893.48 525.53L893.44 525.16L893.54 524.39L893.73 523.2L893.49 521.85L893.49 520.88L893.44 520.46L893.29 519.96L893.11 519.2L892.83 517.93L892.61 517.21L892.48 516.75L891.73 516.51L890.71 516.19L890.01 515.84L889.63 515.53L888.98 514.84L888.65 514.36L888.32 513.87L888.49 513.38L889.17 512.92L889.66 512.33L890.08 511.73L890.38 511.12L890.63 510.43L890.68 509.87L890.73 508.9L890.95 508.45L891.59 507.28L891.91 506.62L892.21 505.37L892.62 504.32L893.19 504.15L893.64 504.03L893.72 503.68L893.84 502.94L893.97 502.54L894.23 502.31L895.03 502.1L895.42 501.85L896.66 500.74L896.9 501.52L897.78 501.6L898.61 501.6L899.59 501.85L900.33 501.81L902.18 502.24L902.32 502.89L903.24 503.56L904.07 503.52L904.42 503.41L905.11 502.97L906.07 502.7L907.18 502.56L907.38 501.91L907.82 501.46L907.72 501.09L907.6 500.52L907.23 500.12L907.46 499.74L907.1 499.28L907.04 498.26L907.31 497.7L907.66 497.56L908.09 497.46L908.4 497.25L908.64 496.86L908.86 496.44L909.18 495.88L909.44 495.59L909.8 495.39L910.28 495.24L910.57 494.88L910.84 494.51L911.04 493.88L911.46 493.33L911.78 492.98L912.37 492.55L912.65 492.09L913.05 491.36L913.44 490.84L913.81 490.58L914.42 490.45L915.56 490.43L916.45 490.18L917.03 489.81L917.74 489.75L918.07 489.62L918.46 489.38L918.72 489.01L918.97 488.59L919.27 487.74L919.37 487.38L919.54 486.79L919.78 486.42L919.99 485.93L919.95 485.37L920.21 484.72L920.32 484.09L920.31 483.49L920.92 483.72L921.63 484.05L922.34 484.43L923.33 484.32L923.65 484.04L924.26 483.5L924.54 483.28L924.65 482.72L924.64 481.58L924.69 480.94L924.93 480.63L925.12 479.96L925.27 479.27L925.34 478.79L925.73 478.19L926.8 477.21L927.55 476.69L928.08 476.53L928.2 476.97L928.29 477.85L928.4 478.48L928.6 478.97L928.92 479.26L929.22 479.89L929.64 480.19L929.92 480.45L930.59 480.78L931.24 480.67L931.69 480.56L932.04 480.49L932.7 480.23L933.14 479.83L933.53 479.66L933.76 478.63L933.97 477.76L934.07 477.37L933.92 476.57L933.76 475.76L933.62 474.88L933.04 474.07L932.88 473.64L933.07 473.15L933.54 472.09L933.67 471.48L933.91 470.36L933.82 469.23L933.7 468.72L933.14 468.68L932.77 468.64L932.3 468.73L931.83 468.95L931.48 469.24L930.86 469.11L929.78 467.71L929.23 467.1L928.1 465.67L927.37 465.52L926.78 465.36L925.55 465.4L924.55 465.33L924.07 465.43L923.13 465.68L922.32 465.64L921.54 465.65L920.82 465.33L920.12 465.35L919.43 465.4L919.22 465.75L918.96 466.59L918.75 467.51L918.65 468.1L918.3 468.84L918.22 469.78L918.29 470.62L917.89 470.67L917.67 470.98L917.08 471.1L916.52 470.99L915.86 470.89L915.3 470.64L914.88 470.5L914.39 470.45L913.98 470.71L913.64 470.96L913.28 471.06L912.5 471.13L912.04 471.03L911.78 470.76L911.18 470.82L910.31 471.45L909.53 472.05L908.76 471.6L908.48 471.3L908.56 470.85L908.73 470.52L909.02 469.57L909.16 468.84L909.4 468.05L909.48 467.34L909.61 466.73L909.77 466.27L910.28 465.44L910.76 464.6L910.97 464.05L911.25 463.35L911.46 462.79L911.49 462.3L911.44 461.77L911.26 461.1L911.39 460.18L911.58 459.43L911.71 458.98L912.32 458.34L912.61 457.35L912 456.94L911.69 456.72L911.4 455.89L911.17 455.57L911 454.8L910.6 454.37L910.17 453.99L909.86 453.59L910.2 452.69L910.19 452.24L909.83 451.84L909.26 450.93L908.97 450.45L908.46 450.25L907.92 450.26L907.76 449.42L907.68 448.96L907.54 448.55L907.16 448.06L906.93 447.74ZM859.55 503.33L859.76 502.93L860.34 501.79L861.33 499.9L862.95 499.1L863.59 498.79L864.81 498.18L865.32 497.93L866.3 498.16L866.76 498.28L867.45 498.45L867.96 498.57L868.77 498.78L869.12 498.98L869.58 499.3L870.21 499.76L870.89 500.3L871.51 500.75L872.05 501.37L872.52 501.9L872.46 502.28L872.16 502.98L871.77 503.86L871.56 504.29L870.99 504.87L870.56 505.3L870.31 505.88L870.08 506.69L869.96 507.25L869.82 507.99L869.42 508.05L868.76 507.98L867.64 507.85L866.65 507.77L865.62 508.44L864.16 508.51L863.1 508.56L862.43 508.2L861.66 507.78L861.26 507.52L860.03 506.41L859.75 506.14L859.6 505.53L859.58 504.61L859.55 503.33Z" vector-effect="non-scaling-stroke"/>
    </g>
    <g id="district-daman" class="district-region" data-district="Daman" data-slug="daman" data-code="495" data-lgd-code="463" data-boundary-year="2011_c" data-geometry-type="Polygon" data-feature-id="IN-REGION-26-25-DISTRICT-495" tabindex="0" role="link" aria-label="Select Daman district">
      <path d="M799.99 444.64L801.31 444.97L801.93 445.19L802.49 445.11L803.13 444.84L803.57 444.56L804.11 443.89L805.31 442.69L805.72 442.34L806.08 442.26L807.06 442.32L807.63 442.28L808.29 442.04L808.78 441.71L809.53 441.69L810.07 441.84L811.5 442.22L812.83 442.63L813.26 442.8L813.67 442.61L813.94 442.31L814.32 442.04L814.83 441.92L815.32 441.91L815.7 441.64L816.21 441.63L816.57 441.55L816.96 441.79L816.98 442.15L817.23 442.75L817.65 442.91L817.99 443.02L818.73 443.12L819.44 443.18L820.26 443.49L821.06 443.67L821.51 443.81L822.02 443.66L822.35 443.49L822.73 443.25L823.33 442.97L823.95 442.76L824.51 442.67L824.92 442.63L825.49 442.57L826.39 442.58L826.77 442.62L827.04 441.95L827.25 441.37L827.62 440.96L827.96 440.72L828.36 440.57L828.7 440.43L829.06 439.96L829.23 439.63L828.51 439.13L827.49 438.62L827.17 438.38L826.61 438.2L825.85 437.6L825.47 437.32L825.53 436.88L825.55 436.19L825.18 435.83L824.92 435.54L824.36 435.2L824.08 434.29L823.99 433.46L823.96 433.01L823.9 432.65L823.87 432.28L824.3 432.19L824.76 432.18L825.05 431.96L825.26 431.56L825.57 431.36L825.93 431.4L826.45 431.58L826.81 431.65L827.27 431.69L827.75 431.44L828.18 431.15L828.41 430.87L828.66 430.62L828.96 430.82L829.37 430.59L829.75 430.33L830.18 429.97L830.48 429.43L830.71 429.13L831.29 428.98L831.65 428.47L831.77 427.73L831.82 427.26L831.23 427.15L831.5 426.49L831.89 425.8L832.14 425.17L831.68 424.89L831.08 424.66L830.71 424.33L830.66 423.92L830.15 423.34L829.73 422.78L829.28 422.69L828.68 422.59L828.19 422.46L827.84 422.33L827.34 422.47L827.15 423L826.84 423.31L826.36 423.43L825.76 423.45L825.28 423.39L824.73 423.38L824.45 423.13L824.05 423.07L823.67 423.2L823.18 423.62L823.03 423.99L822.78 424.3L822.21 424.41L821.79 424.4L821.34 424.35L820.98 424.35L820.79 424.81L820.58 425.16L820.03 425.26L819.72 425.53L819.11 425.6L818.79 425.25L818.51 424.88L818.31 424.52L817.86 424.4L817.24 424.29L816.83 424.18L816.29 424.33L815.72 424.15L815.21 424.11L814.39 423.74L813.98 423.48L813.98 423.12L814.04 422.64L814.21 422.32L814.41 421.82L814.72 421.59L814.83 421.22L815.13 421.01L815.33 420.59L815.39 420.05L815.66 419.77L816.96 419.32L818.14 417.32L818.28 417L818.49 416.12L818.69 415.35L818.84 414.96L819.71 414.12L820.01 413.73L820.41 413.24L820.56 412.87L820.76 412.49L821.4 412.7L821.7 413.15L822.07 413.41L822.29 413.7L822.37 414.07L823 414.25L823.39 414.47L823.64 414.78L823.98 414.85L824.97 415.25L825.51 415.46L825.94 415.47L826.41 415.29L826.77 415.2L827.15 414.69L827.56 414.17L827.82 413.93L828.19 413.55L828.6 413.1L828.22 412.46L827.84 412.11L827.24 411.59L826.74 411.33L826.45 411.09L826.17 410.85L825.88 410.37L825.76 409.97L825.65 409.61L825.57 408.99L825.56 408.59L825.79 407.4L825.9 406.77L825.9 406.19L825.56 405.75L825.1 405.45L824.66 405.43L824.21 405.45L823.57 405.57L822.88 405.72L822.44 405.77L821.73 405.76L821.18 405.63L820.84 405.54L819.98 405.26L819.56 405.15L819.1 405.04L818.69 405.07L818.13 405.1L817.6 405.09L816.93 404.95L816.17 404.89L815.55 404.74L815.14 404.62L814.67 404.43L814.32 404.16L813.46 403.48L811.99 404.33L811.04 405.03L809.51 405.9L808.7 406.52L808.01 406.88L807.63 407.19L807.25 407.93L806.67 408.58L805.89 409.19L805.33 410.62L804.47 411.79L804.11 413.23L803.7 414.2L803.6 414.64L803.38 415.71L803.01 416.79L802.51 418.17L802.62 419.84L802.76 420.74L803.02 423.54L802.98 424.42L803.33 425.07L803.47 425.65L803.75 426.71L803.13 427.42L802.87 427.84L802.57 429L802.67 430.17L802.9 430.77L802.81 433.09L802.58 434.7L802.44 435.74L802.53 436.09L802.27 437.16L801.63 437.96L800.76 440.66L800.19 442.35L800.06 443.31L800.14 443.76L799.99 444.64Z" vector-effect="non-scaling-stroke"/>
    </g>
    <g id="district-diu" class="district-region" data-district="Diu" data-slug="diu" data-code="494" data-lgd-code="464" data-boundary-year="2011_c" data-geometry-type="MultiPolygon" data-feature-id="IN-REGION-26-25-DISTRICT-494" tabindex="0" role="link" aria-label="Select Diu district">
      <path d="M66.04 291.85L65.62 291.78L65.14 291.39L64.92 290.99L64.79 290.46L64.55 290.16L64.1 290.1L63.73 289.8L63.31 289.41L63.09 289.97L62.93 291.33L62.9 291.72L62.43 292.11L62.13 292.46L61.94 292.75L61.75 293.07L61.47 293.44L61.06 293.59L60.42 293.7L60.02 293.73L59.6 293.74L59.12 293.77L58.77 293.91L58.44 294.07L58.08 294.29L57.58 294.57L56.88 294.77L56.42 294.94L56.02 295.1L55.46 295.27L55.12 295.37L54.67 295.5L54.25 295.54L53.75 295.6L53.39 295.64L52.88 295.65L52.33 295.68L51.64 295.75L51.19 295.8L50.4 296.05L49.83 296.3L49.48 296.44L49 296.74L48.55 297.09L48.18 297.47L47.92 297.84L47.73 298.25L47.67 298.66L47.64 299.39L47.32 299.76L47.05 300.08L46.66 300.45L46.37 300.92L46.25 301.31L46.17 301.92L46 303.19L46.56 303.11L46.96 303.09L47.46 303.15L48.35 303.24L48.85 303.2L49.32 303.21L49.83 303.26L50.21 303.3L50.88 303.36L51.36 303.49L52.66 303.97L53.11 304.2L53.46 304.39L53.93 304.67L54.23 304.98L54.54 305.25L54.77 305.55L54.91 305.88L54.63 306.14L54.33 306.45L54.12 306.82L54.4 307.11L54.91 307.24L55.3 307.29L55.75 307.25L56.3 307.16L57.02 307.01L57.41 306.95L57.76 306.84L58.15 306.76L58.75 306.79L59.21 306.73L59.01 306.35L59.4 306.2L59.73 306.32L59.9 306.66L59.71 307.04L60.01 307.24L60.48 307.34L60.88 307.16L61.12 306.85L61.62 306.64L61.91 306.28L61.3 306.24L61.37 305.88L61.16 305.35L61.14 304.94L61.34 304.29L61.59 303.9L62.02 303.49L62.37 303.13L62.73 302.89L63.22 302.7L63.7 302.61L64.19 302.5L64.53 302.41L64.98 302.33L65.34 302.21L65.77 302.12L66.18 302.05L66.53 302.04L66.99 302.05L67.55 302.14L68.2 302.3L68.79 302.47L69.25 302.62L69.58 302.74L69.92 302.84L70.21 303.07L70.04 303.46L70.12 303.84L70.65 303.96L71.02 304.05L71.48 304.18L71.8 304.34L72.15 304.46L72.5 304.7L72.88 304.48L73.3 304.68L73.72 304.68L74.2 304.42L74.47 304.66L74.92 304.59L75.01 304.95L75.19 305.25L75.59 305.47L75.98 305.5L76.37 305.37L76.85 305.16L77.24 304.93L77.73 304.65L78.12 304.54L78.37 304.22L78.78 304.19L79.11 304.43L79.53 304.6L79.96 304.71L80.37 304.6L80.67 304.42L80.91 304.14L81.34 304.16L82.04 304.08L82.51 304.15L82.69 304.46L82.85 304.78L82.87 305.25L83.15 305.48L83.57 305.47L84.1 305.53L84.56 305.49L84.58 305.93L84.87 306.24L85.21 306.03L85.43 305.73L85.64 305.33L85.92 305.01L86.22 304.78L86.59 304.51L86.93 304.32L87.25 304.08L87.6 303.86L87.94 303.68L88.27 303.34L88.63 303.41L88.91 303.16L89.07 302.84L89.43 303.01L89.76 303.24L90.17 303.09L90.45 302.84L90.8 302.77L91.18 302.72L91.61 302.6L92.05 302.3L92.24 301.92L92.53 301.72L92.84 301.48L93.04 301.07L93.19 300.7L93.46 300.4L93.14 300.12L92.54 300.3L92.26 300.58L91.81 300.59L91.39 300.31L91.03 300.15L90.21 299.36L89.68 299.28L89.19 299.25L89.01 298.55L89.26 297.76L89.82 297.27L90.15 296.58L90.37 296.18L90.53 295.78L90.67 295.44L91.31 294.58L91.72 294.21L92.81 293.34L93.15 293.09L93.53 292.86L93.91 292.54L94.38 292.46L94.89 292.18L95.63 291.87L96.14 291.74L96.53 291.7L96.93 291.59L96.25 290.96L95.18 290.02L94.07 289.69L93.78 289.9L93.57 290.38L93.09 290.75L92.57 290.94L92.27 291.26L91.95 291.72L91.65 292.11L91.16 292.38L90.58 292.4L90.2 292.59L89.96 293.01L89.69 293.29L89.14 293.37L88.5 293.49L88.06 293.77L87.73 294.28L87.54 294.92L87.4 295.45L87.21 296.31L87.14 296.78L87.03 297.38L86.82 297.74L86.37 297.59L86.02 297.36L85.63 297.03L85.11 296.58L84.79 296.2L84.48 295.9L84 295.59L83.5 295.42L82.91 295.23L82.37 295.12L82.01 295.04L81.59 294.99L81.21 294.99L80.83 295L80.4 294.93L80.05 294.55L79.91 293.85L79.87 293.42L79.68 292.92L79.43 292.58L79.11 292.19L78.73 291.92L78.28 291.97L77.6 292.18L77.26 292.36L76.68 292.5L76.3 292.66L75.86 292.72L74.97 292.8L74.39 292.82L73.81 292.8L73.21 292.88L72.62 293.03L72.19 293.17L71.64 293.34L71.18 293.56L70.62 293.71L70.24 293.7L69.74 293.41L69.39 293.21L68.92 292.93L68.59 292.69L68.23 292.33L67.85 291.94L67.36 291.78L66.84 291.82L66.3 291.86L66.04 291.85ZM152.98 282.57L153.46 282.46L153.6 281.93L153.21 281.59L152.97 281.13L152.73 280.81L152.53 281.14L152.92 281.4L152.87 281.9L152.62 282.17L152.56 282.57L152.98 282.57Z" vector-effect="non-scaling-stroke"/>
    </g>
  </g>
  <g id="state-outline" data-state="Dadra and Nagar Haveli and Daman and Diu" data-region-id="IN-REGION-26-25">
    <path d="M825.9 406.19L813.29 403.35L807.63 407.19L804.32 412.08L802.51 418.17L803.75 426.71L802.53 436.09L799.99 444.64L802.49 445.11L808.93 441.67L813.55 442.87L816.67 441.57L821.62 443.79L826.93 442.62L829.23 439.63L825.47 437.32L823.86 432.2L831.55 428.91L832.12 425.11L827.91 422.32L819.6 425.56L813.98 423.48L820.8 412.46L825.78 415.49L828.73 412.98L825.88 410.37L825.9 406.19ZM70.24 293.7L63.15 289.32L61.36 293.5L48.73 296.93L46 303.3L52.66 303.97L55.02 307.28L59.4 306.2L60.68 307.26L62.37 303.13L66.53 302.04L75.59 305.47L82.51 304.15L85.06 306.21L92.84 301.48L93.36 300.13L89.19 299.25L89.26 297.76L91.72 294.21L96.93 291.59L93.8 289.72L88.06 293.77L86.71 297.74L80.26 294.86L78.73 291.92L70.24 293.7Z" vector-effect="non-scaling-stroke"/>
    <path d="M950.94 546.77L948.07 547.16L945.91 544.38L941.86 543.09L941.24 532.19L942.9 528.71L949.2 529.4L952.5 526.43L953.77 519.77L943.7 515.02L938.36 517L938.69 514.88L935.85 514.6L934.61 510.56L930.31 514.64L928.4 512.35L926.58 513.65L922.69 510.82L920.93 511.57L921.02 518.66L924.37 523.31L922.11 526.33L919.15 524.93L915.58 527.08L913.98 533.82L911.29 531.37L907.91 532.03L904.37 530.31L903.12 526.21L900.11 525.01L897.9 532.28L892.73 529.69L893.73 523.2L892.46 516.46L888.3 513.6L893.97 502.54L896.66 500.74L903.24 503.56L907.24 502.55L907.31 497.7L913.44 490.84L918.46 489.38L920.31 483.49L924.51 483.42L925.73 478.19L928.09 476.53L930.59 480.78L933.53 479.66L934.07 477.37L933.7 468.72L930.86 469.11L927.97 465.5L919.43 465.4L917.67 470.98L908.6 471.45L912.61 457.35L906.8 447.66L904.16 448.49L904.5 454.09L899.37 463.12L895.36 460.45L885.79 462.27L882.73 476.18L875.54 475.27L875.96 468.91L872.29 467.47L873.21 476.29L862.03 476.84L862.26 482.31L858.93 484.89L854.85 484.51L851.81 479.1L844.84 474.8L842.71 474.67L840.92 478.42L837.1 480.35L835.12 485.44L842.48 496.27L851.44 498.69L855.96 503.69L855.23 509.99L854.4 510.31L854.41 510.31L854.31 510.39L854.12 511.43L854.81 521.19L860.59 522.43L858.98 525.01L859.21 531.14L854.35 542.33L858.12 548.85L860.41 549.98L866.37 547.92L868.58 537.55L873.73 540.93L874.17 543.01L869.25 545.94L869.79 550.39L872.54 551.83L874.76 556.78L884.64 568.8L889.71 569.88L890.22 557.3L890.93 555.63L894.21 555.83L902.46 559.07L909.48 559.53L912.71 565.87L922.45 561L922.71 564.02L924.44 563.68L926.16 566.2L927.27 564.21L929.38 565.46L930.22 570.57L932.88 571.52L933.68 573.91L938.13 575.4L938.62 577.03L943.82 576.06L941.96 572.24L942.66 564.56L945.76 565.3L950.94 561.07L952.66 547.76L950.94 546.77Z" vector-effect="non-scaling-stroke"/>
  </g>
</svg>
