<?xml version="1.0" encoding="UTF-8"?>
<svg xmlns="http://www.w3.org/2000/svg" viewBox="0 0 1000 1100" role="img" aria-labelledby="map-title map-description">
  <title id="map-title">Goa district map</title>
  <desc id="map-description">Interactive vector map of Goa containing 2 district boundaries.</desc>
  <g id="district-layer" data-status="ready" data-district-count="2" data-layer-id="IN-REGION-30-DISTRICTS" data-division-layer-id="IN-REGION-30-DIVISIONS" data-division-count="0" data-division-status="not-applicable">
    <g id="district-north-goa" class="district-region" data-district="North Goa" data-slug="north-goa" data-code="585" data-lgd-code="551" data-boundary-year="2011_c" data-geometry-type="Polygon" data-feature-id="IN-REGION-30-DISTRICT-585" tabindex="0" role="link" aria-label="Select North Goa district">
      <path d="M570.6 481.34L571.01 481.12L571.33 480.87L571.65 480.69L572.08 480.53L572.53 480.29L573.37 479.86L573.75 479.69L574.83 479.26L575.95 478.75L576.47 478.51L577.48 478.04L577.84 477.88L578.5 477.56L579.4 477.15L580.12 476.75L580.64 476.49L582.73 475.58L583.09 475.08L583.62 474.34L584.1 473.61L584.56 472.96L584.96 472.7L585.33 472.57L585.76 472.57L586.27 472.55L586.7 472.53L587.93 472.36L588.46 472.21L588.83 472.1L591.31 471.11L592.04 470.9L592.69 470.53L593.23 470.34L597.01 468.93L599.82 467.71L602.33 466.42L605.37 464.83L608.51 469.09L610.46 472.11L611.65 474.26L612.21 474.17L611.92 471.99L612.48 469.84L612.44 467.76L613.14 465.42L613.14 464.21L614.88 462.73L616.32 461.52L618.08 460.91L619.5 460.28L619.92 460.09L621.34 460L622.17 459.27L622.59 458.59L623.55 456.91L625.38 455.3L626.34 454.64L627.33 453.59L627.63 453.03L628.51 453.02L629 453.06L629.53 453.39L630.05 453.75L630.73 454.22L631.22 454.68L632.01 454.81L633.08 455L633.85 455.11L634.46 455.26L634.87 455.56L635.55 455.97L636.06 456.33L636.65 456.57L637.25 456.57L637.76 456.46L638.19 456.22L638.65 455.99L639.06 455.69L639.87 455.43L641.02 454.83L641.45 454.65L642.37 452.9L642.5 452.03L642.85 451.83L643.73 452.26L644.94 452.45L646.51 452.14L647.82 451.84L648.92 451.57L649.97 451.8L650.71 451.65L651.84 451.98L652.58 452.04L653.4 452.27L654.01 451.82L654.74 451.46L655.89 451.31L656.65 451.06L656.98 450.62L656.99 450.08L657.34 449.53L657.24 448.56L658.68 448.35L659.12 449.08L659.2 449.62L659.82 450.06L660.25 450.56L660.92 450.7L661.48 450.92L662.41 450.35L663.1 449.98L663.53 449.26L663.95 449.09L665.03 449.26L665.58 449.08L666.64 448.23L667.41 448.06L668.82 448.34L669.82 449.18L670.14 448.97L670.49 448.8L671.26 448.49L673.26 447.76L674.03 447.29L674.45 447.21L675.14 447.03L675.51 447.02L675.82 447.33L676.02 447.62L676.25 448.02L676.46 448.49L676.63 449.01L676.79 449.55L677.01 450.06L677.2 450.48L677.29 450.83L677.56 451.1L678.08 451.22L679.53 451.55L681.37 452.06L683.7 452.78L686.55 453.71L686.84 453.31L687.91 451.44L688.12 451.04L688.68 450.18L689.79 449.01L690.51 448.26L691.16 447.94L692.01 447.68L693.86 447.08L694.64 446.67L695.25 446.35L695.85 445.66L696.13 445.18L696.66 444.25L697.6 442.74L697.37 441.86L697.18 441.15L697.69 439.99L697.88 439.26L698.28 437.69L698.38 435.15L698.15 434.18L698.06 433.83L698.14 433.25L699.16 432.37L700.55 431.37L702.19 429.35L702.85 427.75L704.33 425.3L705.21 424.31L705.89 424.03L707.26 423.43L708.11 422.59L708.58 421.95L708.97 420.87L709.76 420.31L711.03 419.91L712.14 419.37L712.84 419.05L713.4 418.64L714.34 417.89L714.98 417.48L715.49 417.11L716.2 416.97L716.76 416.88L717.46 416.86L718.65 416.58L719.13 416.43L719.55 416.21L720.33 415.82L720.68 415.64L721.15 415.72L721.52 415.81L722.11 415.7L722.48 415.18L722.65 414.77L723.1 414.52L723.76 414.49L724.16 414.54L724.64 414.39L724.76 413.86L725.2 413.51L725.63 413.36L726.11 413.23L726.66 413.01L727.22 412.84L727.92 412.58L728.55 412.28L729 412.2L730.17 412.18L730.59 412.08L731.09 411.88L731.48 411.69L732.42 411.2L732.91 411.01L733.42 410.71L734.09 410L734.54 409.53L735.54 408.28L735.86 407.68L736.18 407.27L736.62 406.8L737.44 405.66L738.56 404.76L739.13 404.34L739.94 403.89L740.26 403.72L740.63 403.49L741.04 403.48L741.28 403.74L741.71 404.37L741.95 404.75L742.28 404.58L742.27 404.13L742.16 403.75L742.03 403.2L742.06 402.75L742.23 402.41L742.66 401.8L743.29 401.31L743.88 401.05L744.52 400.76L745.45 400.41L746.65 399.83L747.66 399.25L748.69 398.86L749.7 398.71L750.06 398.64L750.42 398.58L750.93 398.26L751.58 397.88L752.65 397.29L753.16 397.01L754.22 396.66L754.74 396.49L755.98 396.21L757.25 396.08L757.87 396.31L758.35 396.46L758.77 396.06L758.94 395.68L759.29 394.8L759.99 393.7L760.61 393.18L761.1 393.01L761.65 393.18L762.51 393.25L763 393L763.64 392.99L764.31 392.95L764.71 392.92L764.54 392.45L766.02 384.08L767.06 382.61L767.3 382.22L767.44 381.76L768.91 380.21L770.93 378.58L772.37 377.69L773.76 376.82L774.2 376.57L775.14 376.21L777.51 375.5L778.56 375.08L779.33 374.77L780.9 374.07L782.78 373.23L785.3 372.14L786.52 371.5L787.35 370.99L789.1 369.94L790.22 369.03L790.89 368.29L791.91 366.97L792.83 365.74L794.07 364.07L794.31 363.69L794.26 362.42L793.98 358.52L793.97 358.17L793.96 357.67L794.26 356.98L794.51 356.73L795.16 356.23L796.62 355.47L797.18 354.97L797.56 354.37L797.79 353.98L798.1 353.26L798.39 352.61L798.64 351.14L798.79 349.29L798.82 348.06L798.69 347.4L798.51 346.3L798.32 345.27L797.73 343.98L797.35 343.02L796.66 341.58L796.14 340.13L795.57 338.46L795.11 336.9L794.73 335.1L794.58 333.73L794.27 332.79L793.71 331.6L792.96 330.7L792.18 330.13L791.12 329.41L790.18 328.69L789.19 327.78L788.41 326.99L787.6 325.74L787.19 324.92L786.97 324.51L786.22 323.76L785.41 323.07L784.05 321.87L782.64 320.58L780.89 318.73L780.08 317.85L779.62 317.16L779.27 316.47L778.96 315.75L778.77 314.71L778.71 313.34L778.56 313.02L778.29 312.32L777.87 311.76L777.54 311.51L777.12 311.31L776.24 310.56L775.76 310.63L775.43 310.81L774.99 311.35L774.8 311.68L774.56 312.07L774.25 312.8L773.91 313.6L773.31 314.05L772.83 314.14L772.11 314.04L771.71 313.94L771.23 313.72L770.78 313.45L769.17 312.41L768.13 311.49L766.55 310.1L765.2 309.05L763.89 307.85L763.2 307.44L762.71 307.24L758.51 308.58L758.49 307.95L759.42 305.93L761.68 301.16L762.5 299.53L762.72 299.12L763.4 297.68L763.91 296.94L764.14 296.56L762.73 294.23L762.25 293.27L762.51 293L765.15 290.1L766.98 288.22L768.21 286.8L769.35 285.5L771.23 283.33L773.79 280.57L774.39 279.82L774.63 279.44L774.48 278.17L774.19 276.78L773.92 275.31L774.03 274.08L774.13 273.6L774.83 272.13L775.02 271.5L775.23 270.44L774.96 269.08L774.81 267.47L774.44 265.88L774.41 264.04L775.56 262.72L776.19 262.12L776.42 261.74L777.05 259.06L777.44 258.24L777.62 257.27L778.04 256.42L778.73 254.72L779 253.79L778.85 253.38L777.68 251.87L776.42 250.42L775.67 249.54L774.85 248.91L772.84 247.88L773.11 247.25L773.11 245.79L772.72 244.95L771.51 243.98L770.64 243.34L768.67 242.24L768.23 241.79L767.58 241.2L766.28 242.04L765.88 242.29L761.68 245.5L757.25 241.91L758.86 235.51L761.07 226.09L762.72 220.2L762.95 219.62L763.16 218.74L763.61 217.08L763.82 216.45L764.15 215.25L764.62 213.87L764.96 212.6L765.32 211.51L765.7 210.28L765.44 209.98L764.67 209.27L763.95 208.54L763.77 208.22L763.96 207.64L764.09 207.09L763.41 206.81L762.74 206.72L762.01 206.72L758 205.92L755.99 201.17L751.24 200.14L750.91 199.92L751.88 199.11L752.12 198.73L749.63 196.86L749.43 196.19L749.14 195.21L748.83 194.28L747.7 194.55L747.24 194.69L746.18 194.82L745.58 194.96L744.95 195.39L743.58 196.96L741.74 196.75L740.25 198.92L739.09 197.74L738.23 197.27L737.38 197.03L736.13 196.89L736.07 196.42L736.11 194.71L735.7 193.89L735.25 193.83L732.86 195.86L729.03 199.03L728.79 199.41L728.47 201.29L725.93 200.68L726.18 201.18L725.69 201.06L727.11 203.88L728.47 206.12L728.98 206.34L729.78 206.71L731.48 207.11L733.33 207.81L733.28 208.93L732.25 209.58L728.42 212.04L726.7 211.7L724.78 212.32L720.33 213.07L715.11 213.96L713.09 210.98L711.47 208.01L712.03 205.95L713.96 199.77L713.16 200.26L712.37 200.38L707.06 198.88L702.14 197.51L695.36 195.55L695.31 194.77L694.89 191.34L694.59 187.95L698.32 186.97L699.52 185.89L699.76 185.51L699.68 182.65L699.37 181.87L699.06 181.1L698.22 180.76L697.4 180.43L696.99 180.47L696.57 180.38L696.07 180.37L695.62 180.34L695.14 180.32L694.7 180.35L694.23 180.33L693.67 180.21L693.09 179.93L692.41 179.5L691.52 179.2L690.06 178.99L689.02 179.06L688.5 179.3L688.07 179.65L687.36 179.91L686.79 180.06L686.25 180.23L685.8 180.6L685.21 181.03L684.44 181.21L684.03 181.41L683.78 181.74L683.36 182.18L683.01 182.45L682.61 182.76L682.21 183.35L681.97 183.73L681.94 184.16L681.83 184.94L681.54 185.2L681.28 185.61L681.04 185.99L680.83 186.4L679.92 187.21L679.49 187.82L678.92 188.4L677.69 188.84L676.65 189.15L675.85 189.42L675 189.89L674.33 190.34L674.09 190.72L674.5 191.58L674.18 192.01L673.95 192.39L673.53 193.28L673.18 194.53L672.27 198.79L672.16 200.13L671.93 202.97L671.74 204.88L671.55 206.63L671.72 208.48L672.13 210.42L671.15 211.19L669.73 211.01L667.06 210.4L663.64 209.87L662.63 211.36L662.4 211.74L660.94 214.44L660.28 215.22L658.7 214.03L657.89 213.51L656.75 213.03L655.67 212.85L654.6 212.9L652.31 213.49L651.81 213.62L650.56 213.81L648.97 213.8L647.59 213.74L645.99 213.88L644.53 214.31L642.76 215.1L642.19 215.52L641.02 216.55L639.97 216.94L637.39 216.11L633.21 214.49L631.06 213.85L629.83 213.85L628.65 213.72L627.9 213.63L627.37 214.05L626.9 213.61L626.52 212.98L622.76 212.45L622.19 212.44L621.33 212.86L620.55 213.7L619.86 214.56L618.71 216.13L616.62 216.78L616.33 217.88L616.12 218.43L615.73 219.39L614.9 219.52L614.11 219.24L612.28 218.51L609.4 219.54L607.44 220.25L605.85 220.76L605.58 221.09L603.95 223.11L602.34 224.41L600.94 225.42L599.66 225.93L597.37 224.95L595.87 224.48L592.8 226.67L591.31 227.36L589.07 228.34L587.62 229.1L586.29 229.81L584.05 231.41L584.02 232.94L582.13 233.87L579.22 235.82L578.65 236.44L577.49 235.89L576.98 236.06L573.41 237.71L569.2 239.48L568.84 238.88L568.73 238.24L567.37 238.18L566.01 238.2L565.33 238.37L564.88 238.56L562.99 239.63L562.53 239.83L560.97 239.7L560.22 239.76L559.56 239.89L558.83 240.32L558.22 240.74L557.43 241.42L556.5 241.65L555.89 241.81L547.91 243.87L547.5 243.96L546.54 244.15L541.69 244.36L538.87 244.47L538.17 244.31L537.52 244.36L535.84 244.51L534.33 244.63L531.85 245.12L531.31 245.26L528.26 246.08L527.68 246.03L526.96 245.77L526.57 246.88L525.69 249.15L524.56 251.18L524.11 251.7L523.61 252.36L523.44 252.76L522.59 257.27L522.49 257.84L522.15 260.08L519.92 260.63L519.21 261.55L517.79 263.1L516.95 264.02L516.36 264.35L515.75 264.3L514.98 264.08L512.83 263.4L508.83 262L506.07 261.11L503.44 260.16L502.52 259.94L499.57 258.99L498.3 258.55L497.57 258.3L497.19 258.18L496.27 258.21L494.28 258.7L492.52 259.19L490.74 259.46L489.22 259.46L487.67 259.2L486.89 259.02L485.64 258.65L484.43 258.47L483.58 258.34L483.02 256.32L482.64 255.85L482.16 255.08L481.02 253.37L480.35 252.76L479.72 252.15L479.45 251.64L478.85 250.71L477.94 249.42L476.7 248.2L475.41 247.04L473.79 245.43L473.05 244.46L472.51 243.74L472.14 243.13L471.66 242.44L470.76 240.96L469.5 241.38L467.08 240.86L464.73 240.34L461.92 240.7L461.07 238.93L458.57 237.34L457.73 235.05L458.41 233.66L458.21 232.04L456.25 229.67L451.85 224.73L451.3 220.6L451.47 217.79L453.01 213.56L458.07 205.73L458.72 203.96L458.5 202.45L458.22 201.36L457.99 200.49L456.56 196.39L456.5 194.5L456.41 193.44L455.67 192.12L453.81 191.54L453.4 188.99L453.53 187.72L453.71 187.18L453.97 186.42L453.85 181.47L454.43 176.1L454.62 172.71L454.68 171.03L454.53 169.19L454.11 167.9L453.85 167.58L453.5 167.18L453.37 166.67L452.85 166.78L452.4 166.39L452.29 165.79L452.05 165.49L451.45 165.14L450.92 165.05L450.69 164.45L450.72 164.1L450.68 163.57L450.3 162.94L449.87 162.67L449.63 162.22L449.96 161.25L450.09 160.71L449.93 160.29L449.59 159.98L449.11 160.27L448.91 160.61L448.54 160.89L448.11 160.83L447.66 160.41L447.54 159.88L447.27 159.3L446.65 159.14L445.71 159.58L445.28 159.88L444.65 159.9L443.67 159.74L443.25 159.77L442.82 159.85L442.43 160.27L442.33 161.1L441.67 161.88L440.99 162.19L440.56 161.94L440.1 161.52L439.77 161.35L439.37 161.26L438.91 161.28L438.4 161.32L437.18 161.02L436.86 160.84L436.1 160.72L435.6 161.14L435.09 161.34L434.73 161.44L434.34 161.45L433.93 161.4L433.25 161.22L432.71 160.81L433.4 160.72L434.31 160.35L435.23 159.73L435.52 159.46L436.43 158.6L437.65 157.37L438.02 156.85L438.45 155.72L438.76 154.86L438.82 153.98L438.83 152.77L438.97 151.9L439.48 149.88L438.52 149.98L437.81 150.24L437.45 149.9L437.07 149.64L436.92 149.19L436.59 148.76L436.62 148.4L437.04 148.24L437.6 148.17L438.07 147.95L438.65 147.89L439.03 147.5L438.9 147.03L438.97 146.68L439.37 146.48L439.77 146.37L440.12 146.11L440.27 145.57L440.54 144.96L440.75 144.66L441.15 144.22L441.47 143.95L441.24 143.29L441.11 142.86L441.2 142.23L441.3 141.58L441.44 140.99L441.35 140.51L440.96 140.3L440.41 140.46L440.11 140.66L439.64 140.58L439.46 140.09L439.48 139.43L438.86 139.34L438.11 138.41L437.61 138.08L437.25 137.85L436.98 137.28L436.25 136.85L435.76 136.77L435.38 136.63L434.98 136.34L434.65 135.58L434.57 135.18L434.53 134.66L434.31 133.74L434.07 133.25L433.63 132.64L433.4 132.15L433.18 131.27L432.97 130.96L432.49 130.85L432 130.6L432.03 130.24L432.05 129.72L431.84 129.13L431.53 128.59L431.01 128.15L430.81 127.8L430.38 127.18L430.38 126.66L430.52 125.48L430.56 124.63L430.52 123.7L430.4 122.78L430.22 122.42L429.87 121.93L429.69 121.32L429.61 120.66L429.59 119.95L429.47 119.59L429.37 118.9L429.35 118.32L429.36 117.52L429.4 116.88L429.17 116.13L428.92 115.66L428.71 115.27L428.53 114.94L428.26 114.62L427.98 114.31L427.7 113.82L427.58 113.38L427.53 112.96L427.27 112.4L427.28 112L427.25 111.61L427.33 111.2L422.2 109.58L420.34 109.44L417.1 109.35L416.39 109.28L415.05 109.39L412.78 109.51L410.81 109.66L409.32 109.45L407.39 109.12L404.23 108.72L402.26 109.19L401.48 109.31L399.3 107.61L397.39 106.68L394.97 105.26L393.85 104.96L393.04 104.91L392.96 106.09L392.69 106.61L392.36 106.97L392.04 107.25L390.76 107.56L389.44 107.65L388.13 107.61L387.12 107.58L386.26 107.68L385.85 107.81L385.25 108.02L384.84 108.32L384.58 108.74L383.99 108.57L382.16 107.44L381.87 106.56L380.66 106.13L379.24 106.38L377.71 104.91L376.67 105.16L375.63 104.62L374.83 104.48L373.43 104.24L372.17 103.95L371.35 103.68L370.47 103.21L370.06 103.19L368.88 103.13L368.38 103.26L367.45 103.58L366.61 103.84L364.22 104.04L363.39 104.13L362.3 104.07L361.58 103.86L360.91 103.38L360.02 102.96L358.8 102.2L358.12 101.61L357.64 101.1L357.21 100.44L356.24 98.23L355.56 96.58L355.47 95.4L355.38 93.23L356.14 91.76L357.29 89.77L357.82 89.19L358.21 88.79L358.6 88.42L358.93 88.13L359.76 87.24L360.16 86.07L359.95 85.66L359.6 85.17L359.21 85.05L358.6 84.79L358.31 84.54L358.14 84.22L358.16 83.68L358.48 83.16L358.83 82.88L359.44 82.72L359.91 82.73L360.29 82.75L360.75 82.66L361.03 82.42L361.16 81.92L361.21 81.34L361.54 80.73L361.77 80.35L361.57 79.96L362.7 78.19L363.08 77.55L363.38 76.82L363.51 75.98L362.73 76.07L361.89 75.44L360.98 75.43L360.28 75.26L359.9 75.06L359.51 74.76L358.93 74.27L358.47 73.71L357.85 72.81L356.83 72.58L355.99 71.26L354.29 69.04L353.69 68.05L353.41 66.93L352.83 66.04L352.04 65.43L350.07 65.16L348.54 64.06L348.56 62.03L348.12 60.65L347.74 58.7L347.71 57.08L347.84 56.58L348.05 56L348.24 55.34L348.49 54.29L350.19 50.77L345.5 48.47L344.67 48.47L343.44 48.45L341.64 48.03L341.81 47.15L339.87 46.41L339.04 46.16L338.55 46.02L338.16 46L337.66 46.22L337.37 46.46L337.04 46.79L336.59 47.36L336.07 48.06L335.63 48.65L334.98 49.51L334.46 49.97L334.23 50.47L333.86 51.43L333.65 52.15L332.54 55.81L331.99 58.02L331.68 59.04L331.42 59.47L331.14 59.85L330.83 60.2L330.46 60.52L329.92 60.84L329.36 61.09L328.99 61.22L328.41 61.65L328.03 62.1L327.99 62.56L328.45 63.24L328.81 63.54L329.43 63.98L331.25 65.29L332.21 66.24L333.28 67.47L333.44 67.92L333.35 68.44L333.11 68.76L332.77 69.02L332.19 69.29L331.83 69.32L331.41 69.33L330.84 69.3L330.23 69.17L329.41 68.92L328.1 68.49L327.25 68.26L325.69 67.93L324.98 67.87L324.63 67.92L324.3 68.05L323.99 68.31L323.7 68.65L323.42 69.11L323 69.74L322.4 70.95L321.93 71.82L321.33 73.03L320.93 73.99L320.41 75.19L320.18 75.99L319.88 76.89L319.71 77.62L319.59 78.25L319.52 79.41L319.2 81.87L318.64 83.35L318.37 83.79L318.09 84.12L317.75 84.42L317.28 84.72L316.9 84.89L316.29 85.06L315.68 85.21L313.93 85.44L312.84 85.5L312.19 85.55L311.68 85.59L311.12 85.64L310.59 85.78L310.28 85.96L309.94 86.33L309.71 86.68L309.48 87.19L309.39 87.65L309.39 88.18L309.44 88.75L309.54 89.33L309.67 89.8L309.8 90.18L310.12 90.74L310.42 91.26L310.74 91.79L310.86 92.25L310.97 92.77L311.09 93.69L311.14 94.86L311.11 95.7L311.08 96.44L311.06 97.18L311.03 98.18L310.93 99.33L310.83 100.03L310.61 100.7L310.38 101.17L310.06 101.71L309.73 102.19L308.54 103.29L308.19 103.62L307.58 104.47L306.94 105.55L306.35 106.84L305.91 108.13L305.57 110.11L305.41 110.69L305.16 111.61L304.81 112.47L304.32 113.1L303.32 113.84L302.53 114.36L301.47 114.62L299.04 115.02L297.48 115.22L296.57 115.28L295.93 115.07L292.4 113.19L289.5 111.48L288.65 111.06L288.09 111.14L287.3 111.43L286.98 111.68L286.62 112.16L286.23 113.13L285.32 115.15L284.72 116.15L283.92 116.81L282.48 117.46L281.88 117.69L281.24 117.93L280.46 118.17L279.83 118.68L278.47 119.75L277.09 120.29L275.89 120.48L274.72 120.3L273.73 119.82L272.01 118.61L271.39 118.32L270.73 118.34L269.57 118.65L268.17 119.25L266.74 119.89L265.79 120.62L265.5 121.21L265.47 122.02L265.91 124.59L265.95 125.06L265.81 125.69L265.49 126.55L265.07 127.42L264.35 128.45L263.62 129.16L262.68 130.07L261.86 130.52L261.27 130.6L260.78 130.52L260.32 130.41L259.19 129.86L256.31 128.42L254.31 127.84L253.41 127.68L251.67 127.7L250 127.55L248.92 127.5L248.56 127.26L248.31 126.91L248 126.54L247.69 126.26L247.05 125.9L246.58 125.68L245.64 125.16L241.49 122.8L240.41 122.15L239.61 121.87L238.31 121.51L234.68 120.61L233.12 120.31L231.29 120.16L229.94 120.18L228.14 120.37L226.31 120.27L224.78 120.05L223.79 119.69L222.58 119.34L221.89 119.35L218.11 119.31L215.47 119.13L214.56 119.34L212.91 119.96L211.5 121.32L209.46 122.3L208.76 122.94L206.93 124.84L205.15 127.33L204.69 129.1L204.48 131.17L204.01 133.21L203.25 134.97L202.34 135.76L201.42 136.48L200.12 136.92L199.14 136.79L195.86 135.86L194.64 134.83L192.71 132.04L191.98 131.73L189 131.36L187.05 131.09L183.63 130.63L181.63 130.1L181.13 130.41L180.37 130.85L178.11 132.07L175.61 132.8L172.79 133.34L170.18 133.58L166.97 133.57L165.16 133.55L163.37 133.53L162.83 133.29L162.74 131.16L162.16 128.94L161.59 127.97L158.86 126.9L157.02 126.26L156.04 126.11L154.39 125.81L152.21 125.65L150.48 125.71L148.69 126.02L147.54 126.18L144.59 126.3L144.49 128.05L143.1 128.88L143.51 129.14L144.15 129.62L144.65 129.98L145.16 130.2L146.05 130.1L146.52 130.04L146.97 130.07L147.33 130.21L147.79 130.32L148.19 130.62L148.36 130.99L148.62 131.3L148.67 131.87L148.17 132.81L147.94 133.33L147.76 133.7L146.89 134.34L146.62 134.62L146.95 134.82L147.35 134.72L147.63 135L147.43 135.36L147.78 135.54L148.22 135.3L148.56 135.05L148.86 134.85L149.35 134.71L149.77 134.61L150.3 134.42L150.61 134.25L151.02 134.16L151.4 134.38L151.38 134.82L151.28 135.37L151.25 135.79L151.11 136.32L151.45 136.21L151.72 135.74L152.17 135.68L152.56 135.87L153.02 136L153.53 135.91L154.07 135.85L154.49 135.98L154.87 136.05L155.26 135.91L155.54 135.64L155.67 135.28L155.56 134.78L155.43 134.23L155.62 133.47L155.9 133.18L156.35 133L156.9 133.07L157.26 133.51L157.44 133.91L157.72 134.21L158.03 134.37L158.54 134.38L158.91 134.27L159.06 136.26L158.62 136.29L158.31 136.72L158.22 137.23L158.15 137.92L158.01 138.63L157.92 138.98L157.98 139.47L158.12 139.83L158.59 140.83L158.73 141.32L158.91 141.92L158.97 142.35L159.06 142.77L159.2 143.25L159.43 143.88L159.85 144.75L160.31 145.47L160.58 145.94L160.81 146.39L160.95 146.81L161.11 147.18L161.49 147.9L161.74 148.4L161.91 148.97L162.08 149.66L162.24 150.17L162.51 150.82L162.67 151.23L162.99 151.92L163.12 152.27L163.09 152.81L162.83 153.36L162.7 153.95L162.68 154.52L162.73 154.92L162.87 155.55L163.17 156.72L163.26 157.23L163.4 157.81L163.88 158.41L164.64 159.25L165.2 159.84L165.94 160.45L166.24 160.67L166.73 160.92L167.4 160.97L167.97 160.72L168.29 160.41L168.59 160.1L168.95 159.91L168.87 160.3L168.55 160.74L168.05 161.25L167.61 161.72L167.28 162.19L167.05 162.63L166.94 163.14L166.99 163.65L167.32 164.34L167.58 164.95L167.69 165.36L167.76 165.87L167.69 166.22L167.6 166.63L167.55 167.01L167.56 167.49L167.84 167.84L168.34 167.85L169.06 167.56L169.67 167.4L170.05 167.51L170.38 167.89L170.52 168.23L170.76 168.78L170.98 169.17L171.15 169.48L171.48 169.7L171.66 170.15L172.02 171.18L172.43 172.08L172.56 172.45L172.76 173.05L172.92 173.67L173.05 174.28L173.18 174.98L173.35 175.81L173.58 176.9L173.77 177.62L173.85 178.08L174.1 179.5L174.22 180.07L174.44 181.16L174.62 182.46L174.77 183.07L175.17 184.75L175.48 185.59L176.65 188.24L177.19 189.61L177.52 190.32L178.04 191L178.33 191.38L178.55 191.9L178.96 192.94L179.48 194.11L179.77 194.66L180.08 195.21L180.23 195.57L180.33 196.02L180.56 196.67L180.73 197.07L180.95 197.36L181.3 197.72L181.71 197.66L181.77 198.43L181.4 198.9L181.43 199.65L181.47 200.22L181.6 200.87L181.72 201.75L181.83 202.28L182 202.82L182.36 203.55L182.64 204.04L182.67 204.45L182.79 205.09L182.96 206L183.13 206.71L183.25 207.09L183.53 207.56L184.08 207.43L184.35 207.84L183.96 207.92L183.86 208.77L183.85 209.27L183.92 210.07L184.13 211.02L184.45 212.14L184.92 213.51L185.18 214.28L185.45 214.62L185.89 214.64L186.29 214.43L186.79 214.62L186.61 215.1L186.31 215.4L186.22 215.87L186.45 216.48L186.89 216.79L187.22 217.34L187.43 218.04L187.54 218.64L187.62 219.24L187.73 219.76L188.04 220.57L188.21 221.09L188.22 221.53L188.38 221.87L188.7 222.15L188.71 222.59L188.73 223L189.01 223.85L189.38 224.81L189.6 225.29L189.88 225.75L190.39 226.36L190.83 226.85L191.05 227.15L191.25 227.85L191.43 228.36L191.82 229.4L192.34 230.63L192.7 231.5L193.02 232.22L193.32 232.95L193.53 233.65L193.78 234.47L194.05 235.46L194.36 236.68L194.64 237.05L195.24 237.19L195.73 237.18L196.11 237.19L196.45 237.3L196.78 237.46L197.28 238.03L197.62 238.34L198.28 238.86L198.87 239.33L199.51 239.83L199.95 240.29L200.2 240.68L200.54 241.25L200.93 242.07L201.19 242.61L201.5 243.48L201.76 244.22L202.06 245.06L202.41 245.96L202.93 247.09L203.34 247.94L203.6 248.5L204.14 249.52L204.47 250L204.68 250.57L204.91 251.1L205.49 251.69L205.95 252.15L206.19 252.58L206.62 253.17L207.08 253.58L207.47 253.82L207.97 254.01L208.47 254.09L208.85 254.1L209.39 253.88L209.78 253.09L209.89 252.66L210.11 252.09L210.05 252.69L212.69 263.64L212.42 263.25L212.04 262.86L211.76 262.62L211.47 262.36L211.19 261.94L210.91 261.5L210.47 261.43L210.01 261.69L209.61 261.68L208.99 261.59L208.31 261.64L207.94 261.71L207.55 261.79L207.07 261.99L206.62 262L205.75 261.82L205.34 261.7L204.9 261.71L204.48 261.81L204.06 262.07L203.78 262.52L203.93 263.1L204.53 263.41L204.91 263.55L205.18 263.93L205.16 264.66L205.2 265.24L205.38 265.59L205.69 265.94L206.04 266.43L206.32 267.1L206.44 267.77L206.56 268.48L206.61 268.91L206.54 269.3L206.38 269.7L206.21 270.04L205.77 270.46L205.41 270.73L205.06 271.04L204.94 271.62L204.99 271.97L205.28 272.3L205.57 272.64L205.61 273.07L205.92 273.32L205.93 273.78L205.86 274.72L205.85 275.35L205.86 275.72L206.05 276.25L206.17 276.62L206.37 277.03L206.58 277.36L206.74 278.02L206.63 278.53L206.43 278.99L205.95 279.29L205.32 279.43L204.86 279.73L204.66 280.02L204.35 280.55L204.18 280.86L204.04 281.25L204.03 281.64L204.13 282.05L204.32 282.46L204.62 282.78L204.97 283.09L205.33 283.3L205.87 283.48L206.51 283.54L206.94 283.6L207.26 283.92L207.55 284.43L207.81 284.79L208.03 285.14L208.41 285.98L208.64 286.71L208.76 287.27L208.9 287.72L209.07 288.11L209.34 288.49L209.57 288.77L209.77 289.36L209.66 290.12L209.55 290.76L209.48 291.19L209.62 291.7L210.01 292.3L210.55 292.93L210.88 293.49L211.13 294.14L211.32 294.92L211.46 295.54L211.74 296.22L211.95 296.77L212.02 297.15L212.14 297.81L212.29 298.37L212.49 298.96L212.72 299.46L213.02 299.98L213.16 300.34L213.26 300.78L213.36 301.47L213.92 302.36L214.11 302.72L214.39 303.43L214.53 304.07L214.56 304.53L214.55 305L214.53 305.4L214.5 305.78L213.91 305.94L213.57 306.23L213.53 306.64L213.93 307.41L214.06 307.87L213.99 308.58L214.03 309.05L214.08 309.55L214.09 309.91L214.12 310.33L214.35 311.03L214.61 311.43L215.31 311.88L215.71 312.27L216.12 312.65L216.48 312.94L217.1 313.35L217.47 313.69L217.89 314.1L218.37 314.36L218.85 314.36L219.37 314.17L220.09 313.75L220.64 313.53L221 313.33L221.89 312.53L222.46 313.23L222.27 313.67L222.65 314.66L222.88 314.94L223.44 315.83L224.18 317.76L224.69 318.81L224.83 319.24L225.17 320.72L225.4 321.25L225.57 321.87L225.95 323.98L226.15 324.6L226.5 325.32L227.19 326.48L227.67 327.64L228.15 329.07L229 331.28L229.5 333L229.59 333.82L229.66 335.2L229.93 336.69L230.6 338.9L230.72 339.62L231.01 340.81L231.48 342.2L231.56 342.7L231.81 343.26L231.95 344.02L232.24 345.51L233.02 347.78L233.46 349.73L234.53 353.28L236.47 361L236.6 361.73L237.14 363.95L237.43 364.89L237.67 365.85L239.15 371.52L239.76 373.68L239.82 374.07L240.09 375.2L240.32 375.93L240.81 377.86L241.56 380.38L241.99 381.51L242.27 382.15L242.53 382.5L242.63 383.61L242.42 384.58L241.79 385.66L240.95 385.63L240.4 385.51L240.11 385.76L240.15 386.41L240.31 387.14L240.56 387.43L240.71 388.08L241.05 388.67L241.08 389.29L241.38 389.73L241.81 389.28L242.39 389.29L243.15 389.32L243.65 389.87L244.08 391.39L244.44 392.91L245.01 392.91L246.05 392.97L246.83 393.19L247.7 393.68L248.7 393.73L250.04 393.73L250.5 393.78L251.42 393.81L251.83 393.59L252.16 392.76L252.72 391.76L253.82 390.89L254.65 390.76L255.77 390.77L256.7 390.99L256.89 391.63L257.17 391.85L258.26 391.59L260.5 391.15L262.13 390.86L262.84 390.55L263.99 389.87L264.75 389.24L264.92 388.73L264.58 388.25L263.92 388.06L262.13 387.55L261.15 387.22L260.17 386.89L258.3 386.31L258.76 385.55L260.05 385.69L261.46 386.23L262.21 385.98L262.98 384.89L263.9 384.14L264.83 383.32L265.77 382.84L266.97 383.19L267.71 382.87L268.47 382.75L269.31 382.91L270.39 383.62L271.46 384.18L272.99 384.3L274.04 384.52L275.64 385.75L277.14 386.57L278.35 387.12L279.3 387.98L281.03 387.94L282.37 388.28L282.92 388.25L283.81 388.06L285.22 387.35L286.69 387.47L287.62 387.98L288.38 388L293.02 392.28L293.43 392.66L288.71 396.21L288.04 397.78L286.52 402.61L286.51 404.84L286.61 408.88L286.29 411.35L286.23 411.76L286.17 414.27L285.38 416.83L282.84 422.31L282 423.82L280.43 426.32L279.73 426.88L278.15 427.34L277.67 428.1L276.64 428.21L274.95 427.84L274.36 427.35L273.83 427.23L272.88 426.92L271.82 426.61L270.42 425.75L269.22 424.83L267.5 423.34L266.35 422.71L265.81 422.81L265.21 423.26L264.66 423.37L264.34 423.73L264.24 424.51L264.5 425.33L265.37 426.11L266.82 426.49L267.84 426.95L268.7 428.31L269.35 428.8L270.36 429.21L271.28 429.94L272.16 430.78L273.27 431.86L274.23 432.33L274.97 432.49L275.55 432.77L275.63 433.19L275.66 433.81L276.76 434.84L278.06 434.82L279 434.87L279.48 435.99L279.14 436.38L278.64 436.77L279.14 437.32L279.82 437.33L280.41 437.66L280.69 438.12L280.53 438.81L280.95 438.94L281.31 438.86L281.93 438.83L281.47 438.12L281.16 437.2L280.79 436.23L282.12 434.11L284.76 433.9L286.14 434.4L286.81 434.36L287.99 433.98L288.92 433.03L289.94 432.71L291.28 432.58L292.75 432.81L293.71 433.28L294.12 434.09L294.55 435.26L295.39 436.31L296.43 436.3L297.73 435.34L298.61 434.45L300.06 434.37L302.17 434.87L302.93 434.62L304.71 434.88L306.15 435.48L306.82 435.44L308.08 435.62L308.72 435.85L309.05 435.36L309.82 435.21L310.61 435.37L311.27 435.91L311.76 436.3L312.11 436.39L312.76 436.55L313.19 436.74L313.78 437.23L314.5 437.97L315.5 438.17L316.33 438.07L316.96 438.24L317.49 438.47L317.96 438.5L318.73 439.24L319.4 440.03L319.88 440.16L320.45 440.18L321.1 440.72L321.61 441.47L323.22 441.48L323.81 440.77L323.84 438.57L324.43 438.07L325.31 438.02L326.43 437.53L327.32 436.91L328.54 436.31L329.74 436.4L330.84 436.7L331.78 437.53L333.91 439.45L335.68 442.17L336.41 443.07L337.22 443.7L337.73 444.45L338.45 446.14L339.46 446.5L340.41 446.7L341.18 447.49L342.24 447.9L342.8 448.5L343.2 450.15L343.35 450.97L343.44 452.48L343.48 454.05L343.63 455.71L344.11 456.94L345.33 459.22L345.88 460.65L345.47 461.67L345.16 462.47L345.75 462.91L347.07 463.2L347.94 462.99L348.84 462.41L349.96 461.93L351.01 461.24L351.38 460.54L352.96 459.98L353.79 459.98L354.72 459.93L355.38 459.63L355.85 459.6L356.52 459.51L357.14 459.47L357.74 459.91L358.25 459.93L360.18 459.92L361.25 459.65L361.8 459.26L362.64 459.42L363.28 459.74L363.67 460.14L364.73 460.55L365.88 460.64L365.65 459.35L364.42 458.69L363.54 457.95L363.54 457.01L363.91 456.21L364.58 456.06L365.64 456.47L366.57 457.31L367.82 458.17L368.52 457.72L369.23 458.41L369.51 458.76L369.6 459.38L370.24 459.71L370.63 460.1L372.5 462.03L373.76 463.16L374.34 464.17L375.09 465.25L375.85 466.05L376.36 466.62L377.9 469.48L378.07 470.31L379.14 472.35L379.66 473.22L380.71 473.97L382.47 474.49L384.2 474.75L390.07 475.65L393.76 475.33L395.78 473.31L396.19 468.52L396.94 467.24L397.83 467.14L405.36 466.28L407.87 465.01L408.64 464.26L409.27 460.19L415.22 455.41L421.5 453.44L423.2 453.65L423.74 453.71L424.35 455.07L425.15 454.94L426.05 454.82L427.07 454.8L428.04 454.68L428.94 454.4L430.21 453.96L431.34 453.37L432.19 452.91L433.41 452.38L434.33 451.92L435.05 451.45L435.37 450.85L435.46 450.18L435.65 448.62L435.58 447.76L435.26 446.6L434.8 445.11L433.99 443.39L433.73 442.34L433.64 440.99L433.69 439.65L434.06 436.76L434.43 434.72L435.12 432.86L435.9 431.17L436.8 429.59L437.5 428.49L438.12 427.91L438.72 427.58L439.34 427.31L440.06 427.17L441.14 427.1L443.18 427.1L444.07 426.87L445.27 426.29L446.4 425.36L447.26 424.15L447.49 423.08L447.61 421.71L447.34 419.83L446.55 417.46L445.81 416.39L444.63 415.22L443.87 414.64L442.97 413.99L442.46 413.69L442.02 413.22L441.49 412.6L441.01 411.76L440.54 410.62L440.04 409.09L440.04 408.71L440.25 406.92L440.53 405.32L440.96 404.13L441.82 403.06L443.46 401.58L444.13 400.75L444.8 399.77L444.96 398.47L445.15 397.63L445.05 396.05L445.1 395.14L445.08 394.19L445.1 393.36L444.96 392.61L444.71 390.84L444.44 390L443.83 388.05L443.73 387.65L443.48 386.73L443.35 386L443.23 385.42L443.28 384.82L443.53 384.45L444.45 383.91L445.43 383.4L446.12 382.92L446.44 382.75L446.99 382.52L448.56 381.46L449.26 381.08L450.1 381.06L451.34 381.29L451.98 381.06L452.22 380.5L452.22 379.92L451.98 379.32L451.28 377.92L450.24 376.07L449.47 374.31L448.7 373.38L447.77 372.47L446.46 371.92L445.85 371.82L444.68 371.92L444.17 371.89L443.61 371.58L443.1 371.21L442.1 370.17L441.06 369.35L440.55 369.08L439.48 368.2L438.64 367.28L438.44 366.54L438.41 366.03L438.68 365.49L438.92 364.85L438.88 364.28L438.45 363.09L437.64 361.91L436.27 360.12L435.26 359.21L434.79 358.75L433.82 357.84L433.32 357.23L433.12 356.66L433.15 356.04L433.62 355.64L434.16 355.51L434.73 355.44L436.04 355.82L437.08 355.85L438.22 355.34L439.46 354.53L440.04 354.09L440.59 353.91L441.15 353.73L442.55 353.12L443.18 352.66L443.52 352.02L443.95 350.87L444.29 349.18L444.86 348.06L446.12 346.15L447.5 344.28L447.69 343.67L447.55 343.16L447.45 342.52L447.59 341.81L448.02 341.34L450.27 339.89L451.99 338.69L452.91 339.46L454.17 340.18L455.14 341.01L456.23 342.78L457.34 344.48L458.28 346.41L459.32 349.05L460.66 353.02L461.3 354.34L461.71 354.82L462.67 355.5L463.81 356L465.12 356.57L466.44 356.98L470.2 358.52L472.69 359.2L473.33 359.34L475.79 359.9L477.67 360.78L478.62 361.2L479.57 361.61L481.25 362.44L481.83 362.89L482.17 363.34L484.37 364.89L488.25 367.51L489.09 368.54L489.84 369.8L490.31 371.07L490.9 372.4L491.22 374.26L491.64 376.57L491.79 377.78L492.55 380.28L494.73 382.52L495.3 383.04L495.77 383.31L496.33 383.55L496.98 383.86L497.49 384.02L498.27 384.21L499.22 384.42L501.77 384.73L503.52 384.98L506.04 385.44L507.02 385.59L508.09 385.78L509.63 385.96L510.1 386.04L510.62 386.19L511.26 386.57L511.58 386.75L512.2 387.29L512.57 387.71L512.87 388.01L513.36 388.57L513.86 389.07L514.39 389.51L515.2 390.44L515.51 390.81L515.72 391.15L515.95 391.55L516.28 392.12L516.56 393L516.73 393.54L516.84 393.97L516.94 394.62L516.98 395.54L517.02 396.51L517.04 397.32L517.07 398.1L517.23 398.82L517.5 399.97L517.72 400.53L517.78 401.01L517.77 401.41L517.58 401.94L517.4 402.58L517.44 402.97L517.55 403.36L517.64 403.86L517.8 404.18L518.28 404.95L518.69 405.27L519.31 405.62L519.91 405.88L520.36 406L520.94 406.09L522.56 406.21L523.29 406.15L523.67 406.21L524.42 406.27L524.94 406.34L525.46 406.42L525.94 406.46L526.29 406.55L526.69 406.82L526.91 407.22L526.98 407.7L526.96 408.2L526.77 408.8L526.51 409.38L526.08 409.78L525.61 410.23L525.1 410.51L524.6 410.67L524.07 410.86L522.25 411.49L521.52 411.95L521.17 412.69L522.18 414.5L522.57 415.07L523.11 415.72L523.34 416L523.75 416.34L524.17 416.67L524.47 416.86L524.86 417.1L525.64 417.51L526.31 417.81L526.86 418.02L527.41 418.34L528.06 418.6L528.7 418.92L529.49 419.33L529.77 419.65L530.21 420.06L530.6 420.51L530.75 421.05L530.85 421.47L530.88 421.88L530.88 422.4L530.85 422.87L530.68 423.54L530.6 424.53L530.54 425.56L530.54 426.1L530.68 427.02L530.64 427.64L530.54 428.38L530.45 428.83L530.49 429.39L530.86 430.01L531.16 430.53L531.56 431L531.97 431.52L532.76 432.34L533.31 432.79L533.89 433L534.55 433.1L535.07 433.36L535.47 433.69L535.83 434.22L536.09 434.76L536.35 435.19L536.8 435.9L537.01 436.31L537.36 436.89L537.53 437.21L537.69 437.58L537.52 438.37L536.67 439.53L535.44 439.99L534.66 439.8L533.55 439.4L532.3 438.55L531.05 437.78L530.43 437.74L530.16 438.1L530.11 439.18L530.12 440.35L530.39 441.82L530.65 443.17L531.37 443.89L531.95 444.2L532.35 444.34L532.84 443.8L533.42 443.12L534.09 443.04L535.07 443.26L535.91 443.98L536.63 444.56L537.16 445.33L537.92 446.4L538.73 447.12L539.79 447.84L541.13 448.69L541.98 449.27L543.05 449.81L544.08 449.99L544.43 450.44L544.88 450.97L545.28 451.69L545.28 452.82L544.92 453.22L544.83 453.8L544.03 454.7L543.41 455.37L543.23 455.82L543.45 456.81L544.17 457.66L544.88 458.16L545.5 457.84L546.02 457.38L546.28 456.97L546.68 456.48L547.31 455.72L548.29 455.13L548.87 455.13L549.27 455.23L549.76 455.36L550.47 455.81L550.96 456.3L551.32 456.84L551.55 457.42L551.19 457.82L550.96 458.72L551.05 459.84L551.1 460.65L551.1 461.23L550.83 461.63L550.29 461.95L549.67 462.35L548.56 462.49L548.07 462.62L548.07 463.07L548.34 463.65L548.78 464.15L548.96 464.91L549.36 465.67L549.67 466.21L549.81 466.75L549.36 467.56L548.77 468.06L547.93 468.96L546.65 470.35L546.03 471.45L545.67 472.5L546.03 473.65L546.72 474.39L547.43 474.59L548.42 474.86L548.97 475.42L549.15 475.86L549.04 476.53L548.77 477.02L548.6 477.36L548.45 477.79L548.43 478.2L548.41 478.61L548.53 479.06L548.79 479.83L548.9 480.18L549.11 480.52L549.43 480.76L549.97 480.63L550.35 480.56L550.71 480.54L551.16 480.67L551.63 480.95L551.95 481.19L552.23 481.51L552.64 482.18L552.64 482.55L552.66 483.3L552.58 483.81L552.51 484.19L552.68 484.81L552.86 485.24L553.15 485.75L553.32 486.23L553.39 487.02L553.45 487.38L553.58 487.81L554.03 488.35L554.42 488.63L554.78 488.56L555.07 488.31L555.14 487.92L555.05 487.25L555.23 486.65L555.46 486.31L555.76 486.01L556.08 485.77L556.44 485.56L557.15 485.49L557.51 485.45L557.96 485.45L558.68 485.34L559.23 485.26L559.83 485.02L560.33 484.85L560.77 484.2L560.96 483.58L561.17 482.85L561.32 482.46L561.77 481.86L562.28 481.28L562.99 481.22L563.52 481.32L563.95 481.43L564.65 481.6L565.05 481.73L565.44 481.81L566.08 481.81L566.42 481.45L566.83 480.89L567.3 480.4L567.77 480.27L568.21 480.18L568.73 480.4L569.28 480.65L570.1 481.15L570.6 481.34Z" vector-effect="non-scaling-stroke"/>
    </g>
    <g id="district-south-goa" class="district-region" data-district="South Goa" data-slug="south-goa" data-code="586" data-lgd-code="552" data-boundary-year="2011_c" data-geometry-type="Polygon" data-feature-id="IN-REGION-30-DISTRICT-586" tabindex="0" role="link" aria-label="Select South Goa district">
      <path d="M462.67 355.5L461.71 354.82L461.3 354.34L460.66 353.02L459.32 349.05L458.28 346.41L457.34 344.48L456.23 342.78L455.28 341.23L454.17 340.18L452.91 339.46L451.99 338.69L450.27 339.89L448.02 341.34L447.59 341.81L447.45 342.52L447.55 343.16L447.69 343.67L447.5 344.28L446.12 346.15L444.86 348.06L444.29 349.18L443.95 350.87L443.52 352.02L443.18 352.66L442.55 353.12L441.15 353.73L440.59 353.91L440.04 354.09L439.46 354.53L438.22 355.34L437.08 355.85L436.04 355.82L434.73 355.44L434.16 355.51L433.62 355.64L433.15 356.04L433.12 356.66L433.32 357.23L433.82 357.84L434.79 358.75L435.26 359.21L436.02 359.92L437.64 361.91L438.45 363.09L438.88 364.28L438.92 364.85L438.68 365.49L438.41 366.03L438.44 366.54L438.64 367.28L439.48 368.2L440.55 369.08L441.06 369.35L442.1 370.17L443.1 371.21L443.61 371.58L444.17 371.89L444.68 371.92L445.85 371.82L446.46 371.92L447.77 372.47L448.7 373.38L449.47 374.31L450.24 376.07L451.28 377.92L451.98 379.32L452.22 379.92L452.22 380.5L451.98 381.06L451.34 381.29L450.1 381.06L449.26 381.08L448.56 381.46L446.99 382.52L446.44 382.75L446.12 382.92L445.43 383.4L444.45 383.91L443.53 384.45L443.28 384.82L443.23 385.42L443.35 386L443.48 386.73L443.73 387.65L443.83 388.05L444.44 390L444.71 390.84L444.96 392.61L445.1 393.36L445.08 394.19L445.1 395.14L445.05 396.05L445.15 397.63L444.96 398.47L444.8 399.7L444.13 400.75L443.46 401.58L441.82 403.06L440.96 404.13L440.53 405.32L440.25 406.92L440.04 408.53L440.04 409.09L440.54 410.62L441.01 411.76L441.49 412.6L442.02 413.22L442.46 413.69L442.97 413.99L443.87 414.64L444.63 415.22L445.81 416.39L446.55 417.46L447.34 419.83L447.61 421.71L447.49 423.08L447.26 424.15L446.4 425.36L445.27 426.29L444.07 426.87L443.18 427.1L441.14 427.1L440.06 427.17L439.34 427.31L438.72 427.58L438.12 427.91L437.5 428.49L436.8 429.59L435.9 431.17L435.12 432.86L434.43 434.72L434.06 436.76L433.69 439.65L433.64 440.99L433.73 442.34L433.99 443.39L434.8 445.11L435.26 446.6L435.58 447.76L435.65 448.62L435.46 450.18L435.37 450.85L435.05 451.45L434.33 451.92L433.41 452.38L432.19 452.91L431.34 453.37L430.21 453.96L428.94 454.4L428.04 454.68L427.07 454.8L426.05 454.82L425.15 454.94L424.35 455.07L424.93 456.37L424.47 459.8L419.41 465.85L414.75 469.12L413.68 470.14L413.29 477.23L415.04 479.02L417.3 480.29L426.82 483.29L428.83 483.92L428.57 485.66L418.37 488.03L413.73 487.87L411.97 488.12L410.16 489.31L408.95 490.11L407.25 490.31L402.67 490.84L399.67 490.31L397.44 488.53L393.43 485.48L392.76 485.3L392.79 485.82L393.17 486.67L393.18 487.58L392.89 489.01L393.16 490.24L392.72 490.39L391.81 490.4L391.25 490.64L390.46 491.23L388.95 491.44L386.83 491.23L385.86 490.87L384.82 490.68L383.84 489.99L383.14 489.29L382.11 488.6L380.76 488.14L379.53 487.46L377.69 485.66L377.11 485.61L376.75 485.76L376.17 486.37L375.56 487.2L375.02 487.85L373.81 488.29L372.79 488.48L372.49 489.03L372.45 490.44L372.37 491.98L371.99 492.63L371.17 493.42L369.76 494L368.99 494.88L367.9 495.93L367.35 496.55L366.14 496.99L365.17 497.3L363.34 497.78L361.76 498.24L358.4 499.31L357.42 499.4L355.76 499.25L354.56 498.41L353.97 496.7L353.56 494.53L352.39 493.6L350.46 493.09L349.05 492.8L348.4 493.09L347.46 493.14L346.43 493.2L345.7 493.45L345.48 493.73L345.09 494.23L343.99 494.38L342.6 496.04L341.47 497.22L340.89 497.96L340.06 497.01L339.45 495.76L338.14 494.51L336.05 494.05L333.99 494.05L332.39 494.18L331.48 494.78L331.07 495.59L330.98 496.17L330.52 496.74L329.28 496.69L328.79 496.72L328.65 497.14L327.84 497.39L327.44 496.96L326.8 496.5L325.39 495.67L324.53 494.43L324.02 493.43L324.09 492.43L325.08 491.83L325.75 490.47L325.89 489.34L325.4 487.96L325.33 486.8L324.75 486.09L323.41 485L323.14 485.27L322.59 484.97L322.4 484.56L322.12 483.96L321.1 483.56L319.46 483.62L318.26 484.27L315.93 484.57L314.99 484.71L314.52 485.19L314.39 485.7L313.45 488.07L313.1 488.51L312.14 488.94L311.71 489.34L310.89 488.76L309.91 488.16L309.08 487.41L308.43 487.54L307.91 487.86L307.63 488.7L308.06 489.59L308.48 490.44L308.47 491.68L307.07 491.85L305.68 491.93L303.86 491.16L303.56 491.76L302.09 491.22L302.06 490.73L302.34 489.05L302.81 487.28L302.49 485.98L301.45 485.08L300.19 483.99L299.09 483.56L297.5 483.16L296.12 483.53L295.05 484.17L295.09 484.92L295.37 485.52L295.87 486.2L296.15 486.84L295.76 487.86L295.64 489.45L295.67 490.56L294.94 491.6L293.4 492.77L291.46 494.09L289.37 495.04L286.99 495.92L285.56 496.17L284.75 496.06L284.31 496L283.95 496.19L283.5 496.21L283.08 495.37L283.01 494.87L282.74 494.43L282.77 493.56L282.9 492.89L283.29 492.62L283.48 492.27L282.89 492.1L282.7 491.66L282.42 490.26L281.77 489.1L281.08 488.47L280.2 487.61L278.09 486.78L276.53 486.21L275.96 485.62L274.44 481.36L272.02 479.23L270.96 478.88L269.02 478.72L266.85 478.72L266.03 479.82L265.55 479.89L264.95 479.93L263.84 479.5L263.1 479.18L261.91 479.34L261.15 479.54L260.36 479.71L260.14 480.05L259.86 480.83L259.58 481.41L259.19 482.45L259.49 483.36L260.04 485.27L261.02 486.26L262.6 487.1L263.35 487.7L263.51 488.21L263.42 488.91L263.35 489.64L263.52 490.6L264 491.26L264.23 491.73L265.23 493.04L266.1 494.13L267.29 494.62L268.27 494.85L267.13 496.77L266.63 497.81L266.74 498.98L267.16 500.01L267.83 501.1L268.34 501.67L269.15 501.71L269.91 501.74L270.89 501.97L271.78 502.16L272.45 501.15L273.13 501.11L274.46 501.11L276.03 501.22L277.48 501.38L279.12 501.28L280.43 500.88L280.99 500.2L281.59 500.17L281.96 500.39L282.37 500.49L282.96 500.9L284.04 502.21L284.72 503.66L285.44 506.33L285.75 508.86L285.81 509.3L286.09 510.62L286.14 512.19L285.86 515.64L285.89 516.93L286.13 517.52L285.59 517.96L285.3 519.11L285.44 519.58L285.84 520.09L286.45 520.98L287.07 521.27L288.55 521.14L289.76 520.66L291.02 520.91L292.64 521.75L293.44 522.39L294.07 523.56L294.6 524.46L295.75 524.8L297.55 524.7L300 524.83L300.47 525.17L300.8 526.16L301.46 527.17L302 527.42L302.66 527.63L303.81 528.02L307.12 529.15L309.43 529.5L309.95 528.7L310.45 527.66L311.45 527.6L312.11 527.88L313.51 528.57L315.32 530.04L315.38 531.09L315.71 532.64L316.45 533.57L317.15 534.5L317.26 535.71L317.55 536.66L318.71 537.24L320.04 538.01L321.49 538.77L322.63 539.8L323.64 539.86L329.9 539.17L331.83 539.18L333.34 538.85L333.95 538.25L333.87 537.56L333.48 537.06L333.44 536.5L333.84 536.39L333.86 536.03L333.65 535.19L333.89 534.45L334.65 533.76L335.32 533.52L336.02 533.04L336.82 533.07L338.38 533.02L340.26 532.91L342.11 532.8L344.16 532.97L344.79 532.73L344.85 532.36L345.26 531.69L345.43 531.2L344.85 530.91L344.29 530.29L344.24 529.45L343.18 529.18L342.2 528.84L343.53 528.92L344.46 528.99L345.13 528.87L345.81 529.43L346.55 529.03L347.82 528.83L348.98 528.81L350.15 528.82L351.11 528.76L351.61 528.41L352.19 527.97L352.75 527.98L353.46 528.34L353.93 527.59L354.29 527.57L355.93 528.16L357.01 528.74L357.57 528.67L357.91 528.97L357.83 529.66L358.01 530.36L358.64 531.12L359.62 531.87L360.98 533.98L361.66 534.6L362.74 535.63L363.21 536.33L365.34 540.65L366.54 542.55L368.49 546.3L372.71 555.39L376.85 565.65L377.98 567.7L378.66 569.55L380.02 571.73L380.55 573.38L380.54 574.4L380.74 575.41L382.34 579.33L382.77 580.73L383.94 584.48L384.56 585.32L385.39 587.02L386.08 590.26L386.76 592.05L387.33 593.11L387.97 594.24L389.57 600.63L389.83 602.58L391.18 606L392.93 611.22L394.48 615.65L394.57 617.18L394.6 617.68L394.86 618.47L395.39 620.19L395.42 620.56L395.48 621.71L395.84 623.01L396.87 625.72L397.79 629.23L397.97 631.12L398.9 633.39L399.25 634.47L400.02 635.23L400.15 636.24L400.44 637.46L400.68 637.96L401.31 638.72L401.8 639.86L402.18 641.44L402.15 642.17L402.54 642.58L402.94 643.22L402.97 643.87L403.02 644.6L403.36 645.45L403.69 646.23L404.03 647.09L404.37 649.33L404.62 649.9L405.12 651.03L405.57 652.61L405.78 653.62L405.88 654.2L405.98 654.7L406.03 655.5L405.84 656.09L406.51 657.58L406.83 659.31L407.52 660.15L408.16 661.13L408.1 662.1L408.82 665.44L409.68 668.34L409.5 668.84L409.75 670.49L411.77 676.76L412.37 678.93L413.14 682.06L413.71 683.64L414.46 683.75L415.18 685.16L414.82 686.31L414.69 686.8L414.66 687.23L415.2 689.24L415.47 690.14L416.03 690.75L416.32 692.02L416.87 692.32L417.34 693.95L417.7 695.65L417.66 696.84L417.84 698.06L418.84 702.57L419.26 703.35L419.73 706.06L420.21 706.84L420.32 707.91L421 710.55L421.82 712.71L422.81 718.88L424.07 724.07L424.63 726.34L425.55 730.32L425.76 731.22L426.53 731.61L426.16 732.7L426.44 733.76L427.81 738.14L428.83 742L429.6 744.32L430.11 747.77L431.34 752.49L431.55 753.28L432.93 758.78L433.92 763.12L434.47 765.24L436.41 772.16L436.84 774.07L437.58 776.82L437.98 779.1L438.49 780.58L439.1 780.97L438.75 782.59L438.51 783.74L437.11 783.5L436.22 783.87L435.67 783.58L435.13 783.4L434.54 784.35L434.24 784.69L433.72 784.82L433.25 785.06L433.88 785.78L434.11 786.14L434.14 786.68L433.74 787.08L433.12 787.38L433.06 788.24L432.51 788.97L432.17 789.48L431.55 789.83L431.18 790.82L430.04 791.42L428.49 792.26L427.29 792.81L426.12 792.83L425.1 792.73L424.38 793.2L424.16 794.07L425.03 794.39L425.97 794.98L425.83 796.17L425.85 796.66L426.88 796.86L427.58 797.04L428.2 797.49L428.64 797.84L429.05 799.42L429.31 800.27L429.4 800.9L428.92 801.74L428.67 802.13L428.3 802.2L428.77 802.93L429.13 803.61L429.16 804.14L428.86 804.48L429.01 805.17L429.48 805.95L429.54 807.02L429.76 808.08L429.45 809.17L429.27 809.77L428.47 809.81L427.79 810.07L426.56 810.03L425.93 810.18L425.51 811.22L425.31 812.3L425.03 814.09L424.47 815.36L424.33 815.74L424.36 816.28L423.95 816.62L423.82 817.17L423.74 817.55L423.24 817.25L422.79 816.85L422.4 816.55L422.22 816.24L421.85 816.15L421.52 816.01L421.23 815.65L420.09 816.15L419.21 816.68L417.95 817.13L416.48 817.54L415.41 818.4L414.25 819.49L413.47 819.91L412.83 819.89L412.29 819.71L411.71 819.85L411.36 820.19L410.71 820.12L409.9 820.76L409.43 821.06L407.22 821.51L406.05 821.57L405.26 821.83L404.96 822.07L405.34 822.31L406.46 822.25L407.89 822.11L409.22 822.03L409.51 822.45L409.59 822.82L409.31 823.53L409.4 824.17L410.58 824.42L412.09 824.66L412.58 824.74L412.71 826.18L413.07 826.91L413.15 827.39L412.95 828.47L413.09 829.06L413.51 829.94L413.91 831.26L414.16 831.94L413.95 832.98L414.05 833.72L414.5 834.13L414.63 834.55L413.96 834.91L412.09 835.93L411.41 837.09L411.12 838.56L411.18 839.47L411.04 839.91L410.51 839.94L409.62 840.26L409.11 840.55L409.09 841.2L408.87 842.02L408.39 841.99L407.8 841.92L406.83 841.87L405.26 842.39L403.34 843.19L402.91 844.18L402.7 846.07L401.86 846.34L401.02 846.44L400.21 846.38L399.53 846.58L398.9 846.78L398.6 847.12L398.79 847.64L399.59 847.7L400.23 847.67L400.97 847.52L401.5 847.43L401.86 847.2L402.38 847.06L402.91 847.03L403.05 847.45L403.33 847.81L403.81 847.78L403.98 848.85L404.63 849.08L404.82 848.69L405.58 848L406.99 847.49L407.87 846.9L408.52 846.28L409.03 845.87L409.45 845.63L409.91 845.28L410.26 845.8L411.07 845.97L411.88 846.19L412.63 846.31L413.1 846.17L413.76 846.46L414.17 847.08L414.69 847.8L415.6 847.91L416.66 847.84L416.96 848.26L417.88 848.63L418.62 848.54L419.12 848.78L418.86 850.72L418.78 852.28L419.11 853.28L419.92 854.47L421.06 854.73L423.77 854.73L425.07 854.98L425.79 855.42L426.27 856.46L428.56 858.21L430.26 859.08L431.39 859.23L433.35 858.95L435.79 858.76L437.5 858.87L439.42 859.84L440.94 860.29L442.44 860.36L443.71 860.24L444.53 860.56L444.63 861.47L444.24 862.14L443.71 863.02L443.78 863.4L444.43 863.57L445.49 863.51L446.29 863.47L447.49 863.83L448.6 864.62L448.95 865.24L449.19 865.77L449.68 865.9L450.59 865.85L451.5 865.96L451.73 866.37L452.07 866.62L452.26 867.25L452.64 867.34L453.12 867.37L453.25 867.73L453.17 868.11L453.35 868.48L454.05 868.71L455.26 868.42L456.48 868.25L457.3 868.52L457.92 869.24L458.21 870.56L457.73 871.45L457.33 872.06L457.84 872.51L459.14 872.87L460.12 874.1L460.83 875.34L461.32 877.41L462.4 879.6L462.74 880.87L462.88 882.36L462.62 883.4L462.71 884.09L463.16 884.49L463.97 884.71L464.79 885.04L465.15 885.77L465.86 886.16L466.49 885.96L467.1 885.45L467.59 884.56L468.94 884.05L470.19 883.55L471.29 883.06L471.51 882.24L471.47 881.55L471.06 880.93L471.02 880.23L471.27 879.9L471.74 879.81L472.4 880.1L473.2 881.18L473.89 881.5L474.06 882.15L473.48 882.34L473.5 882.72L473.8 883.18L473.67 883.78L474.36 884.71L475.39 885.83L477.04 889.6L478.79 894.16L479.87 897.16L481.23 900.51L482.06 902.93L482.86 904.82L483 906.36L482.81 907.82L482.44 908.65L481.81 908.85L481.14 909.26L480.46 909.51L479.87 909.55L479.2 909.85L478.3 909.9L478 910.3L478.18 910.72L478.74 911.11L479.28 911.35L479.78 911.7L479.86 912.07L479.51 912.46L478.92 912.44L478.45 912.58L478.09 912.92L477.69 913.37L477.71 913.75L478.15 913.99L478.79 913.9L479.21 913.77L479.52 913.59L479.94 913.51L480.38 913.7L480.84 914.37L481.45 915.73L481.73 916.84L481.56 918.57L481.19 919.55L481.59 920.12L482.08 920.25L482.84 920.48L483.46 921.03L484.26 922.06L485.03 922.5L485.79 922.67L486.46 922.31L487.83 921.16L488.42 920.32L488.6 919.61L488.66 918.86L489.82 918.63L490.47 918.7L491.1 919.63L491.36 920.47L491.88 921.14L492.75 921.93L493.22 922.04L493.58 921.93L493.73 921.42L493.66 920.96L494.02 920.85L494.56 920.77L495 921.11L495.49 921.78L495.98 922.35L496.11 923.03L496.1 923.68L496.18 924.18L496.47 924.44L496.97 924.55L497.75 924.5L498.47 924.32L498.77 923.89L499.34 923.44L500.16 923.4L500.71 923.46L500.8 924.24L501.12 925L501.53 925.85L502.51 926.21L503.88 926.91L505.55 928.06L506.59 928.69L506.81 929.42L506.86 930.34L506.89 930.84L507.51 931.22L508.29 931.27L508.63 930.83L509.25 930.38L509.84 930.3L510.09 929.97L510.15 929.41L511.49 928.78L514.03 929.19L516.55 930.06L518.35 931.15L519.89 932.54L520.85 933.31L521.92 934.49L522.6 936.02L522.96 936.69L522.31 937.19L522.19 937.52L522.84 937.8L522.79 938.45L522.26 938.85L521.77 939.02L521.14 939.28L520.27 939.33L519.68 939.36L519.38 939.7L519.58 940.06L520.14 940.17L520.49 939.96L521.09 939.98L521.15 940.34L521.13 940.76L521.61 940.31L522.05 940.01L522.36 939.77L522.8 939.55L523.17 939.53L523.56 940.06L524.17 940.31L524.67 940.19L525.09 940.44L525.17 940.94L525.33 941.3L525.89 941.54L526.05 941.94L525.28 942.96L524.14 943.91L523.64 944.33L523.76 944.81L524.57 944.5L525.01 943.72L526.12 943.18L527.17 943.07L528.45 943.17L529.05 943.72L529.84 944.6L531.2 946.06L531.57 947.28L532.07 948.35L531.91 949.29L531.89 949.73L532.33 949.8L532.72 949.69L532.79 950.12L532.65 950.88L533.83 953.07L534.68 954.92L535.03 955.69L535.5 958.62L535.59 959.41L535.96 959.79L535.21 960.45L534.23 960.15L533.28 960.43L532.11 960.71L531.61 961.27L532.29 961.67L533.75 961.85L535.43 962.11L536.54 962.23L537.18 962.67L539.35 967.72L540.73 972.05L540.49 972.55L540.02 972.71L540.09 973.1L540.85 973.45L541.45 973.86L543.49 978.95L544.48 981.77L544.82 982.45L546 985.48L546.72 987.33L547.36 988.58L547.38 989.68L547.16 990.57L546.68 991.39L546.57 992.42L546.22 993.32L545.37 993.81L545.06 994.44L545.2 995.36L544.9 996.4L544.96 997.32L545.39 997.96L545.36 998.35L543.65 999.07L543.15 998.7L542.32 998.75L541.84 998.91L541.55 999.1L542.07 999.78L542.4 1000.29L542.38 1000.73L541.74 1000.94L540.4 1001.28L540.42 1001.72L541.45 1002.06L541.8 1002.79L542.29 1003.74L542.26 1004.71L541.33 1005.38L541 1005.8L541.11 1006.23L541.83 1006.41L542.43 1006.99L542.59 1009.06L542.85 1010.5L543.32 1011.18L543.58 1011.91L543.8 1013.4L543.81 1014.42L543.84 1014.99L544.27 1015.54L544.78 1016.08L544.76 1016.48L543.88 1016.49L543.33 1016.69L543.31 1017.23L543.3 1017.8L543.98 1018.25L544.37 1018.84L544.44 1019.37L544.22 1020.13L543.97 1020.45L543.55 1020.61L543.01 1020.42L542.26 1020.42L541.44 1020.68L541.09 1021.37L541.75 1022.26L542.22 1022.85L542.29 1023.2L541.62 1023.9L541.7 1024.38L542.04 1024.31L542.17 1025.01L542.02 1025.42L542.78 1025.73L542.97 1026.03L543 1026.55L542.57 1026.67L541.62 1026.9L541.02 1027.24L539.98 1027.47L539.49 1028.08L539.33 1029.06L539.57 1031.07L540.48 1032.48L540.71 1034.14L541.07 1035.13L542.52 1035.89L544.64 1036.96L545.4 1037.18L546.05 1037.1L547.83 1037.62L549.57 1038.14L550.79 1038.07L552.35 1038.38L553.83 1038.2L554.57 1038.12L555.6 1039.25L556.19 1039.66L556.92 1040.1L557.28 1040.43L557.74 1040.8L558.29 1041.96L558.78 1042.86L559.49 1043L560.36 1042.95L561.12 1043.13L561.93 1043.48L563.49 1044.05L564.15 1044.81L565.15 1045.46L565.22 1045.89L565.5 1046.14L565.52 1046.58L565.81 1046.35L566.29 1046.23L566.35 1045.78L566.59 1045.37L566.74 1044.84L566.75 1044.35L567.18 1044.19L567.84 1044.16L568.48 1043.77L568.92 1043.83L569.1 1044.7L569.19 1045.49L569.79 1046.12L570.36 1046.18L571.09 1045.83L572.32 1045.09L573.52 1044.67L574.27 1043.84L574.92 1043.71L575.67 1043.8L576.26 1043.46L576.86 1043.16L577.73 1042.98L578.38 1042.94L578.79 1043.18L579.22 1043.11L580.01 1043.03L580.4 1042.96L580.97 1042.93L581.63 1043.73L582.94 1045.33L583.71 1046.61L584.01 1047.92L584.07 1048.27L583.57 1048.73L583.39 1049.45L583.55 1049.93L583.97 1050.3L584.08 1050.74L583.59 1051.47L583.59 1052.13L584.12 1052.32L584.65 1052.38L585.22 1052.35L585.65 1052.94L585.37 1053.49L585.75 1053.95L586.83 1053.66L588.58 1051.25L590.84 1051.28L591.08 1050.87L591.65 1049.87L593.84 1046.03L595.47 1042.78L597.04 1041.72L603.09 1037.45L605 1038.86L606.51 1040.67L609.24 1039.25L610.53 1039.51L610.68 1039.08L611.82 1036.1L615.11 1035.27L616.01 1035.77L617.12 1034.58L619.02 1034.86L622.91 1036.21L624.66 1035.01L624.9 1034.59L623.66 1032.52L627.49 1026.79L628.19 1026.86L630.37 1026.96L632.05 1026.6L633.54 1026.63L639.18 1030.4L644.69 1029.13L648.55 1031.12L650.71 1033.91L659.02 1035.94L659.02 1036.88L662.47 1038.39L668.21 1041.41L669.42 1040.43L672.82 1036.59L673.05 1036.18L672.8 1034.6L672.75 1033.9L672.21 1032.9L671.85 1032.21L671.8 1031.4L671.59 1030.86L670.95 1030.19L670.89 1029.69L670.89 1029.2L670.2 1028.42L670.3 1027.49L670.25 1027.1L669.81 1025.9L669.45 1025.46L669.15 1024.63L668.04 1024.17L667.73 1023.8L667.42 1023.36L666.85 1023.08L665.82 1022.92L665.69 1022.3L665.69 1021.88L665.44 1021.55L665.05 1021.26L664.8 1020.9L664.41 1019.46L664.33 1018.02L663.69 1017.42L663.87 1016.64L663.69 1016.28L662.89 1016.05L662.87 1015.61L663.07 1015.04L662.3 1013.07L662.25 1012.46L662.3 1011.24L660.37 1010.6L660.17 1010.16L660.09 1009.64L660.75 1009.12L660.9 1008.76L661.48 1007.51L660.91 1007.2L660.24 1006.84L660.06 1006.36L660.75 1005.81L660.99 1005.4L661.01 1004.83L661.01 1004.06L661.04 1003.28L661.6 1002.73L662.71 1002.11L663.38 1001.33L663.54 1001.01L663.88 1000.4L664.33 999.98L664.57 999.57L664.54 998.89L664.54 998.47L664.07 997.49L664.75 996.84L664.99 996.43L664.41 995.51L664.8 995.21L665 994.87L665.24 994.46L665.37 994.09L665.55 993.73L665.78 993.4L665.46 992.55L666.52 993.03L666.96 993L667.22 992.71L667.46 992.3L667.64 991.8L668.6 991.54L669.07 991.16L670.02 989.73L671.67 989.63L672.49 990.07L672.91 989.84L673.57 989.68L674.55 989.99L675.66 990.61L676.53 990.65L677.31 990.32L678.41 991.17L679.42 990.19L680.32 990.14L681.12 989.61L682.07 989.67L682.94 990.16L683.64 990.16L684.54 990.71L685.21 990.89L687.14 991.33L685.95 995.1L687.58 997.35L687.42 998.31L689.3 998.63L690.07 1000.2L691.49 1000.54L691.59 1001.09L692.19 1001.58L693.42 1002.23L694.19 1002.41L696.48 1003.1L699.88 1004.79L700.4 1005.3L702.09 1007.32L703.66 1010.45L703.87 1012.29L703.58 1013.52L700.55 1017.75L700.31 1018.16L709.32 1025.57L710.99 1026.34L713.88 1023.42L714.11 1023.01L714.7 1021.25L715.66 1020.21L715.89 1019.8L716.22 1018.6L716.35 1017.77L717.46 1015.69L718.87 1013.82L719.11 1013.41L719.34 1012.45L722.97 1010.08L723.2 1009.67L722.13 1006.01L724.11 1001.81L728.27 1003.73L728.61 1003.44L730.93 1001.42L735.2 1000.46L737.36 998.7L738.8 999.43L741.51 998.65L742.72 997.14L742.9 996.8L743.84 995.03L743.52 993.56L743.45 991.91L743.52 989.75L743.84 989.05L744.17 988.32L744.35 987.7L744.5 986.53L744.58 985.68L744.94 983.43L745.87 983.49L746.28 983.38L747.08 982.89L747.49 982.43L747.67 982.08L748.27 980.97L748.96 980.38L749.7 980.07L750.45 980.72L751.14 980.41L751.59 980.51L752.41 980.98L753.08 981.6L754.03 983.21L754.88 983.44L755.91 983.75L757.14 984.3L758.02 985.44L758.56 985.93L758.94 986.03L759.56 985.77L760.67 985.88L761.21 986.55L762.49 989.1L762.77 988.66L763.54 988.18L764.4 988.27L765.18 988.44L766.12 989.04L766.35 988.63L767.6 986.37L767.29 983.53L768.47 977.83L769.07 976.39L773.14 976.78L773.27 976.36L773.65 975.45L775.33 969.53L778.78 967.32L779.02 966.91L772.39 956.73L771.87 956.06L771.56 955.8L771.05 955.66L770.05 955.4L769.45 955.16L768.94 954.77L768.17 953.99L766.93 952.61L766.25 951.8L765.84 951.09L765.64 950.59L765.57 950.03L765.64 949.68L765.9 948.92L766.41 947.75L767.31 945.35L770.3 944.14L772.93 943.01L773.58 942.75L775.15 943.17L776.18 943.04L777.14 942.85L778.89 942.47L779.37 942.19L782.83 941.07L783.07 940.66L783.02 940.22L781.82 938.73L781.52 938.3L781.35 935.4L783.95 933.12L784.14 932.75L784.98 931.17L785.83 929.89L787.57 927.39L787.93 927.1L789.26 925.98L799.4 917.01L799.55 916.67L799.86 916.11L799.47 907.73L801.35 905.42L803.99 903.36L804.33 903.05L804.56 902.64L804.72 902.19L810.36 899.6L810.71 899.38L813.53 897.24L813.76 896.83L813.7 896.49L813.36 895.34L813.25 894.06L813.07 893.64L812.65 892.52L812.5 892.11L812.25 890.4L811.73 887.93L809.89 886.91L807.02 882.96L806.74 880.9L806.48 878.05L806.56 877.56L806.89 874.23L806.22 870.43L802.51 869.17L802 869.17L800.91 869.24L800.39 869.14L799.98 868.96L796.74 865.96L796.8 864.08L796.72 863.53L796.68 862.81L796.55 861.87L796.55 861.29L796.37 859.24L796.4 852.54L795.62 844.42L794.52 842.4L790.81 835.62L790.5 835.42L788.48 834.14L788.01 833.89L789.98 827.64L791.99 825.47L798.59 823.95L798.6 823.6L799.05 816.81L800.99 815.93L801.23 815.52L800.45 802.23L800.46 800.29L800.8 798.56L800.48 794.4L801.55 790L801.29 787.46L801.26 787.07L799.82 783.12L799.86 780.79L800.69 780.69L800.75 780.3L801.44 776.62L804.66 776.17L807.97 776.77L812.63 774.17L812.88 773.8L816.44 768.3L818.93 765.58L822.33 760.34L822.53 759.98L825.64 754.54L825.96 753.98L828.67 749.22L829.4 747.92L829.81 747.2L830.22 747.05L830.8 746.56L831.48 745.99L832.26 745.31L832.7 744.77L832.93 744.37L833 744L832.86 743.27L832.93 742.76L832.92 741.75L832.87 741.13L836.01 737.92L836.24 737.52L836.17 736.97L835.92 736.56L835.96 735.18L835.87 734.58L835.48 733.88L834.92 732.81L834.4 732.23L833.7 731.71L833.41 731.43L833.16 731.08L832.81 730.76L832.45 730.6L831.95 730.4L831.65 730.17L830.96 729.18L830.47 728.42L830.27 728.08L829.49 726.7L828.77 725.16L828.66 724.31L828.31 722.77L827.63 721.63L827.44 720.99L827.36 720.45L827.27 719.24L827.04 718.33L826.86 717.2L826.95 716.65L827.24 715.65L828.28 713.4L828.39 712.96L828.48 712.58L828.4 712.17L828.15 711.9L827.76 711.76L827.3 711.69L826.97 711.05L826.33 710.01L826.07 709.74L825.62 709.62L825.24 709.49L824.49 709.3L824.16 709.17L823.75 708.7L823.6 708.23L823.64 707.84L823.75 707.33L823.75 706.89L823.37 706.48L823.13 706.21L823.21 705.56L823.48 705.1L823.21 704.65L822.83 704.61L822.44 704.48L822.16 703.51L822.27 702.87L822.76 702.01L822.81 701.67L822.81 701.2L822.66 700.83L822.43 700.5L821.44 700.42L821.02 700.15L820.86 699.64L820.4 699.18L819.93 699.06L819.55 699.16L819.2 699.57L819.01 699.92L818.05 697.92L817.4 696.91L817.34 696.29L817.68 695.69L817.91 695.3L818.2 694.67L818.28 693.87L818.33 693.5L819.06 692.37L819.29 691.97L818.55 691.45L816.66 689.48L816.21 689.18L814.32 687.78L814.06 687.39L813.77 686.93L813.25 686.26L812.91 685.96L811.38 684.77L809.85 683.32L808.85 682.15L808.37 681.37L803.19 682.49L797.18 678.63L783.65 675.71L773.87 673.3L769.91 668.77L769.28 666.04L765.98 662.15L768.39 659.09L768.63 658.7L765 653.68L775.23 652.25L775.79 651.65L776.13 651.25L776.9 650.35L777.13 649.95L779.94 642.08L782.32 638.05L784.94 633.62L785.18 633.23L786.65 628.75L791.75 626.12L797.65 629.6L803.98 625.72L810.14 625.02L810.22 624.64L811.34 619.81L813.4 620.18L825.91 626.34L838.51 626.22L839.53 624.81L845.79 625.89L850.51 621.67L856.67 613.34L856.9 612.94L856.37 612.3L854.05 609.29L843.93 596.19L835.94 574.68L836.67 569.31L836.15 567.91L838.87 562.54L840.06 560.64L840.29 560.25L841.14 558.47L839.33 553.58L836.7 545.99L835.77 542.99L834.87 540.13L835.13 537.29L840.92 532.91L842.37 531.9L842.61 531.5L841.84 531.12L840.2 530.31L832.53 526.67L828.1 524.63L826.84 523.92L826.32 523.51L825.27 522.7L819.29 518.17L818.05 517.27L817.65 516.87L816.16 515.53L803.06 514.62L799.19 514.41L796.52 511.28L791.5 504.72L792.86 496.22L793.49 492.41L794.12 488.93L793.58 488.17L792.5 486.92L791.89 485.91L791.1 483.74L790.27 480.79L789.83 480.09L785.61 477.43L783.84 473.91L784.1 471.81L785.05 466.22L786.11 464.77L787.62 462.75L790.28 459.22L792.36 456.25L792.6 455.86L790.74 454.55L792.37 452.96L793.11 449.94L791.96 447.23L791.75 445.94L791.23 442.61L791.04 440.21L790.36 438.88L788.55 435.13L787.38 432.35L785.93 429.64L783.39 425.18L782.43 423.42L781.89 422.19L781.07 420.12L780.7 419.17L779.27 415.4L778.65 414.24L776.92 411.27L775.23 408.37L772.52 403.38L768.39 397.95L764.71 392.92L764.31 393.08L763.67 392.99L763 393L762.51 393.25L761.65 393.18L761.1 393.01L760.61 393.18L760.25 393.48L759.35 394.67L758.94 395.68L758.77 396.06L758.35 396.46L757.87 396.31L757.25 396.08L755.98 396.21L754.74 396.49L754.22 396.66L753.16 397.01L752.65 397.29L751.58 397.88L750.93 398.26L750.42 398.58L750.06 398.64L749.7 398.71L748.93 398.82L747.66 399.25L746.65 399.83L745.45 400.41L744.52 400.76L743.88 401.05L743.29 401.31L742.83 401.67L742.34 402.19L742.12 402.55L742.04 403.03L742.12 403.63L742.27 404.13L742.29 404.51L742.1 404.89L741.71 404.37L741.48 403.96L741.21 403.65L740.92 403.37L740.47 403.59L740.03 403.84L739.13 404.34L738.62 404.71L737.44 405.66L736.76 406.66L736.39 407.03L736.01 407.49L735.54 408.28L734.54 409.53L734.09 410L733.42 410.71L733.11 410.89L732.69 411.1L731.73 411.58L731.09 411.88L730.59 412.08L730.17 412.18L729.29 412.18L728.63 412.24L727.92 412.58L727.22 412.84L726.66 413.01L726.11 413.23L725.63 413.36L725.27 413.46L724.76 413.86L724.64 414.39L724.16 414.54L723.76 414.49L723.37 414.45L722.88 414.6L722.48 415.18L722.11 415.7L721.52 415.81L721.15 415.72L720.68 415.64L720.33 415.82L719.55 416.21L719.13 416.43L718.65 416.58L717.46 416.86L716.76 416.88L716.2 416.97L715.49 417.11L714.98 417.48L714.34 417.89L713.4 418.64L712.84 419.05L712.14 419.37L711.33 419.76L709.76 420.31L708.97 420.87L708.58 421.95L708.11 422.59L707.26 423.43L705.89 424.03L705.21 424.31L704.33 425.3L702.85 427.75L702.19 429.35L700.55 431.37L699.16 432.37L698.14 433.25L698.06 433.83L698.15 434.18L698.38 435.15L698.28 437.69L697.88 439.26L697.69 439.99L697.18 441.15L697.35 441.8L697.6 442.74L696.66 444.25L696.22 445.01L695.85 445.66L695.25 446.35L694.64 446.67L693.86 447.08L692.01 447.68L691.16 447.94L690.51 448.26L689.8 449L688.68 450.18L688.28 450.79L687.91 451.44L687.05 453.06L686.58 453.61L683.7 452.78L681.37 452.06L679.53 451.55L678.08 451.22L677.56 451.1L677.29 450.83L677.2 450.48L677.01 450.06L676.79 449.55L676.63 449.01L676.46 448.49L676.25 448.02L676.08 447.68L675.82 447.33L675.57 447.08L675.14 447.03L674.76 447.08L674.03 447.29L673.26 447.76L671.26 448.49L670.49 448.8L670.14 448.97L669.82 449.18L668.82 448.34L667.41 448.06L666.64 448.23L665.58 449.08L665.03 449.26L663.95 449.09L663.53 449.26L663.1 449.98L662.41 450.35L661.48 450.92L660.92 450.7L660.25 450.56L659.82 450.06L659.2 449.62L659.12 449.08L658.68 448.35L657.24 448.56L657.34 449.53L656.99 450.08L656.98 450.62L656.65 451.06L655.89 451.31L654.74 451.46L654.01 451.82L653.4 452.27L652.58 452.04L651.84 451.98L650.71 451.65L649.97 451.8L648.92 451.57L647.82 451.84L646.51 452.14L644.94 452.45L643.73 452.26L642.85 451.83L642.5 452.03L642.42 452.8L641.45 454.65L641.02 454.83L639.87 455.43L639.06 455.69L638.65 455.99L638.19 456.22L637.76 456.46L637.25 456.57L636.65 456.57L636.06 456.33L635.55 455.97L634.87 455.56L634.46 455.26L633.85 455.11L633.08 455L632.01 454.81L631.22 454.68L630.73 454.22L630.05 453.75L629.53 453.39L629 453.06L628.51 453.02L627.63 453.03L627.33 453.59L626.34 454.64L625.38 455.3L623.55 456.91L622.59 458.59L622.17 459.27L621.34 460L619.92 460.09L619.5 460.28L618.08 460.91L616.32 461.52L614.88 462.73L613.14 464.21L613.14 465.42L612.44 467.76L612.48 469.84L611.92 471.99L612.21 474.17L611.65 474.26L610.46 472.11L608.51 469.09L605.7 464.95L602.33 466.42L599.82 467.71L597.01 468.93L593.23 470.34L592.77 470.5L592.04 470.9L591.35 471.1L588.83 472.1L588.46 472.21L587.93 472.36L587 472.49L586.27 472.55L585.76 472.57L585.33 472.57L584.96 472.7L584.56 472.96L584.1 473.61L583.79 474.08L583.09 475.08L582.73 475.58L580.64 476.49L580.12 476.75L579.4 477.15L578.5 477.56L578.01 477.79L577.48 478.04L576.47 478.51L575.95 478.75L574.83 479.26L573.75 479.69L573.37 479.86L572.53 480.29L572.08 480.53L571.65 480.69L571.33 480.87L571.01 481.12L570.68 481.34L570.1 481.15L569.28 480.65L568.73 480.4L568.21 480.18L567.77 480.27L567.3 480.4L567.02 480.7L566.57 481.24L566.31 481.64L565.72 481.81L565.27 481.81L564.82 481.62L564.26 481.52L563.52 481.32L562.99 481.22L562.58 481.26L561.98 481.58L561.49 482.2L561.17 482.85L561.05 483.24L560.81 483.95L560.33 484.85L559.83 485.02L559.23 485.26L558.68 485.34L557.96 485.45L557.51 485.45L557.15 485.49L556.78 485.56L556.29 485.66L555.76 486.01L555.46 486.31L555.23 486.65L555.05 487.04L555.09 487.58L555.21 488.24L554.9 488.5L554.42 488.63L554.03 488.35L553.58 487.81L553.45 487.38L553.39 487.02L553.32 486.23L553.15 485.75L552.86 485.24L552.68 484.81L552.51 484.19L552.58 483.81L552.66 483.3L552.66 482.8L552.64 482.18L552.44 481.75L551.95 481.19L551.63 480.95L551.16 480.67L550.71 480.54L550.35 480.56L549.97 480.63L549.56 480.71L549.15 480.63L548.9 480.18L548.79 479.83L548.64 479.34L548.41 478.61L548.43 478.2L548.45 477.79L548.6 477.36L548.77 477.02L549.04 476.53L549.15 475.86L548.97 475.42L548.42 474.86L547.43 474.59L546.72 474.39L546.03 473.65L545.67 472.5L546.03 471.45L546.65 470.35L547.93 468.96L548.77 468.06L549.36 467.56L549.76 467.02L549.67 466.21L549.36 465.67L548.96 464.91L548.78 464.15L548.34 463.65L548.07 463.07L548.07 462.62L548.56 462.49L549.67 462.35L550.29 461.95L550.83 461.63L551.1 461.23L551.1 460.65L551.05 459.84L550.96 458.72L551.19 457.82L551.55 457.42L551.32 456.84L550.96 456.3L550.47 455.81L549.76 455.36L549.27 455.23L548.87 455.13L548.29 455.13L547.31 455.72L546.68 456.48L546.28 456.97L546.02 457.38L545.5 457.84L545.19 458.2L544.17 457.66L543.45 456.81L543.23 455.82L543.41 455.37L544.03 454.7L544.83 453.8L544.92 453.22L545.28 452.82L545.28 451.69L544.88 450.97L544.43 450.44L544.08 449.99L543.05 449.81L541.98 449.27L541.13 448.69L539.79 447.84L538.73 447.12L537.92 446.4L537.16 445.33L536.63 444.56L535.91 443.98L535.07 443.26L534.09 443.04L533.42 443.12L532.84 443.8L532.35 444.34L531.95 444.2L531.37 443.89L530.65 443.17L530.39 441.82L530.12 440.35L530.11 439.18L530.16 438.1L530.43 437.74L531.05 437.78L532.3 438.55L533.55 439.4L534.66 439.8L535.44 439.99L536.67 439.53L537.52 438.37L537.75 437.73L537.53 437.21L537.36 436.89L537.01 436.31L536.8 435.9L536.35 435.19L536.09 434.76L535.83 434.22L535.62 433.92L535.28 433.51L534.55 433.1L533.89 433L533.31 432.79L532.76 432.34L531.97 431.52L531.56 431L531.16 430.53L530.86 430.01L530.49 429.39L530.45 428.83L530.54 428.38L530.64 427.64L530.68 427.02L530.54 426.1L530.54 425.56L530.6 424.53L530.68 423.54L530.85 422.87L530.88 422.4L530.88 421.88L530.85 421.47L530.75 421.05L530.6 420.51L530.21 420.06L529.77 419.65L529.49 419.33L528.7 418.92L528.06 418.6L527.41 418.34L526.86 418.02L526.31 417.81L525.64 417.51L524.86 417.1L524.47 416.86L524.17 416.67L523.75 416.34L523.34 416L523.11 415.72L522.74 415.37L522.32 414.66L521.17 412.69L521.52 411.95L522.25 411.49L523.79 410.93L524.4 410.76L525.1 410.51L525.61 410.23L525.93 409.99L526.51 409.38L526.71 409.07L526.86 408.44L527.02 407.87L526.95 407.4L526.82 407L526.56 406.71L526.16 406.49L525.73 406.43L525.17 406.39L524.42 406.27L523.67 406.21L523.29 406.15L522.56 406.21L520.94 406.09L520.36 406L519.91 405.88L519.31 405.62L518.92 405.44L518.44 405.15L517.97 404.48L517.64 403.86L517.55 403.36L517.44 402.97L517.4 402.58L517.58 401.94L517.75 401.59L517.78 401.22L517.78 400.83L517.5 399.97L517.23 398.82L517.07 398.1L517.04 397.32L517.02 396.51L516.98 395.54L516.94 394.62L516.84 393.97L516.73 393.54L516.56 393L516.28 392.12L515.95 391.55L515.72 391.15L515.51 390.81L515.2 390.44L514.63 389.71L513.86 389.07L513.36 388.57L512.87 388.01L512.57 387.71L512.2 387.29L511.58 386.75L511.26 386.57L510.91 386.36L510.38 386.09L509.87 385.97L508.09 385.78L507.02 385.59L506.04 385.44L503.52 384.98L501.77 384.73L499.33 384.44L498.27 384.21L497.49 384.02L496.98 383.86L496.33 383.55L495.77 383.31L495.3 383.04L494.73 382.52L492.55 380.28L491.79 377.78L491.64 376.57L491.22 374.26L490.9 372.4L490.31 371.07L489.84 369.8L489.09 368.54L488.25 367.51L484.37 364.89L482.17 363.34L481.83 362.89L481.25 362.44L479.57 361.61L478.62 361.2L477.67 360.78L475.79 359.9L473.33 359.34L472.69 359.2L470.2 358.52L466.44 356.98L465.12 356.57L463.81 356L462.67 355.5Z" vector-effect="non-scaling-stroke"/>
    </g>
  </g>
  <g id="state-outline" data-state="Goa" data-region-id="IN-REGION-30">
    <path d="M338.54 46.02L328.03 62.09L333.35 68.44L324.29 68.05L318.36 83.79L309.7 86.68L310.83 100.02L302.52 114.35L287.3 111.42L278.46 119.75L266.73 119.88L261.26 130.6L238.3 121.51L215.46 119.12L200.12 136.91L181.62 130.1L163.36 133.53L161.59 127.96L154.38 125.81L142.98 128.76L148.19 130.62L147.59 135.64L159.03 134.25L163.3 157.57L168.95 159.91L167.56 167.49L171.72 169.65L194.36 236.68L206.62 253.17L210.11 252.09L212.69 263.64L203.78 262.52L204.05 281.79L214.46 311.27L222.46 313.23L229 331.28L241.08 389.29L251.42 393.81L263.99 389.87L258.76 385.55L268.47 382.75L293.43 392.66L288.04 397.78L280.43 426.32L264.5 425.33L280.95 438.94L282.12 434.11L291.28 432.58L321.61 441.47L330.84 436.7L342.8 448.5L345.16 462.47L365.88 460.64L364.58 456.06L382.47 474.49L393.76 475.33L396.94 467.24L405.36 466.28L415.22 455.41L423.74 453.71L424.47 459.8L413.68 470.14L413.29 477.23L428.57 485.66L402.67 490.84L392.76 485.3L393.16 490.24L388.95 491.44L377.11 485.61L367.35 496.55L358.4 499.31L349.05 492.8L340.89 497.96L336.05 494.05L327.84 497.39L321.1 483.56L305.68 491.93L296.12 483.53L294.94 491.6L283.5 496.21L272.02 479.23L259.19 482.45L268.34 501.67L284.04 502.21L286.45 520.98L313.51 528.57L322.63 539.8L344.79 532.73L342.2 528.84L353.93 527.59L363.21 536.33L387.97 594.24L439.1 780.97L424.38 793.2L429.76 808.08L423.74 817.55L404.96 822.07L412.58 824.74L414.63 834.55L398.79 847.64L413.1 846.17L419.12 848.78L419.92 854.47L444.53 860.56L457.92 869.24L465.86 886.16L474.03 881.56L482.86 904.82L477.69 913.37L481.59 920.12L485.79 922.67L490.47 918.7L507.51 931.22L516.55 930.06L522.96 936.69L519.58 940.06L525.99 941.72L523.76 944.81L531.2 946.06L535.96 959.79L531.61 961.27L537.18 962.67L547.36 988.58L545.36 998.35L540.32 1001.47L544.78 1016.08L541.07 1035.13L554.57 1038.12L565.52 1046.58L580.97 1042.93L586.06 1054L603.09 1037.45L606.51 1040.67L617.12 1034.58L622.91 1036.21L627.49 1026.79L644.69 1029.13L668.41 1041.52L672.75 1033.9L660.06 1006.36L670.02 989.73L687.14 991.33L687.42 998.31L703.66 1010.45L700.31 1018.16L710.99 1026.34L724.11 1001.81L741.51 998.65L748.96 980.38L766.12 989.04L769.07 976.39L773.14 976.78L779.02 966.91L765.84 951.09L767.31 945.35L782.83 941.07L781.35 935.4L799.63 916.6L799.47 907.73L813.76 896.83L806.22 870.43L796.74 865.96L795.62 844.42L788.01 833.89L801.23 815.52L799.86 780.79L801.44 776.62L812.63 774.17L836.32 737.39L827.63 721.63L828.4 712.17L817.4 696.91L819.29 691.97L808.37 681.37L773.87 673.3L765 653.68L775.23 652.25L791.75 626.12L797.65 629.6L810.14 625.02L811.34 619.81L825.91 626.34L845.79 625.89L856.9 612.94L843.93 596.19L835.94 574.68L841.14 558.47L835.12 536.97L842.61 531.5L816.16 515.53L799.19 514.41L791.5 504.72L794.12 488.93L783.84 473.91L792.6 455.86L791.04 440.21L764.54 392.69L768.91 380.21L791.91 366.97L798.82 348.06L793.71 331.6L777.76 311.61L772.56 314.12L758.37 308.62L762.25 293.27L774.63 279.44L779 253.79L767.58 241.2L761.68 245.5L757.25 241.91L764.04 206.98L758 205.92L748.83 194.28L740.25 198.92L735.25 193.83L725.69 201.06L733.28 208.93L715.11 213.96L711.47 208.01L713.96 199.77L695.36 195.55L694.59 187.95L699.68 182.65L690.06 178.99L674.09 190.72L671.15 211.19L639.97 216.94L621.33 212.86L615.64 219.59L595.87 224.48L578.48 236.64L526.96 245.77L522.12 260.25L516.36 264.35L483.56 258.34L470.76 240.96L458.57 237.34L451.85 224.73L458.72 203.96L453.4 188.99L454.53 169.19L449.59 159.98L432.71 160.81L438.02 156.85L436.62 148.4L441.44 140.77L432 130.6L427.33 111.2L393.04 104.91L384.56 108.76L358.8 102.2L355.38 93.23L363.51 75.98L348.54 64.05L350.18 50.76L338.54 46.02Z" vector-effect="non-scaling-stroke"/>
  </g>
</svg>
