<?xml version="1.0" encoding="UTF-8"?>
<svg xmlns="http://www.w3.org/2000/svg" viewBox="0 0 1000 1100" role="img" aria-labelledby="map-title map-description">
  <title id="map-title">Lakshadweep district map</title>
  <desc id="map-description">Interactive vector map of Lakshadweep containing 1 district boundary.</desc>
  <g id="district-layer" data-status="ready" data-district-count="1" data-layer-id="IN-REGION-31-DISTRICTS" data-division-layer-id="IN-REGION-31-DIVISIONS" data-division-count="0" data-division-status="not-applicable">
    <g id="district-lakshadweep" class="district-region" data-district="Lakshadweep" data-slug="lakshadweep" data-code="587" data-lgd-code="553" data-boundary-year="2011_c" data-geometry-type="MultiPolygon" data-feature-id="IN-REGION-31-DISTRICT-587" tabindex="0" role="link" aria-label="Select Lakshadweep district">
      <path d="M522.28 1049.95L522.33 1050.34L522.69 1050.37L522.46 1050.04L522.28 1049.95ZM523.28 1042.91L523.29 1042.89L523.29 1042.87L523.29 1042.83L523.27 1042.8L523.24 1042.8L523.2 1042.81L523.18 1042.84L523.18 1042.88L523.22 1042.91L523.23 1042.92L523.26 1042.92L523.28 1042.91ZM534.88 1051.28L535.12 1050.95L535.69 1050.42L536.66 1049.49L536.97 1049.22L538.05 1048.22L538.29 1047.89L538.42 1047.43L538.39 1047L538.25 1046.61L538.17 1046.04L538.17 1045.67L538.18 1045.32L538.27 1044.78L538.34 1044.4L538.3 1043.98L538.34 1043.52L538.46 1043.14L538.56 1042.69L539.18 1041.06L539.45 1040.51L540.46 1038.72L540.83 1038.04L541.06 1037.51L541.28 1037.14L541.63 1036.75L541.89 1036.48L541.55 1036.67L541.23 1037.01L540.87 1037.48L540.39 1038.47L539.84 1039.46L539.41 1040.21L539.06 1040.84L538.86 1041.45L538.65 1041.97L538.33 1042.68L538.1 1043.64L538.03 1044.1L537.98 1044.56L537.61 1045.29L537.13 1045.86L536.6 1046.54L536.38 1047.01L536.04 1047.53L535.75 1048.06L535.35 1048.74L534.92 1049.08L534.37 1049.52L533.63 1050.11L533.31 1050.34L533.03 1050.66L532.73 1050.87L532.12 1051.22L531.58 1051.43L530.88 1051.61L530.16 1051.59L529.15 1051.61L527.67 1051.98L526.55 1051.98L526.01 1051.95L525.51 1051.84L525.17 1051.64L524.93 1051.27L524.68 1050.98L525.02 1051.06L525.37 1051.39L525.65 1051.64L525.5 1051.25L525.25 1050.87L524.87 1050.7L524.54 1050.48L524.46 1050.96L524.6 1051.42L524.7 1051.79L524.73 1052.19L525.02 1052.44L525.45 1052.69L525.91 1052.89L526.35 1053.07L527.24 1053.29L528.42 1053.69L529.64 1053.88L530.25 1053.91L531.59 1054L532.09 1053.93L532.63 1053.81L532.95 1053.65L533.28 1053.35L533.8 1052.72L533.97 1052.39L534.26 1052.04L534.69 1051.58L534.88 1051.28ZM701.36 526.72L701.37 526.69L701.37 526.68L701.35 526.67L701.32 526.67L701.27 526.69L701.26 526.72L701.3 526.74L701.36 526.72ZM701.16 526.66L701.13 526.67L701.11 526.67L701.08 526.69L701.09 526.74L701.13 526.73L701.18 526.72L701.18 526.68L701.16 526.66ZM701.58 526.65L701.61 526.62L701.63 526.6L701.62 526.57L701.61 526.56L701.58 526.56L701.52 526.6L701.5 526.64L701.52 526.66L701.55 526.66L701.58 526.65ZM701.1 526.62L701.11 526.58L701.09 526.56L701.05 526.57L701.01 526.61L701.05 526.64L701.1 526.62ZM701.29 526.65L701.42 526.63L701.53 526.56L701.55 526.51L701.49 526.45L701.37 526.46L701.3 526.47L701.24 526.49L701.21 526.51L701.17 526.53L701.16 526.6L701.2 526.66L701.29 526.65ZM701.72 526.52L701.73 526.48L701.72 526.44L701.69 526.44L701.67 526.44L701.64 526.48L701.64 526.52L701.68 526.53L701.72 526.52ZM701.26 526.46L701.28 526.43L701.29 526.4L701.28 526.39L701.25 526.39L701.22 526.38L701.21 526.4L701.17 526.42L701.16 526.46L701.2 526.47L701.26 526.46ZM701.59 526.4L701.58 526.38L701.55 526.35L701.52 526.36L701.48 526.36L701.45 526.39L701.45 526.41L701.47 526.42L701.51 526.43L701.55 526.43L701.59 526.4ZM701.98 526.34L701.97 526.24L701.95 526.16L701.92 526.13L701.87 526.16L701.85 526.17L701.75 526.3L701.73 526.42L701.77 526.48L701.89 526.48L701.98 526.34ZM702.34 525.68L702.43 525.59L702.42 525.48L702.4 525.45L702.32 525.43L702.27 525.43L702.17 525.44L702.09 525.49L702.11 525.62L702.17 525.72L702.34 525.68ZM700.48 525.03L700.02 525.21L700.45 525.39L700.7 525.06L700.48 525.03ZM701.11 524.86L701.16 524.81L701.19 524.77L701.2 524.7L701.19 524.67L701.16 524.66L701.12 524.68L701.08 524.7L701.02 524.76L701 524.81L700.99 524.84L700.99 524.86L701.01 524.9L701.03 524.91L701.06 524.91L701.11 524.86ZM706.17 525.42L706.13 524.63L706.05 524.21L706.13 523.75L706.15 523.35L706.19 522.81L706.36 522.15L706.5 521.73L706.59 521.22L706.64 520.63L706.72 520.22L706.75 519.84L706.84 519.44L707.18 518.31L707.27 517.82L707.3 517.4L707.24 516.88L707.11 517.33L707.08 517.7L706.97 518.27L706.87 518.66L706.7 519.07L706.45 519.64L706.35 520.42L706.16 521.07L705.8 521.94L705.63 522.43L705.55 522.85L705.42 523.27L705.22 523.82L705.12 524.28L704.84 524.77L704.55 525.2L704.23 525.6L703.86 525.9L703.34 525.96L702.95 525.76L702.55 525.67L702.74 526.22L702.96 526.57L703.2 526.88L703.35 527.22L703.6 527.8L703.86 528.52L703.94 528.88L703.79 529.31L704.02 529.66L704.54 529.93L704.92 529.95L705.28 529.93L705.71 529.79L706.03 529.44L706.16 528.91L706.16 528.47L706.2 528.12L706.23 527.43L706.21 527.04L706.22 526.02L706.17 525.42ZM707.55 514.81L707.58 514.72L707.58 514.64L707.54 514.59L707.5 514.55L707.44 514.55L707.39 514.6L707.38 514.68L707.42 514.77L707.49 514.82L707.55 514.81ZM312.71 534.56L313.19 534.3L313.52 534.02L313.79 533.54L314.08 533.1L314.16 532.73L314.19 532.07L314.3 531.7L314.52 531.22L314.03 532.03L313.72 532.32L313.31 532.77L313.09 533.06L312.86 533.52L312.75 533.89L312.54 534.31L312.71 534.56ZM709.81 501.44L709.6 501.06L709.22 501.2L709.05 501.55L709.1 501.9L709.24 501.54L709.43 501.9L709.51 502.44L709.69 503.11L709.98 503.82L710.17 504.24L710.29 504.63L710.35 504.98L710.39 505.42L710.35 505.97L710.31 506.4L710.26 506.79L710.06 507.45L709.96 508.08L709.84 508.56L710.18 508.35L710.29 507.89L710.42 507.53L710.63 506.87L710.81 506.04L710.91 505.69L710.92 505.27L710.72 504.58L710.57 504.12L710.27 503.58L710.05 502.85L710 502.48L709.84 501.73L709.81 501.44ZM328.07 515.78L328.03 515.33L327.68 515.13L327.83 515.57L327.73 515.94L327.6 516.26L327.23 516.9L327.58 516.7L327.78 516.3L328.07 515.78ZM326.6 508.5L326.5 508.08L326.43 507.66L326.13 507.37L325.96 506.96L325.84 506.62L325.61 506.34L325.51 505.98L325.24 506.22L325.32 506.7L325.42 507.12L325.45 507.62L325.36 508.04L325.13 508.36L325.3 508.68L325.71 508.67L326.23 508.62L326.53 508.86L326.74 509.15L326.72 508.76L326.6 508.5ZM416.58 377.03L416.04 376.82L415.69 376.73L415.55 377.21L415.36 377.75L415.29 378.15L415.05 378.6L414.83 379.08L414.6 379.61L414.26 380.12L413.93 380.74L413.55 381.36L413.31 381.71L413.04 382.19L412.68 382.71L412.45 383.02L412.23 383.38L411.96 383.8L411.75 384.09L411.54 384.39L411.25 384.99L411.01 385.38L410.68 385.8L410.32 385.93L409.96 386.02L409.63 386.2L409.29 386.32L408.97 386.58L408.72 386.91L408.59 387.29L408.8 387.64L409.24 387.59L409.54 387.37L409.87 387.09L410.13 386.76L410.5 386.38L410.73 386.01L411.04 385.68L411.36 385.44L411.97 384.98L412.32 384.69L412.69 384.43L413.09 384.11L413.78 383.56L414.3 383.16L414.74 382.93L415.17 382.82L415.56 382.63L416.07 382.35L416.43 382.25L417.09 382.1L417.49 381.89L417.94 381.56L418.25 381.26L418.35 380.81L418.44 380.46L418.56 380.11L418.67 379.69L418.57 379.12L418.37 378.5L418.21 378.14L418.02 377.84L417.68 377.45L417.42 377.11L417.06 377.04L416.58 377.03ZM712.04 306.78L711.56 306.78L711.12 306.84L710.75 306.84L710.26 306.93L709.91 307.13L709.68 307.49L709.58 307.85L709.58 308.38L709.78 309.12L709.98 309.52L710.42 310.02L710.78 310.27L711.4 310.48L711.83 310.58L712.23 310.65L712.73 310.73L713.1 310.77L713.48 310.79L713.95 310.8L714.71 310.71L715.46 310.46L715.81 310.37L716.45 310.2L717.18 309.89L717.79 309.63L718.45 309.3L718.9 309.13L719.45 308.97L720 308.79L720.71 308.6L721.2 308.5L721.52 308.24L721.67 307.9L721.68 307.39L721.34 307.15L720.72 307.12L720.23 307.06L719.57 307.03L719.14 307.04L718.74 306.99L718.12 306.98L717.72 307.07L717.29 307.13L716.75 307.07L716.4 307.07L715.98 307.08L715.59 306.98L715.09 306.91L714.66 307.07L714.18 307.06L713.76 306.98L713.16 306.95L712.76 307.01L712.34 306.83L712.04 306.78ZM279.39 307.54L279.02 307.57L278.56 307.75L278.28 307.99L278.62 308.18L279 308.2L279.37 308.18L279.29 307.82L279.39 307.54ZM289.65 288.86L289.27 288.86L288.86 288.76L288.33 289.27L287.89 289.75L287.62 290.12L287.38 290.39L286.98 290.83L286.68 291.47L286.52 291.86L286.42 292.22L286.3 292.75L286.18 293.17L286.01 293.63L285.9 294.19L285.8 294.64L285.62 295.33L285.47 295.75L285.35 296.1L285.23 296.6L285.16 296.94L285 297.46L284.83 297.79L284.52 298.41L284.35 298.75L284.17 299.11L283.86 299.62L283.51 300.32L283.32 300.88L283.15 301.26L282.89 301.84L282.57 302.47L282.38 302.87L282.1 303.29L281.67 303.85L281.37 304.27L280.92 304.86L280.64 305.27L280.18 305.86L279.95 306.23L279.79 306.59L280.19 306.41L280.46 306.16L280.75 305.81L281.07 305.42L281.33 305.08L281.6 304.72L281.82 304.44L282.14 304.02L282.56 303.47L282.79 302.9L282.97 302.53L283.11 302.05L283.35 301.47L283.59 300.97L283.81 300.62L283.97 300.29L284.16 299.87L284.49 299.33L284.72 298.88L285.05 298.29L285.3 297.82L285.53 297.43L285.84 296.96L286.18 296.45L286.37 296.14L286.74 295.62L287.01 295.21L287.23 294.87L287.41 294.56L287.64 294.24L287.95 293.74L288.2 293.34L288.42 293L288.79 292.27L289.1 291.76L289.43 291.17L289.58 290.82L289.75 290.46L289.95 290.05L290.13 289.7L290.26 289.34L290.26 288.94L289.83 288.85L289.65 288.86ZM314.06 268.88L313.72 268.7L313.48 269.21L313.37 269.82L313.26 270.27L313.11 270.68L312.99 271.17L312.86 271.52L313.02 271.85L313.48 271.95L313.92 272.06L314.42 272.04L314.79 271.9L315.12 271.76L314.99 271.32L314.63 270.98L314.48 270.55L314.35 270.04L314.26 269.55L314.47 269.17L314.9 269L315.25 269.03L314.64 268.92L314.28 268.92L314.06 268.88ZM324.64 267.77L325.02 267.53L324.49 267.68L324.07 267.77L323.39 267.87L322.88 267.89L322.38 267.92L322.03 268.09L321.8 268.39L321.71 268.77L321.68 269.16L321.7 269.59L322.14 269.65L322.7 269.33L323.03 269.13L323.44 268.84L324.04 268.31L324.45 267.9L324.64 267.77ZM326.85 267.3L326.46 267.26L326.07 267.36L326.28 267.69L326.64 267.42L326.85 267.3ZM327.33 266.35L326.95 266.38L327.06 266.72L327.32 266.44L327.33 266.35ZM327.45 265.99L327.49 265.56L327.26 265.23L327.19 265.61L327.19 265.98L327.45 265.99ZM438.55 219.66L438.74 219.34L439.05 219.08L439.83 218.46L440.43 217.91L441.09 217.16L441.46 216.59L441.71 216.22L442.03 215.54L442.17 215.06L442.42 214.46L442.58 213.98L442.67 213.51L442.52 213.15L442.18 213.01L441.66 212.95L441.14 213.09L440.72 213.43L440.4 213.71L440.11 213.91L439.69 214.14L439.06 214.58L438.76 214.82L438.3 215.35L438.05 215.74L437.73 216.44L437.59 216.77L437.51 217.18L437.5 217.76L437.59 218.47L437.76 218.93L438.1 219.27L438.32 219.6L438.55 219.66ZM450.62 199.4L450.9 199.01L451 198.62L451.06 198.22L451.16 197.62L451.35 196.94L451.48 196.56L451.62 196.13L451.78 195.76L451.9 195.38L452.02 195.02L452.12 194.65L452.38 193.87L452.61 193.26L452.71 192.91L452.95 192.41L453.25 191.94L453.46 191.64L453.81 191.17L454.04 190.86L454.35 190.38L454.7 189.8L454.94 189.23L455.16 188.57L455.26 188.11L455.32 187.64L455.45 187.18L455.56 186.67L455.71 186.1L455.87 185.61L455.93 185.17L456.07 184.77L456.22 184.36L456.35 183.91L456.46 183.53L456.66 182.96L456.82 182.59L456.98 182.02L457.08 181.68L457.28 181.28L457.49 180.77L457.69 180.19L457.99 179.58L458.25 178.98L458.47 178.46L458.67 178.03L458.74 177.66L458.8 177.23L458.84 176.75L458.49 176.64L458.17 176.89L457.8 177.13L457.48 177.6L457.35 177.93L457.22 178.32L456.95 178.91L456.8 179.27L456.55 179.89L456.33 180.35L456.1 180.83L455.84 181.41L455.63 181.82L455.52 182.2L455.39 182.64L455.29 183.06L455.11 183.6L455.03 184L454.92 184.34L454.84 184.69L454.71 185.09L454.62 185.46L454.53 185.89L454.34 186.52L454.21 186.91L454.07 187.29L453.97 187.8L453.78 188.33L453.6 188.74L453.56 189.16L453.43 189.62L453.28 190.01L453.16 190.37L453.02 190.84L452.87 191.19L452.7 191.74L452.54 192.19L452.4 192.54L452.29 192.89L452.19 193.27L452 193.67L451.77 194.2L451.56 194.71L451.36 195.21L451.18 195.86L451.04 196.38L450.96 196.92L450.95 197.48L450.97 197.98L450.86 198.53L450.79 198.94L450.54 199.33L450.62 199.4ZM521.65 115.01L522.37 114.46L522.62 114.11L522.51 113.52L522.36 113.05L522.24 112.61L522.17 112.2L522.12 111.78L522.1 111.37L522.08 110.96L522.09 110.56L522.09 110.16L522.1 109.76L521.94 109.4L521.64 108.87L521.44 108.44L521.25 108.01L521.07 107.7L520.76 107.3L520.38 106.94L520.07 106.71L519.62 106.54L519.18 106.54L518.78 106.73L518.84 107.12L519.06 107.47L519.23 107.81L519.59 107.93L519.94 108.11L520.05 108.46L520.17 108.83L520.31 109.4L520.37 109.75L520.46 110.28L520.54 110.84L520.68 111.34L520.79 111.72L520.84 112.15L520.94 112.59L521.06 112.92L521.31 113.42L521.44 113.79L521.59 114.13L521.4 114.46L521.27 114.87L521.65 115.01ZM285.65 76.89L285.38 76.51L285.05 76.26L284.72 76.11L284.31 76.03L284.37 76.4L284.5 76.85L284.93 76.99L285.37 76.98L285.65 76.89ZM436.19 51.09L436.55 50.63L436.88 50.17L437.34 49.58L437.57 49.09L437.72 48.71L437.72 47.84L437.64 46.82L437.57 46.43L437.46 46L437.06 46.51L436.75 46.92L436.63 47.56L436.42 47.94L436.22 48.35L435.89 48.97L435.71 49.35L435.58 49.89L435.38 50.83L435.23 51.27L434.7 51.62L434.29 52.03L434.82 52.32L435.28 52.32L435.56 52.03L435.87 51.57L436.19 51.09Z" vector-effect="non-scaling-stroke"/>
    </g>
  </g>
  <g id="state-outline" data-state="Lakshadweep" data-region-id="IN-REGION-31">
    <path d="M522.28 1049.95L522.64 1050.42L522.72 1050.19L522.28 1049.95ZM523.28 1042.91L523.29 1042.83L523.2 1042.81L523.28 1042.91ZM534.88 1051.28L538.29 1047.89L538.56 1042.69L541.88 1036.42L539.06 1040.84L537.61 1045.29L533.03 1050.66L527.39 1052.01L524.37 1050.67L525.45 1052.69L531.59 1054L534.88 1051.28ZM701.36 526.72L701.35 526.67L701.26 526.72L701.36 526.72ZM701.16 526.66L701.09 526.74L701.18 526.72L701.16 526.66ZM701.58 526.65L701.61 526.56L701.5 526.64L701.58 526.65ZM701.1 526.62L701.09 526.56L701.01 526.61L701.1 526.62ZM701.29 526.65L701.55 526.51L701.17 526.53L701.29 526.65ZM701.72 526.52L701.67 526.44L701.64 526.52L701.72 526.52ZM701.26 526.46L701.22 526.38L701.16 526.46L701.26 526.46ZM701.59 526.4L701.55 526.35L701.45 526.41L701.59 526.4ZM701.98 526.34L701.92 526.13L701.73 526.42L701.98 526.34ZM702.34 525.68L702.4 525.45L702.09 525.49L702.34 525.68ZM700.48 525.03L699.97 525.4L700.45 525.39L700.48 525.03ZM701.11 524.86L701.19 524.67L701 524.81L701.11 524.86ZM706.17 525.42L707.17 516.76L705.12 524.28L704.07 525.79L702.49 525.76L704.28 529.87L706.03 529.44L706.17 525.42ZM707.55 514.81L707.44 514.55L707.42 514.77L707.55 514.81ZM312.71 534.56L314.01 533.28L314.54 531.06L312.71 534.56ZM709.81 501.44L709.71 508.76L710.92 505.27L709.81 501.44ZM328.07 515.78L327.68 515.13L327.17 517.06L328.07 515.78ZM326.6 508.5L325.38 505.98L325.16 508.58L326.6 508.5ZM416.58 377.03L415.56 376.76L408.8 387.64L418.18 381.37L418.51 378.85L416.58 377.03ZM712.04 306.78L709.91 307.13L709.65 308.71L713.1 310.77L721.75 307.74L712.04 306.78ZM279.39 307.54L278.27 308.13L279.43 308.16L279.39 307.54ZM289.65 288.86L286.87 290.98L285 297.46L279.79 306.59L289.23 291.56L289.65 288.86ZM314.06 268.88L312.86 271.52L314.25 272.07L315.18 271.69L314.26 269.55L315.39 269.01L314.06 268.88ZM324.64 267.77L322.19 267.96L321.72 269.74L324.64 267.77ZM326.85 267.3L326.03 267.42L326.35 267.7L326.85 267.3ZM327.33 266.35L326.79 266.41L327.05 266.96L327.33 266.35ZM327.45 265.99L327.13 265.14L327.19 265.98L327.45 265.99ZM438.55 219.66L441.71 216.22L442.42 213.07L438.05 215.74L437.49 218.03L438.55 219.66ZM450.62 199.4L458.73 176.58L455.63 181.82L450.62 199.4ZM521.65 115.01L522.64 114L522.1 109.76L519.1 106.57L521.65 115.01ZM285.65 76.89L284.16 76.13L284.58 77L285.65 76.89ZM436.19 51.09L437.72 48.71L437.46 46L434.34 52.32L436.19 51.09Z" vector-effect="non-scaling-stroke"/>
  </g>
</svg>
