<?xml version="1.0" encoding="UTF-8"?>
<svg xmlns="http://www.w3.org/2000/svg" viewBox="0 0 1000 1100" role="img" aria-labelledby="map-title map-description">
  <title id="map-title">Puducherry district map</title>
  <desc id="map-description">Interactive vector map of Puducherry containing 4 district boundaries.</desc>
  <g id="district-layer" data-status="ready" data-district-count="4" data-layer-id="IN-REGION-34-DISTRICTS" data-division-layer-id="IN-REGION-34-DIVISIONS" data-division-count="0" data-division-status="not-applicable">
    <g id="district-karaikal" class="district-region" data-district="Karaikal" data-slug="karaikal" data-code="637" data-lgd-code="598" data-boundary-year="2011_c" data-geometry-type="MultiPolygon" data-feature-id="IN-REGION-34-DISTRICT-637" tabindex="0" role="link" aria-label="Select Karaikal district">
      <path d="M618.97 951.98L618.92 951.63L618.5 951.76L618.97 951.98ZM609.63 946.25L609.63 946.17L609.6 946.13L609.6 946.08L609.55 946.09L609.57 946.18L609.51 946.2L609.52 946.25L609.63 946.25ZM607.3 943.9L607.3 943.78L607.21 943.77L607.2 943.93L607.03 943.93L607.02 944.07L607.21 944.09L607.21 944.22L607.27 944.21L607.27 944.08L607.35 944.07L607.35 943.94L607.3 943.9ZM611.95 934.99L611.59 935.01L611.23 934.97L610.83 934.93L610.81 935.65L610.82 936L610.74 936.36L610.79 936.71L611.1 936.93L611.4 937.17L611.39 937.69L611.76 937.6L612.13 937.6L612.13 938.11L611.76 938.15L611.36 938.39L611.64 938.74L611.61 939.13L611.97 939.11L612.32 939.39L612.49 939.75L612.64 940.06L612.7 940.44L612.88 940.78L612.51 940.85L612.14 940.78L611.83 941L611.47 940.97L611.07 941.06L610.66 941.14L610.37 940.44L610.29 939.98L609.89 939.93L609.56 940.19L609.46 939.81L608.99 939.81L608.73 939.57L608.38 939.39L607.91 939.57L607.51 939.5L607.18 939.7L607.08 940.22L607.06 940.61L606.99 941.09L606.91 941.5L606.97 941.87L607.3 941.99L607.65 942.04L608.12 942.02L608.55 941.96L608.64 941.53L608.94 941.24L609.18 941.79L609.22 942.15L608.52 942.52L608.42 942.95L608.04 943.01L607.69 943.12L607.61 943.47L607.95 943.84L607.56 944.06L608.21 944.03L608.02 944.35L607.7 944.61L607.61 944.94L607.93 945.12L608.34 945.12L608.71 945.14L609.08 945.25L609.04 945.62L609.42 945.62L609.85 945.6L610.08 945.88L610.13 946.39L610.32 946.7L610.08 946.99L610.46 947.02L610.81 947.07L611.26 947.05L611.56 946.85L611.92 946.76L612.31 946.78L612.6 946.99L612.34 947.43L612.09 947.74L612.01 948.14L612.22 948.51L612.24 948.86L612.02 949.16L612.37 949.04L612.75 948.91L612.66 949.26L612.32 949.42L612.05 949.7L611.86 950.07L612.34 949.99L612.75 950.05L613.14 949.97L613.03 949.49L614 949.46L614.36 949.46L614.61 949.21L614.57 948.25L614.91 948.16L614.67 947.77L615.03 947.8L615.23 948.12L615.7 948.04L616.09 947.85L616.49 947.95L616.81 948.35L617.07 948.61L616.69 948.44L616.57 948.8L616.87 949.14L616.61 949.38L616.23 949.46L615.64 949.59L615.33 949.78L615.31 950.19L615.5 950.56L615.85 950.46L616.19 950.38L616.35 949.83L616.73 949.85L616.85 950.18L616.99 950.61L617.39 950.63L617.79 950.47L618.19 950.26L618.5 950.64L618.87 950.71L619.21 950.56L619.54 950.73L619.93 950.78L620.4 950.92L620.8 951.13L621.21 951.06L621.54 951.24L621.09 951.52L620.74 951.68L620.37 951.7L619.97 951.62L619.59 951.66L619.2 951.66L619.18 952.31L619.67 952.36L620.41 952.48L620.71 952.73L620.85 953.15L621.02 953.78L620.54 953.87L620.13 953.96L619.81 954.19L619.5 954.36L619.14 954.22L618.97 953.9L618.67 954.26L618.74 954.63L618.75 954.98L618.95 955.26L619.26 955.51L619.53 955.8L619.91 955.85L620.29 955.91L620.45 956.35L620.86 956.27L621.2 956.06L621.5 956.29L621.63 956.83L621.74 957.39L621.67 957.75L621.74 958.21L621.8 958.61L622.4 958.83L622.89 958.84L624.48 958.82L624.69 958.41L624.77 957.7L624.71 957.24L624.73 956.68L624.51 956.38L624.8 956.09L624.83 955.51L624.8 954.82L624.75 954.4L624.74 953.89L624.71 953.52L624.73 953.16L624.78 952.5L624.85 952.1L624.76 951.62L624.8 951.01L624.7 950.58L624.61 950.18L624.62 949.66L624.74 949.23L624.74 948.86L624.76 948.11L624.75 947.56L624.71 947.11L624.82 946.69L624.78 946.13L624.73 945.74L624.76 945.36L624.77 944.86L624.82 943.9L624.84 943.13L624.84 942.76L624.84 942.38L624.84 941.82L624.85 941.42L624.85 941.07L624.87 940.66L624.96 940.24L624.94 939.85L624.95 939.44L624.96 938.77L624.92 938.37L624.96 937.91L624.64 937.56L624.51 937.18L624.47 936.76L624.61 936.42L624.19 936.12L623.73 936.05L623.36 935.94L622.97 935.93L623.04 935.57L623.08 935.08L622.56 935.09L622.14 934.98L621.75 935.05L621.47 935.38L621.19 935.6L620.88 935.31L620.59 935.52L620.11 935.2L619.93 934.88L619.58 934.98L619.61 935.35L619.19 935.45L618.78 935.38L618.35 935.57L618.12 935.9L618.45 936.22L618.23 936.5L618.18 936.85L617.88 937.07L617.57 937.28L617.62 937.7L617.23 937.7L616.88 937.66L616.57 937.45L616.35 937.15L615.95 936.84L616.22 936.55L616.11 936.17L615.95 935.85L615.57 935.79L615.19 935.88L614.86 935.77L614.43 935.7L614.01 935.63L613.58 935.71L613.22 935.65L612.89 935.51L612.68 935.19L612.43 935.47L612.24 935.16L611.95 934.99Z" vector-effect="non-scaling-stroke"/>
    </g>
    <g id="district-mahe" class="district-region" data-district="Mahe" data-slug="mahe" data-code="636" data-lgd-code="599" data-boundary-year="2011_c" data-geometry-type="MultiPolygon" data-feature-id="IN-REGION-34-DISTRICT-636" tabindex="0" role="link" aria-label="Select Mahe district">
      <path d="M48.06 840.02L48.09 839.62L48.36 839.22L48.08 838.97L47.72 838.58L47.23 838.49L46.88 839.02L46.52 839.3L46.64 839.67L46.86 839.96L47.1 840.29L47.29 840.61L47.7 840.42L48.01 840.25L48.06 840.02ZM47.55 831.28L47.25 831.48L46.85 831.69L46.93 832.05L47.05 832.45L47.27 832.85L47.46 833.2L47.86 833.21L47.92 833.62L48.04 834.09L48 834.54L47.82 835.1L47.27 835.15L46.84 835.15L46.6 835.51L46.21 835.87L46.03 836.22L46.09 836.63L46.07 837.02L46.19 837.44L46.5 837.66L46.76 837.93L46.55 838.32L46.28 838.58L46.61 838.7L47.01 838.35L47.34 838.22L47.06 837.98L46.78 837.69L47.07 837.47L47.33 837.2L47.45 837.55L47.88 837.68L48.24 837.62L48.59 837.46L48.84 837.74L49.14 837.48L49.39 837.2L49.76 837.17L49.8 836.62L49.86 836.27L49.57 835.85L49.24 835.64L48.8 835.49L48.46 835.39L48.16 834.92L48.16 834.46L48.24 834.07L48.36 833.58L48.46 833.1L48.36 832.71L48.56 832.3L48.45 831.94L48.05 831.74L47.69 831.54L47.55 831.28Z" vector-effect="non-scaling-stroke"/>
    </g>
    <g id="district-puducherry" class="district-region" data-district="Puducherry" data-slug="puducherry" data-code="635" data-lgd-code="600" data-boundary-year="2011_c" data-geometry-type="MultiPolygon" data-feature-id="IN-REGION-34-DISTRICT-635" tabindex="0" role="link" aria-label="Select Puducherry district">
      <path d="M601.56 824.19L601.09 824.23L601.01 824.8L600.94 825.25L600.92 825.7L601.3 826.24L601.62 826.58L602.03 826.23L602.17 825.89L602.64 825.87L602.99 825.59L603.06 825.12L602.84 824.81L602.52 824.51L602.06 824.39L601.63 824.21L601.56 824.19ZM604.37 823.23L603.33 823.11L603.25 824.25L604.67 824.35L604.37 823.23ZM609.36 820.31L609.32 820.68L609.42 821.11L609.07 821.11L608.68 821.1L608.31 821.1L608.65 821.62L608.59 822.25L608.55 822.69L608.72 823.23L608.73 823.7L608.95 823.99L608.95 824.39L609.11 824.71L608.78 824.89L608.3 824.91L607.59 824.75L607.56 825.15L607.7 825.75L607.35 825.96L607.46 826.31L607.37 826.66L606.89 826.53L606.55 826.66L606.18 826.69L606.06 827.04L606.04 827.43L606.51 827.84L606.85 828.14L607.24 827.98L607.46 828.26L607.82 828.57L608.22 828.68L608.58 828.81L609.07 828.83L609.49 828.78L609.92 828.88L610.37 829.12L610.83 829.36L611.17 829.52L611.56 829.53L611.9 829.13L611.97 828.72L612.13 828.39L612.33 827.98L612.56 827.64L612.97 827.4L613.52 827.45L613.82 827.8L613.73 828.18L613.79 828.55L614.19 828.61L614.63 828.68L615.08 828.76L615.18 828.33L615.55 828.06L616.09 828.01L616.68 828.1L617.13 828.17L617.19 827.78L617.26 827.3L617.31 826.93L617.37 826.56L617.47 826.06L617.56 825.66L617.63 825.32L617.72 824.95L617.82 824.53L617.91 824.13L618.03 823.73L618.16 823.27L618.26 822.88L618.33 822.51L618.46 822.18L618.6 821.85L618.31 821.6L617.88 821.44L617.75 821.03L617.4 820.94L617.45 821.3L617.06 821.56L617.52 821.63L617.79 821.99L617.59 822.35L617.44 822.77L617.03 822.67L617.18 822.35L616.76 822.39L616.28 822.22L615.89 821.96L615.52 821.9L615.14 821.83L614.75 821.89L614.51 822.26L614.21 822.59L614.1 822.93L613.71 822.98L613.03 822.89L613.04 822.52L613.05 821.82L612.76 821.55L612.44 821.36L612.07 821.27L611.77 821.05L611.39 820.93L610.83 820.62L610.47 820.54L610.05 820.43L609.62 820.39L609.36 820.31ZM598.13 820.34L597.52 820.17L597.25 820.41L597.01 820.84L597.08 821.25L596.91 821.59L596.85 821.94L596.77 822.29L596.69 822.64L596.43 822.89L596.78 823.13L597.09 823.46L597.16 823.81L597.66 824.1L598.05 824.22L598.64 824.28L598.97 824.42L599.33 824.39L599.66 824.14L600.47 824.16L600.48 822.96L600.08 822.88L599.63 822.81L599.24 822.59L598.99 822.29L598.99 821.87L599.1 821.53L599.21 821.09L598.88 820.68L598.48 820.54L598.13 820.34ZM604.3 816.1L603.94 816.07L603.88 816.97L603.83 817.5L603.78 817.93L604.2 817.81L604.22 817.36L604.25 816.87L604.29 816.3L604.3 816.1ZM595.05 815.09L594.95 814.61L594.9 814.18L594.55 814.03L594.28 813.78L593.78 813.81L593.5 814.27L593.37 814.62L593 815.03L592.51 815.41L592.08 815.66L591.81 815.37L591.59 815.09L591.19 814.9L590.91 815.27L590.92 815.65L591.12 816.45L591.36 816.82L591.33 817.31L591.27 817.69L591.23 818.1L591.57 818.17L591.9 817.99L592.27 817.96L592.61 817.76L593.02 817.6L593.54 817.62L593.57 817.03L593.51 816.6L593.93 816.66L594.36 816.67L594.76 816.65L594.76 817.26L594.56 817.91L594.53 818.42L594.77 818.82L595.39 818.9L595.88 818.97L596.31 819.08L596.68 819.16L597.24 819.25L597.66 819.31L598.1 819.24L598.54 819.06L598.79 818.68L599.06 818.24L599.18 817.82L599.41 817.23L599.14 816.97L598.76 816.8L598.22 816.59L597.61 816.55L597.44 815.93L597.43 815.52L597.15 815.17L596.59 815.19L596.39 814.89L596.44 814.44L595.98 814.19L595.6 814.05L595.58 814.57L595.56 815.12L595.05 815.09ZM602.51 802.51L601.91 802.56L601.43 802.7L601.34 803.11L600.98 803.18L600.56 803.22L600.15 803.14L599.65 803.14L599.26 803.07L599.29 803.54L599.22 803.97L598.99 804.23L598.58 804.5L598.21 804.39L598.12 804.84L598.23 805.17L598.57 805.31L598.8 805.59L599.28 805.6L599.66 805.61L600.03 805.73L600.38 805.77L600.75 805.97L601.18 805.89L601.55 805.58L601.92 805.39L602.26 805.22L602.1 804.89L602.22 804.3L602.36 803.76L602.5 803.4L602.68 803.05L602.51 802.51ZM611.74 798.24L611.22 797.99L610.83 797.84L610.41 797.9L610.23 798.24L609.87 798.3L609.86 798.65L609.37 798.71L609.26 799.05L608.85 799.59L608.55 799.8L608.2 799.71L607.45 799.78L607.07 799.83L606.92 800.26L606.68 800.59L606.44 800.91L606 800.68L605.89 801.11L605.77 801.73L605.62 802.08L605.95 802.34L606.27 802.57L606.41 802.99L606.21 803.35L605.84 803.29L605.5 803.51L605.13 803.44L604.66 803.35L604.5 803.85L604.14 804.15L603.82 803.89L603.58 804.21L603.45 804.68L603.25 805.19L603.37 805.58L603.75 805.99L603.76 806.37L603.95 806.8L604.53 806.85L604.89 807.02L605.19 807.41L605.29 807.76L605.76 807.97L605.59 807.52L605.43 807.01L605.38 806.52L605.37 806.13L605.57 805.82L605.95 805.87L606.29 806.03L606.77 806.23L607.11 806.37L607.05 806.74L606.97 807.13L606.88 807.56L606.77 807.91L606.68 808.39L606.99 808.79L607.28 809L607.73 809.34L607.93 809.63L608.12 809.94L608.49 810.44L608.77 810.77L609.07 811L609.51 811.46L609.74 811.74L609.41 811.94L609.02 811.96L608.5 812.07L608.42 812.49L608.4 813.01L608.4 813.44L608.19 813.82L607.44 813.87L607.09 813.8L606.73 813.63L606.37 813.65L606.02 813.63L605.62 813.65L605.31 813.39L605.07 812.99L605.12 812.6L605.46 812.3L605.51 811.92L605.21 811.38L605.2 810.93L605.47 810.65L605.88 810.66L606.24 810.68L606.72 810.68L606.76 810.31L606.81 809.91L606.38 809.89L605.75 809.87L605.25 809.87L604.62 809.89L604.14 809.89L603.77 810.09L603.71 810.65L603.72 811.01L603.72 811.38L604.01 811.61L604.01 812.06L603.73 812.4L603.71 812.92L603.42 813.19L603.03 813.22L602.65 813.26L602.57 813.67L602.55 814.03L602.09 814.04L602.02 813.61L601.66 813.64L600.98 813.67L600.82 814.02L600.8 814.46L600.83 815.02L601.22 815.14L601.63 815.13L602.23 815.11L602.32 814.77L602.31 814.42L602.7 814.36L603.22 814.36L603.6 814.36L603.89 814.07L604.25 814.06L604.69 814L605.25 814L605.63 813.97L605.71 814.35L605.55 814.89L605.5 815.4L605.47 815.78L605.42 816.53L605.61 816.84L606 817.06L606.12 817.44L606.11 817.89L606.38 818.27L606.54 818.6L606.77 818.86L606.92 818.49L607.08 817.9L607.38 817.63L607.74 817.68L608.22 817.64L608.67 817.63L608.69 817.21L609.14 817.31L609.58 817.34L609.88 817.54L610.03 817.93L610.17 818.43L610.21 818.95L610.03 819.33L610.44 819.49L610.83 819.47L611.26 819.57L611.53 819.33L611.5 818.87L611.49 818.4L611.5 817.99L611.5 817.42L611.65 817L612.16 816.82L612.18 816.39L612 815.96L612.35 815.83L612.69 815.67L613.03 815.82L613.45 815.8L613.68 816.15L613.67 816.53L613.64 816.93L613.58 817.29L613.75 817.6L613.68 817.98L613.43 818.26L613.15 818.57L613.04 819.02L612.63 819.57L612.92 819.77L613.03 820.12L613.07 820.48L613.44 820.88L613.77 821.09L614.16 821.18L614.46 820.93L614.54 820.4L614.58 820L614.81 819.67L615.06 819.4L615.18 818.75L615.47 818.54L615.96 818.57L616.35 818.62L616.81 818.68L617.2 818.66L617.59 818.65L617.98 818.73L618.11 819.25L618.38 819.54L618.73 819.79L618.64 820.25L618.51 820.65L618.57 821.11L618.83 820.82L618.94 820.46L619.06 820.09L619.16 819.75L619.28 819.39L619.4 819.01L619.54 818.6L619.67 818.22L619.85 817.71L620 817.35L620.15 817.03L620.25 816.66L620.42 816.34L620.64 815.93L620.77 815.54L620.83 815.17L620.87 814.78L620.93 814.35L621.04 813.79L621.21 813.21L621.35 812.86L621.43 812.44L621.55 811.93L621.67 811.36L621.77 810.92L621.9 810.42L622.03 809.99L622.17 809.54L622.36 808.87L622.45 808.46L622.57 807.93L622.64 807.58L622.68 807.13L622.72 806.72L622.81 806.28L622.85 805.92L622.96 805.54L623.07 805.18L622.9 804.85L622.33 804.8L621.88 804.7L621.55 804.54L621.18 804.22L620.88 803.81L620.68 803.52L620.62 803.17L620.49 802.83L620.35 802.4L620.24 802.01L619.97 801.75L619.55 801.8L619.21 802.01L618.87 802.49L618.69 802.92L618.52 803.41L618.39 803.87L618.35 804.34L618.36 804.79L618.37 805.23L617.86 805.04L617.38 804.77L616.86 804.56L616.44 804.36L616.09 804.26L615.65 804.33L615.49 804.79L615.13 804.78L614.95 805.16L614.6 805.17L614.4 805.47L614.16 805.81L613.98 806.16L613.88 806.51L613.31 806.49L612.89 806.47L612.33 806.55L612.31 806.9L612.4 807.25L612.41 807.82L612.47 808.31L612.21 808.66L611.87 808.82L611.69 809.17L611.84 809.72L611.49 809.76L611.04 809.79L611.09 809.44L610.9 808.92L610.89 808.4L610.87 807.91L610.85 807.55L610.84 807.07L610.83 806.5L610.72 805.98L610.6 805.34L610.49 804.73L610.36 804.1L610.28 803.67L609.93 803.5L609.34 803.3L608.95 803.16L608.61 803.03L608.28 802.85L607.75 802.76L607.53 802.46L607.47 802.09L607.55 801.64L607.73 801.3L607.85 800.8L608.38 800.76L608.36 801.13L608.73 801.43L609.06 801.68L609.5 801.73L609.83 801.86L610.16 801.59L610.58 801.13L610.99 800.94L611.38 800.9L611.7 800.48L612.09 800.38L612.55 800.05L612.64 799.56L612.66 799.04L612.63 798.65L612.2 798.31L611.74 798.24ZM614.4 811.83L614.86 811.88L615.22 812.13L615.49 812.45L615.87 812.76L616.18 812.95L616.56 812.83L616.88 812.65L617.22 812.53L617.24 813.03L617.19 813.53L617.07 813.9L616.98 814.37L616.84 814.72L616.64 815.2L616.67 815.68L616.3 815.63L616.12 815.94L615.92 816.41L615.92 816.8L615.71 817.56L615.33 817.6L614.82 817.55L614.81 817.08L614.95 816.57L615 816.18L614.95 815.72L614.61 815.51L614.2 815.72L614.13 815.18L614.15 814.81L613.79 814.7L613.83 814.22L613.8 813.84L613.9 812.96L614.06 812.65L613.57 812.42L613.95 812.14L614.37 812.26L614.4 811.83ZM616.94 795.31L616.54 795.13L616.29 795.42L616.3 795.84L616.14 796.21L616.48 796.31L617 796.47L617.48 796.52L617.83 796.41L618.09 796.16L618.34 795.9L618.42 795.54L618.12 795.31L617.74 795.31L617.31 795.31L616.94 795.31ZM594.67 794.49L594.32 794.69L594.49 795.13L594.57 795.58L594.86 796.29L594.45 796.76L593.99 796.87L593.76 797.28L593.61 797.77L593.6 798.18L593.46 798.58L593.84 798.78L594.24 798.79L594.37 799.2L594.26 799.55L594.21 799.96L594.1 800.31L593.69 800.3L593.23 800.27L593.33 800.66L593.58 800.91L593.72 801.25L594.2 801.33L594.12 801.78L594.22 802.12L593.88 802.44L593.43 802.83L593.94 802.96L594.3 803.12L594.54 803.49L594.53 803.84L594.67 804.19L594.78 804.71L594.78 805.12L594.77 805.63L594.75 806.06L594.6 806.41L594.26 806.62L593.88 806.63L593.47 806.61L593.41 807.13L593.33 807.59L593.39 807.97L593.41 808.37L593.41 808.95L593.99 809.27L594.37 809.49L594.7 809.74L594.7 810.29L594.63 810.75L594.52 811.23L594.42 811.67L594.32 812.1L594.93 812.3L595.88 812.32L596.24 812.2L596.41 811.87L596.44 811.47L596.9 811.46L597.33 811.46L597.92 811.46L598.42 811.43L598.44 810.75L599.09 810.73L599.33 810.45L599.56 810.04L600.15 810L600.17 809.33L600.17 808.96L600.29 808.44L600.28 808.05L600.34 807.66L599.98 807.36L599.52 807.27L599.06 807.45L599.07 807.04L598.78 806.78L598.78 806.42L598.52 806.11L598.03 805.92L597.92 806.26L597.56 806.46L597.11 806.45L596.65 806.76L596.64 806.33L596.54 805.98L596.59 805.15L597.27 805.21L597.22 804.83L597.29 804.43L597.33 804.07L597.33 803.64L597.35 803.27L596.95 803.06L596.47 802.89L596.36 802.5L596.33 802.1L595.81 801.88L595.93 801.44L596 800.94L596.18 800.46L596.26 800.01L596.05 799.7L595.77 799.43L595.92 799.06L596.3 799.09L596.66 798.79L596.87 798.09L597.18 797.58L597.21 797.16L597.42 796.61L597.43 796.17L597.82 795.93L597.69 795.57L597.26 795.38L596.99 795.16L596.45 795L596.08 795.11L595.75 794.9L595.36 794.74L595 794.57L594.67 794.49ZM603.66 793.98L603.22 794.53L603.14 794.92L602.81 795.08L602.51 795.32L602.21 795.87L601.54 795.89L601.17 795.89L600.95 796.43L600.75 796.94L600.63 797.48L600.2 797.5L599.7 797.28L599.27 797.21L599.03 797.67L598.78 798.22L598.86 798.65L598.72 799.02L598.6 799.45L598.53 799.9L598.83 800.11L599.13 800.3L599.47 800.16L599.85 800.1L600.19 799.87L600.52 799.62L600.87 799.81L601.14 800.26L601.33 800.65L601.6 800.97L602.02 800.62L602.18 800.29L602.37 799.99L602.76 800.16L603.16 800.24L603.51 800.17L603.97 799.95L604.33 799.98L604.61 799.74L605.05 799.67L605.52 799.78L605.85 799.93L606.26 800.12L606.72 800.15L606.95 799.81L606.78 799.5L606.66 799.15L606.33 798.93L606.07 798.68L605.81 798.34L605.53 797.9L605.07 797.7L604.81 797.43L604.72 796.93L604.8 796.39L604.85 795.94L604.9 795.56L605.02 795.13L604.96 794.47L604.56 794.33L604.18 794.19L603.85 794L603.66 793.98ZM625.33 797.91L625.6 797.31L625.76 796.95L625.93 796.6L626.09 796.26L626.26 795.87L626.54 795.28L626.74 794.87L626.93 794.48L627.09 794.11L627.29 793.72L627.48 793.27L627.04 792.79L626.67 792.6L625.14 792.06L624.57 791.86L624.23 792.12L624.07 792.57L623.81 793.23L623.69 793.59L623.58 793.98L623.5 794.34L623.48 794.91L623.47 795.63L623.4 795.99L623.21 796.48L623.11 797.03L623.72 797.24L624.19 797.42L624.55 797.57L625.11 797.81L625.33 797.91Z" vector-effect="non-scaling-stroke"/>
    </g>
    <g id="district-yanam" class="district-region" data-district="Yanam" data-slug="yanam" data-code="634" data-lgd-code="601" data-boundary-year="2011_c" data-geometry-type="Polygon" data-feature-id="IN-REGION-34-DISTRICT-634" tabindex="0" role="link" aria-label="Select Yanam district">
      <path d="M943.02 141.75L942.65 141.28L942.29 141.33L942.18 141.72L941.83 141.68L941.46 141.72L941.69 142.08L941.42 142.38L941.05 142.44L940.72 142.24L940.38 142.46L940.27 142.87L940.14 143.2L939.81 143.48L939.78 143.84L939.85 144.23L939.56 144.73L939.2 144.8L938.72 144.77L938.35 144.75L937.97 144.63L937.6 144.51L937.22 144.45L936.9 144.61L936.89 145.11L937.17 145.42L937.58 145.4L937.94 145.4L937.93 145.82L937.9 146.25L938.09 146.65L938.55 146.87L938.88 147L939.29 147.13L939.69 147.18L940.36 147.08L940.93 147.08L941.49 147.14L942.15 147.14L942.57 147.12L943.1 147.07L943.78 147.26L944.45 147.75L944.84 148.12L945.23 148.46L945.72 148.82L946.09 149.12L946.43 149.41L946.87 149.78L947.15 150.01L947.53 150.26L947.87 150.33L948.36 150.1L948.84 149.89L949.32 149.58L950.06 149.43L950.64 149.34L951.12 149.14L951.72 148.76L952.02 148.5L952.38 148.27L952.84 147.88L953.09 147.59L953.38 147.26L953.68 146.56L953.85 146.14L953.98 145.73L953.93 145.28L953.7 144.95L953.58 144.53L953.42 144.15L953.22 143.65L952.97 143.09L952.57 143.14L952.3 143.58L951.96 144.16L951.77 144.51L951.47 145.12L951.19 145.44L950.96 145.73L950.67 145.92L950.2 145.93L949.78 145.82L949.36 145.76L948.94 145.78L948.6 145.94L948.36 146.36L947.9 146.57L947.48 146.53L946.92 146.68L946.55 146.76L946.02 146.62L945.47 146.51L945.11 146.49L944.75 146.51L944.33 146.41L943.88 146.24L943.47 146.06L943.16 145.88L942.8 145.69L942.4 145.52L941.97 145.32L941.58 145.16L941.24 145.04L941.17 144.69L941.23 144.34L941.19 143.96L941.36 143.62L941.6 143.34L941.79 142.98L942.09 142.77L942.03 142.34L942.45 142.23L942.87 142.15L943.02 141.75Z" vector-effect="non-scaling-stroke"/>
    </g>
  </g>
  <g id="state-outline" data-state="Puducherry" data-region-id="IN-REGION-34">
    <path d="M618.62 952.04L618.99 951.65L618.5 951.76L618.62 952.04ZM609.63 946.25L609.6 946.08L609.51 946.2L609.63 946.25ZM607.21 944.22L607.21 943.77L607.02 944.07L607.21 944.22ZM613.23 935.72L611.85 934.85L610.83 934.93L610.65 936.95L611.35 936.99L611.39 937.69L612.15 937.61L611.38 938.51L611.64 939.19L612.26 939.15L612.87 940.84L610.52 941.32L610.29 939.98L609.56 940.19L608.46 939.39L606.89 939.66L606.97 941.87L608.65 942.01L608.94 941.15L609.31 941.85L607.53 943.29L607.95 943.84L607.4 944.23L608.23 944.36L607.73 944.34L607.63 945.04L610.02 945.64L610.08 946.99L612.2 946.72L612.74 947.13L612.01 947.91L611.94 949.47L612.52 948.75L612.82 949.02L611.84 950.11L614.61 949.45L614.67 947.77L616.26 947.83L617.07 948.61L616.53 948.33L616.87 949.16L615.36 949.62L615.5 950.56L616.35 950.3L616.4 949.68L616.98 950.68L618.27 950.2L621.51 951.19L619.2 951.66L619.18 952.31L620.69 952.49L621.02 953.78L619.25 954.48L618.69 953.69L618.75 955.03L620.51 956.4L621.45 955.84L621.84 958.88L623.22 958.8L624.48 958.82L624.75 958.07L624.97 937.64L624.55 936.14L622.97 935.93L623.08 935.08L620.46 935.61L619.73 934.85L619.45 935.48L618.26 935.68L618.24 937.12L617.39 937.74L615.87 936.78L615.89 935.74L613.23 935.72ZM601.56 824.19L601.09 824.23L600.92 825.7L601.82 826.69L602.17 825.89L602.93 825.89L603.06 825.02L601.56 824.19ZM604.37 823.23L603.33 823.11L603.25 824.25L604.67 824.35L604.37 823.23ZM48.03 840.36L48.38 839.19L47.23 838.49L46.52 839.3L46.46 839.58L47.33 840.68L48.03 840.36ZM612.93 821.57L609.23 820.14L609.42 821.13L608.25 821.13L609.09 824.91L607.59 824.75L607.37 826.66L606.17 826.69L605.97 827.34L607.82 828.57L611.68 829.56L612.61 827.44L613.13 827.3L613.77 827.61L613.94 828.62L615.08 828.76L615.61 827.91L617.13 828.17L617.49 825.91L618.64 821.6L617.46 820.89L616.84 821.76L617.79 821.99L617.36 822.82L617.13 822.29L615.05 821.83L614.08 823.08L613.39 823.08L612.93 821.57ZM599.2 820.81L597.27 820.14L596.43 822.89L597.14 823.96L598.92 824.43L600.47 824.16L600.48 822.96L598.9 822.16L599.2 820.81ZM604.2 817.81L604.24 816.03L603.78 817.93L604.2 817.81ZM48.62 832.15L47.48 831.29L46.62 831.84L47.86 833.21L48 834.54L47.82 835.1L46.71 835.13L46 836.28L46.61 838.7L47.46 838.19L46.78 837.69L47.33 837.2L47.49 837.66L48.84 837.74L49.86 836.88L49.9 836.07L48.23 835.15L48.62 832.15ZM595.56 815.12L594.91 815.07L594.92 814.07L593.78 813.81L593.28 814.72L592.04 815.68L590.85 814.85L591.21 818.29L593.54 817.62L593.51 816.6L594.76 816.65L594.54 818.77L597.24 819.32L598.68 818.98L599.33 816.99L597.44 816.55L597.42 815.21L596.36 815.17L596.44 814.35L595.6 814.05L595.56 815.12ZM602.51 802.51L601.2 803.21L599.26 803.07L598.97 804.54L598.14 804.23L598.23 805.17L600.75 805.97L602.26 805.22L602.51 802.51ZM612.66 798.47L610.68 797.77L608.79 799.76L607.07 799.84L606.44 800.91L605.98 800.69L605.56 802.16L606.46 802.81L606.33 803.27L604.78 803.35L604.05 804.26L603.74 803.78L603.2 805.5L603.95 806.81L605.81 808L605.61 805.7L607.11 806.38L606.66 808.56L609.76 811.77L608.51 812.09L608.19 813.85L605.81 813.78L605.02 813.35L605.52 812.06L605.2 810.67L606.72 810.69L606.81 809.92L603.82 809.89L603.7 813.23L602.6 813.27L602.56 814.04L600.82 813.67L600.84 815.16L602.32 815.12L602.4 814.4L605.65 813.99L605.42 816.74L606.64 818.73L606.95 818.94L607.14 817.64L609.66 817.36L610.09 819.56L611.53 819.33L612 815.78L613.48 815.8L613.8 817.8L612.63 819.57L613.16 820.64L614.46 820.93L615.25 818.56L617.78 818.63L618.73 819.79L618.73 821.21L620.73 815.73L623.13 804.88L621.55 804.54L620.17 801.86L619.38 801.86L618.56 803.21L618.37 805.23L615.65 804.33L613.88 806.51L612.33 806.55L612.63 808.61L611.68 808.95L611.84 809.72L611.04 809.79L610.27 803.63L607.59 802.77L607.46 801.98L607.86 800.78L609.93 801.89L610.75 800.92L612.4 800.31L612.66 798.47ZM614.4 811.83L615.22 812.13L616.08 812.96L617.22 812.53L617.23 813.2L616.67 815.68L615.98 816.14L615.7 817.58L615.11 817.6L614.97 815.53L614.04 815.82L614.06 812.45L613.57 812.42L614.4 811.83ZM618.41 795.49L616.27 795.06L616.14 796.21L617.48 796.52L618.41 795.49ZM597.81 795.79L594.47 794.48L594.86 796.29L593.75 796.89L593.46 798.58L594.44 798.9L594.1 800.31L593.23 800.27L594.2 801.33L594.22 802.12L593.42 802.95L594.62 803.21L594.75 806.34L593.47 806.61L593.33 807.59L593.41 808.95L594.73 809.84L594.32 812.1L595.24 812.34L596.38 812.22L596.44 811.47L598.42 811.43L598.44 810.75L600.15 810L600.38 808.44L600.21 807.39L599.06 807.45L598.62 805.95L596.65 806.76L596.59 805.15L597.27 805.21L597.41 803.31L595.81 801.88L596.08 800.72L595.82 799.11L596.61 798.94L597.81 795.79ZM604.96 794.47L603.35 794.01L602.21 795.87L601.17 795.89L600.61 797.52L599.15 797.16L598.56 800L599.31 800.28L600.82 799.52L601.76 801.12L602.37 799.99L606.94 799.91L604.7 797.33L604.96 794.47ZM625.33 797.91L627.29 793.72L627.57 793.01L624.36 791.75L623.11 797.03L625.33 797.91ZM954.88 168.37L954.83 168.19L954.78 168.3L954.88 168.37ZM954.77 168.12L954.58 168.15L954.7 168.28L954.77 168.12ZM954.91 168.02L954.88 167.96L954.8 167.96L954.91 168.02ZM954.75 167.37L954.69 166.97L954.18 167.46L954.47 168.08L954.75 167.37ZM958.12 162.61L956.92 164.18L956.1 164.25L956.34 164.72L956.96 165.03L958.12 162.61ZM957.19 162.93L957.07 161.82L956.29 161.06L957.1 162.51L956.87 162.94L956.25 162.58L956.86 163.17L957.19 162.93ZM943.06 141.95L942.54 141.13L942.26 141.42L941.55 141.58L941.43 142.58L940.37 142.47L939.52 144.78L936.95 144.43L936.95 145.42L938.1 145.39L937.9 146.59L939.51 147.18L944 147.33L947.7 150.36L951.42 148.98L953.55 146.99L954 145.5L952.89 142.87L950.78 145.89L948.94 145.78L948.12 146.57L944.59 146.5L941.12 145.03L942.06 142.22L943.06 141.95Z" vector-effect="non-scaling-stroke"/>
  </g>
</svg>
