<svg xmlns="http://www.w3.org/2000/svg" viewBox="0 0 640 360" role="img" aria-labelledby="title desc">
  <title id="title">Snow peaks beneath a clear sky</title><desc id="desc">An original abstract illustration used by the synthetic guided-tour example.</desc>
  <rect width="640" height="360" fill="#c9e0e8"/><circle cx="112" cy="88" r="45" fill="#f2bd68"/><path d="M0 300 152 105l65 82L314 55l102 139 69-83 155 189v60H0Z" fill="#7d8f91"/><path d="m94 180 58-75 34 43-30-9-22 30-19-14Zm148-31 72-94 60 81-47-25-27 35-30-17Zm197 78 46-116 54 66-40-15-22 40-19-10Z" fill="#fffdf7"/><path d="M0 310c132-43 230-35 328 15 101-54 198-56 312-15v50H0Z" fill="#a98d68"/>
</svg>
